<svg width="200" height="60" viewBox="0 0 200 60" fill="none" xmlns="http://www.w3.org/2000/svg">
<circle cx="193.87" cy="37.4094" r="6" fill="url(#paint0_linear_92_122)"/>
<path d="M19.9666 38.6568H8.79818L6.95016 44H1.04453L11.1283 15.9181H17.6767L27.7605 44H21.8147L19.9666 38.6568ZM18.44 34.1573L14.3824 22.4264L10.3248 34.1573H18.44ZM37.154 24.9975C37.8772 23.9262 38.8681 23.0558 40.1269 22.3862C41.4125 21.7166 42.8722 21.3818 44.5059 21.3818C46.4075 21.3818 48.1216 21.8505 49.6483 22.788C51.2017 23.7254 52.4203 25.0645 53.3041 26.8054C54.2147 28.5195 54.6701 30.5148 54.6701 32.7914C54.6701 35.0679 54.2147 37.09 53.3041 38.8577C52.4203 40.5986 51.2017 41.9511 49.6483 42.9153C48.1216 43.8795 46.4075 44.3616 44.5059 44.3616C42.8454 44.3616 41.3857 44.0402 40.1269 43.3974C38.8949 42.7278 37.904 41.8708 37.154 40.8262V44H31.5296V14.271H37.154V24.9975ZM48.9251 32.7914C48.9251 31.4522 48.6439 30.3006 48.0815 29.3364C47.5458 28.3454 46.8227 27.5955 45.912 27.0866C45.0282 26.5777 44.064 26.3233 43.0195 26.3233C42.0017 26.3233 41.0376 26.5911 40.1269 27.1268C39.2431 27.6357 38.52 28.3856 37.9575 29.3765C37.4219 30.3675 37.154 31.5326 37.154 32.8717C37.154 34.2109 37.4219 35.3759 37.9575 36.3669C38.52 37.3578 39.2431 38.1212 40.1269 38.6568C41.0376 39.1657 42.0017 39.4201 43.0195 39.4201C44.064 39.4201 45.0282 39.1523 45.912 38.6166C46.8227 38.081 47.5458 37.3177 48.0815 36.3267C48.6439 35.3357 48.9251 34.1573 48.9251 32.7914ZM68.64 44.3616C66.4974 44.3616 64.569 43.8929 62.8549 42.9555C61.1408 41.9913 59.7883 40.6387 58.7973 38.8979C57.8331 37.157 57.3511 35.1483 57.3511 32.8717C57.3511 30.5952 57.8465 28.5864 58.8375 26.8456C59.8553 25.1047 61.2346 23.7655 62.9755 22.8281C64.7164 21.8639 66.6581 21.3818 68.8007 21.3818C70.9434 21.3818 72.8851 21.8639 74.626 22.8281C76.3669 23.7655 77.7328 25.1047 78.7238 26.8456C79.7416 28.5864 80.2504 30.5952 80.2504 32.8717C80.2504 35.1483 79.7282 37.157 78.6836 38.8979C77.6659 40.6387 76.2732 41.9913 74.5055 42.9555C72.7646 43.8929 70.8095 44.3616 68.64 44.3616ZM68.64 39.4603C69.6578 39.4603 70.6086 39.2193 71.4924 38.7372C72.403 38.2283 73.1262 37.4784 73.6618 36.4874C74.1975 35.4964 74.4653 34.2912 74.4653 32.8717C74.4653 30.7559 73.9029 29.1355 72.778 28.0106C71.6799 26.8589 70.3274 26.2831 68.7204 26.2831C67.1134 26.2831 65.7609 26.8589 64.6628 28.0106C63.5915 29.1355 63.0558 30.7559 63.0558 32.8717C63.0558 34.9876 63.5781 36.6213 64.6226 37.773C65.6939 38.8979 67.0331 39.4603 68.64 39.4603ZM105.387 21.7434V44H99.7227V41.1878C98.9996 42.152 98.0488 42.9153 96.8704 43.4777C95.7187 44.0134 94.4599 44.2812 93.094 44.2812C91.3531 44.2812 89.8131 43.9197 88.4739 43.1965C87.1348 42.4466 86.0769 41.3619 85.3002 39.9424C84.5502 38.4961 84.1753 36.782 84.1753 34.8001V21.7434H89.7997V33.9966C89.7997 35.7643 90.2416 37.1302 91.1254 38.0944C92.0093 39.0318 93.2145 39.5005 94.7411 39.5005C96.2945 39.5005 97.5132 39.0318 98.397 38.0944C99.2808 37.1302 99.7227 35.7643 99.7227 33.9966V21.7434H105.387ZM117.485 26.3635V37.1302C117.485 37.8801 117.659 38.4292 118.007 38.7773C118.382 39.0987 118.998 39.2594 119.855 39.2594H122.467V44H118.931C114.191 44 111.821 41.6967 111.821 37.09V26.3635H109.169V21.7434H111.821V16.2395H117.485V21.7434H122.467V26.3635H117.485ZM141.629 15.9583V33.3136C141.629 35.2152 142.124 36.6749 143.115 37.6926C144.106 38.6836 145.499 39.1791 147.294 39.1791C149.115 39.1791 150.521 38.6836 151.512 37.6926C152.503 36.6749 152.998 35.2152 152.998 33.3136V15.9583H158.663V33.2735C158.663 35.6571 158.141 37.6792 157.096 39.3398C156.078 40.9735 154.699 42.2055 152.958 43.0358C151.244 43.8661 149.329 44.2812 147.213 44.2812C145.124 44.2812 143.223 43.8661 141.508 43.0358C139.821 42.2055 138.482 40.9735 137.491 39.3398C136.5 37.6792 136.005 35.6571 136.005 33.2735V15.9583H141.629ZM172.614 44.3616C170.793 44.3616 169.159 44.0402 167.713 43.3974C166.267 42.7278 165.115 41.8306 164.258 40.7057C163.428 39.5808 162.972 38.3354 162.892 36.9695H168.556C168.664 37.8265 169.079 38.5363 169.802 39.0987C170.552 39.6612 171.476 39.9424 172.574 39.9424C173.645 39.9424 174.475 39.7281 175.065 39.2996C175.681 38.8711 175.989 38.322 175.989 37.6525C175.989 36.9293 175.614 36.3937 174.864 36.0455C174.141 35.6705 172.976 35.2688 171.369 34.8403C169.708 34.4385 168.342 34.0234 167.271 33.5948C166.226 33.1663 165.316 32.5101 164.539 31.6263C163.789 30.7425 163.414 29.5506 163.414 28.0508C163.414 26.8188 163.762 25.6939 164.459 24.6761C165.182 23.6584 166.2 22.8549 167.512 22.2657C168.851 21.6765 170.418 21.3818 172.212 21.3818C174.864 21.3818 176.98 22.0514 178.56 23.3906C180.14 24.7029 181.01 26.484 181.171 28.7338H175.788C175.707 27.8499 175.333 27.1536 174.663 26.6447C174.02 26.109 173.15 25.8412 172.052 25.8412C171.034 25.8412 170.244 26.0287 169.681 26.4036C169.146 26.7786 168.878 27.3009 168.878 27.9704C168.878 28.7204 169.253 29.2962 170.003 29.6979C170.753 30.0729 171.918 30.4612 173.498 30.863C175.105 31.2647 176.431 31.6799 177.475 32.1084C178.52 32.5369 179.417 33.2065 180.167 34.1171C180.944 35.0009 181.345 36.1794 181.372 37.6525C181.372 38.938 181.01 40.0897 180.287 41.1074C179.591 42.1252 178.573 42.9287 177.234 43.5179C175.922 44.0803 174.382 44.3616 172.614 44.3616Z" fill="#363636"/>
<defs>
<linearGradient id="paint0_linear_92_122" x1="193.87" y1="35.0094" x2="193.87" y2="43.4094" gradientUnits="userSpaceOnUse">
<stop stop-color="#FF4E59"/>
<stop offset="1" stop-color="#FF56B6"/>
</linearGradient>
</defs>
</svg>
