<svg width="850" height="60" viewBox="0 0 850 60" fill="none" xmlns="http://www.w3.org/2000/svg">
<rect y="31" width="850" height="2" fill="url(#paint0_linear_56_1664)"/>
<circle cx="561" cy="37.4094" r="6" fill="url(#paint1_linear_56_1664)"/>
<path d="M302.681 29.6176C304.261 29.9122 305.56 30.7023 306.578 31.9879C307.596 33.2735 308.105 34.7465 308.105 36.4071C308.105 37.9069 307.73 39.2326 306.98 40.3843C306.257 41.5092 305.199 42.393 303.806 43.0358C302.413 43.6786 300.766 44 298.865 44H286.772V15.9583H298.342C300.244 15.9583 301.878 16.2663 303.244 16.8823C304.636 17.4983 305.681 18.3554 306.377 19.4535C307.1 20.5516 307.462 21.797 307.462 23.1897C307.462 24.8234 307.02 26.1894 306.136 27.2875C305.279 28.3856 304.127 29.1623 302.681 29.6176ZM292.396 27.5285H297.539C298.878 27.5285 299.909 27.2339 300.632 26.6447C301.355 26.0287 301.717 25.1582 301.717 24.0334C301.717 22.9085 301.355 22.038 300.632 21.422C299.909 20.806 298.878 20.498 297.539 20.498H292.396V27.5285ZM298.061 39.4201C299.427 39.4201 300.485 39.0987 301.235 38.4559C302.011 37.8132 302.4 36.9025 302.4 35.7241C302.4 34.5189 301.998 33.5815 301.195 32.9119C300.391 32.2155 299.306 31.8674 297.94 31.8674H292.396V39.4201H298.061ZM315.44 19.0919C314.449 19.0919 313.618 18.7839 312.949 18.1679C312.306 17.5251 311.985 16.735 311.985 15.7976C311.985 14.8602 312.306 14.0835 312.949 13.4675C313.618 12.8247 314.449 12.5033 315.44 12.5033C316.431 12.5033 317.247 12.8247 317.89 13.4675C318.56 14.0835 318.895 14.8602 318.895 15.7976C318.895 16.735 318.56 17.5251 317.89 18.1679C317.247 18.7839 316.431 19.0919 315.44 19.0919ZM318.212 21.7434V44H312.587V21.7434H318.212ZM329.393 14.271V44H323.769V14.271H329.393ZM340.574 14.271V44H334.95V14.271H340.574ZM365.386 44.2812C363.431 44.2812 361.663 43.9464 360.083 43.2769C358.53 42.6073 357.298 41.6431 356.387 40.3843C355.476 39.1255 355.008 37.6391 354.981 35.925H361.007C361.087 37.0766 361.489 37.9872 362.212 38.6568C362.962 39.3264 363.98 39.6612 365.265 39.6612C366.578 39.6612 367.609 39.3532 368.359 38.7372C369.109 38.0944 369.484 37.2641 369.484 36.2464C369.484 35.4161 369.229 34.7331 368.72 34.1975C368.212 33.6618 367.569 33.2467 366.792 32.9521C366.042 32.6307 364.998 32.2825 363.658 31.9075C361.837 31.3719 360.351 30.8496 359.199 30.3407C358.074 29.8051 357.097 29.015 356.266 27.9704C355.463 26.8991 355.061 25.4796 355.061 23.712C355.061 22.0514 355.476 20.6051 356.307 19.3731C357.137 18.1411 358.302 17.2037 359.802 16.5609C361.302 15.8914 363.016 15.5566 364.944 15.5566C367.837 15.5566 370.18 16.2663 371.975 17.6858C373.796 19.0785 374.8 21.0337 374.988 23.5513H368.801C368.747 22.5871 368.332 21.797 367.555 21.181C366.805 20.5382 365.801 20.2168 364.542 20.2168C363.444 20.2168 362.56 20.498 361.891 21.0605C361.248 21.6229 360.927 22.4398 360.927 23.5111C360.927 24.261 361.168 24.8904 361.65 25.3993C362.159 25.8814 362.775 26.2831 363.498 26.6045C364.248 26.8991 365.292 27.2473 366.631 27.649C368.453 28.1847 369.939 28.7204 371.091 29.256C372.242 29.7917 373.233 30.5952 374.064 31.6665C374.894 32.7378 375.309 34.1439 375.309 35.8848C375.309 37.3846 374.921 38.7773 374.144 40.0629C373.367 41.3485 372.229 42.3796 370.729 43.1563C369.229 43.9063 367.448 44.2812 365.386 44.2812ZM401.196 21.7434V44H395.532V41.1878C394.809 42.152 393.858 42.9153 392.679 43.4777C391.528 44.0134 390.269 44.2812 388.903 44.2812C387.162 44.2812 385.622 43.9197 384.283 43.1965C382.944 42.4466 381.886 41.3619 381.109 39.9424C380.359 38.4961 379.984 36.782 379.984 34.8001V21.7434H385.609V33.9966C385.609 35.7643 386.051 37.1302 386.934 38.0944C387.818 39.0318 389.024 39.5005 390.55 39.5005C392.104 39.5005 393.322 39.0318 394.206 38.0944C395.09 37.1302 395.532 35.7643 395.532 33.9966V21.7434H401.196ZM434.386 21.422C437.118 21.422 439.314 22.2657 440.974 23.953C442.662 25.6135 443.505 27.9437 443.505 30.9433V44H437.881V31.7067C437.881 29.9658 437.439 28.64 436.555 27.7294C435.671 26.792 434.466 26.3233 432.939 26.3233C431.413 26.3233 430.194 26.792 429.284 27.7294C428.4 28.64 427.958 29.9658 427.958 31.7067V44H422.333V31.7067C422.333 29.9658 421.892 28.64 421.008 27.7294C420.124 26.792 418.919 26.3233 417.392 26.3233C415.839 26.3233 414.607 26.792 413.696 27.7294C412.812 28.64 412.37 29.9658 412.37 31.7067V44H406.746V21.7434H412.37V24.4351C413.093 23.4977 414.017 22.7612 415.142 22.2255C416.294 21.6899 417.553 21.422 418.919 21.422C420.659 21.422 422.213 21.797 423.579 22.5469C424.945 23.27 426.003 24.3146 426.753 25.6805C427.476 24.3949 428.52 23.3638 429.886 22.5871C431.279 21.8104 432.779 21.422 434.386 21.422ZM476.482 21.422C479.214 21.422 481.411 22.2657 483.071 23.953C484.758 25.6135 485.602 27.9437 485.602 30.9433V44H479.978V31.7067C479.978 29.9658 479.536 28.64 478.652 27.7294C477.768 26.792 476.563 26.3233 475.036 26.3233C473.51 26.3233 472.291 26.792 471.38 27.7294C470.496 28.64 470.055 29.9658 470.055 31.7067V44H464.43V31.7067C464.43 29.9658 463.988 28.64 463.104 27.7294C462.221 26.792 461.015 26.3233 459.489 26.3233C457.935 26.3233 456.703 26.792 455.793 27.7294C454.909 28.64 454.467 29.9658 454.467 31.7067V44H448.843V21.7434H454.467V24.4351C455.19 23.4977 456.114 22.7612 457.239 22.2255C458.391 21.6899 459.649 21.422 461.015 21.422C462.756 21.422 464.31 21.797 465.676 22.5469C467.042 23.27 468.099 24.3146 468.849 25.6805C469.572 24.3949 470.617 23.3638 471.983 22.5871C473.376 21.8104 474.875 21.422 476.482 21.422ZM489.493 32.7914C489.493 30.5416 489.935 28.5463 490.819 26.8054C491.729 25.0645 492.948 23.7254 494.475 22.788C496.028 21.8505 497.756 21.3818 499.657 21.3818C501.318 21.3818 502.764 21.7166 503.996 22.3862C505.255 23.0558 506.259 23.8994 507.009 24.9172V21.7434H512.674V44H507.009V40.7459C506.286 41.7904 505.282 42.6609 503.996 43.3572C502.737 44.0268 501.277 44.3616 499.617 44.3616C497.742 44.3616 496.028 43.8795 494.475 42.9153C492.948 41.9511 491.729 40.5986 490.819 38.8577C489.935 37.09 489.493 35.0679 489.493 32.7914ZM507.009 32.8717C507.009 31.5058 506.741 30.3407 506.206 29.3765C505.67 28.3856 504.947 27.6357 504.036 27.1268C503.125 26.5911 502.148 26.3233 501.103 26.3233C500.059 26.3233 499.095 26.5777 498.211 27.0866C497.327 27.5955 496.604 28.3454 496.041 29.3364C495.506 30.3006 495.238 31.4522 495.238 32.7914C495.238 34.1305 495.506 35.309 496.041 36.3267C496.604 37.3177 497.327 38.081 498.211 38.6166C499.121 39.1523 500.086 39.4201 501.103 39.4201C502.148 39.4201 503.125 39.1657 504.036 38.6568C504.947 38.1212 505.67 37.3712 506.206 36.4071C506.741 35.4161 507.009 34.2376 507.009 32.8717ZM523.791 25.1984C524.514 24.02 525.452 23.096 526.603 22.4264C527.782 21.7568 529.121 21.422 530.621 21.422V27.3276H529.134C527.367 27.3276 526.028 27.7428 525.117 28.5731C524.233 29.4033 523.791 30.8496 523.791 32.9119V44H518.167V21.7434H523.791V25.1984ZM555.702 21.7434L541.922 54.5257H535.936L540.757 43.4376L531.838 21.7434H538.145L543.89 37.2909L549.716 21.7434H555.702Z" fill="#363636"/>
<defs>
<linearGradient id="paint0_linear_56_1664" x1="823.438" y1="31.9867" x2="36.6563" y2="31.9961" gradientUnits="userSpaceOnUse">
<stop stop-color="#FF8147"/>
<stop offset="0.45625" stop-color="#FCD066"/>
<stop offset="1" stop-color="#FF55B7"/>
</linearGradient>
<linearGradient id="paint1_linear_56_1664" x1="561" y1="35.0094" x2="561" y2="43.4094" gradientUnits="userSpaceOnUse">
<stop stop-color="#FF4E59"/>
<stop offset="1" stop-color="#FF56B6"/>
</linearGradient>
</defs>
</svg>
