<svg width="1257" height="99" viewBox="0 0 1257 99" fill="none" xmlns="http://www.w3.org/2000/svg">
<path d="M7.1004 24.8196L5.36521 23.825L5.36128 23.8319L7.1004 24.8196ZM24.5047 7.41522L25.4853 9.15839L25.4924 9.15434L24.5047 7.41522ZM94.2591 32.0828V34.0828H97.0257L96.1583 31.4557L94.2591 32.0828ZM72.1954 32.0828L70.3923 32.9482L70.9369 34.0828H72.1954V32.0828ZM62.8765 21.8046L61.8713 23.5336L61.8799 23.5386L61.8885 23.5435L62.8765 21.8046ZM34.2347 22.3528L35.2584 24.071L35.269 24.0646L34.2347 22.3528ZM24.0936 33.3162L22.3186 32.3945L22.3116 32.4081L22.3048 32.4217L24.0936 33.3162ZM24.0936 66.7544L22.298 67.6353L22.3081 67.6558L22.3186 67.676L24.0936 66.7544ZM34.2347 77.8548L33.1845 79.5569L33.2056 79.5699L33.227 79.5824L34.2347 77.8548ZM62.8765 78.2659L63.8818 79.995L63.8879 79.9914L63.894 79.9878L62.8765 78.2659ZM72.1954 67.8508V65.8508H70.9369L70.3923 66.9853L72.1954 67.8508ZM94.2591 67.8508L96.16 68.4725L97.0176 65.8508H94.2591V67.8508ZM77.403 90.7368L78.5255 92.392L78.5296 92.3892L77.403 90.7368ZM24.5047 92.6554L23.5078 94.3892L23.5206 94.3965L23.5335 94.4037L24.5047 92.6554ZM7.1004 75.251L5.36128 76.2387L5.36587 76.2467L5.37053 76.2548L7.1004 75.251ZM2.79647 50.0353C2.79647 40.9338 4.8255 32.8754 8.83953 25.8072L5.36128 23.8319C0.970063 31.5643 -1.20353 40.3163 -1.20353 50.0353H2.79647ZM8.83559 25.8141C12.9557 18.6258 18.5005 13.0873 25.4853 9.15837L23.5242 5.67207C15.8912 9.96565 9.83304 16.0301 5.36522 23.825L8.83559 25.8141ZM25.4924 9.15434C32.5695 5.13524 40.4932 3.11129 49.3094 3.11129V-0.888712C39.8533 -0.888712 31.2405 1.28996 23.5171 5.6761L25.4924 9.15434ZM49.3094 3.11129C59.638 3.11129 68.6012 5.75324 76.2763 10.9863L78.5296 7.68135C70.1251 1.95101 60.3592 -0.888712 49.3094 -0.888712V3.11129ZM76.2763 10.9863C83.9346 16.2079 89.293 23.4214 92.36 32.7099L96.1583 31.4557C92.8299 21.3755 86.9509 13.4231 78.5296 7.68135L76.2763 10.9863ZM94.2591 30.0828H72.1954V34.0828H94.2591V30.0828ZM73.9984 31.2173C71.6471 26.3188 68.2727 22.5704 63.8645 20.0657L61.8885 23.5435C65.5201 25.6069 68.3583 28.7107 70.3923 32.9482L73.9984 31.2173ZM63.8818 20.0756C59.6056 17.5895 54.6807 16.3786 49.1723 16.3786V20.3786C54.0791 20.3786 58.2903 21.4517 61.8713 23.5336L63.8818 20.0756ZM49.1723 16.3786C43.2678 16.3786 37.925 17.7866 33.2005 20.641L35.269 24.0646C39.3151 21.6201 43.9307 20.3786 49.1723 20.3786V16.3786ZM33.2111 20.6346C28.5746 23.3968 24.9442 27.3379 22.3186 32.3945L25.8686 34.2378C28.1766 29.7928 31.3069 26.4251 35.2583 24.071L33.2111 20.6346ZM22.3048 32.4217C19.765 37.5013 18.5305 43.3921 18.5305 50.0353H22.5305C22.5305 43.8879 23.6715 38.6326 25.8825 34.2106L22.3048 32.4217ZM18.5305 50.0353C18.5305 56.5932 19.7672 62.4763 22.298 67.6353L25.8892 65.8736C23.6692 61.3482 22.5305 56.0852 22.5305 50.0353H18.5305ZM22.3186 67.676C24.9414 72.7274 28.5639 76.7059 33.1845 79.5569L35.2849 76.1528C31.3176 73.7048 28.1793 70.283 25.8686 65.8328L22.3186 67.676ZM33.227 79.5824C37.9475 82.336 43.2808 83.692 49.1723 83.692V79.692C43.9178 79.692 39.2926 78.4898 35.2425 76.1273L33.227 79.5824ZM49.1723 83.692C54.6807 83.692 59.6056 82.4811 63.8818 79.995L61.8713 76.5369C58.2903 78.6189 54.0791 79.692 49.1723 79.692V83.692ZM63.894 79.9878C68.2839 77.3938 71.6497 73.6094 73.9984 68.7162L70.3923 66.9853C68.3557 71.2282 65.5089 74.3873 61.8591 76.5441L63.894 79.9878ZM72.1954 69.8508H94.2591V65.8508H72.1954V69.8508ZM92.3582 67.229C89.2895 76.6106 83.9297 83.8661 76.2763 89.0843L78.5296 92.3892C86.9558 86.6441 92.8335 78.6422 96.16 68.4725L92.3582 67.229ZM76.2804 89.0815C68.703 94.2202 59.7406 96.8223 49.3094 96.8223V100.822C60.4394 100.822 70.2061 98.034 78.5255 92.392L76.2804 89.0815ZM49.3094 96.8223C40.4854 96.8223 32.5559 94.8403 25.476 90.907L23.5335 94.4037C31.2542 98.693 39.861 100.822 49.3094 100.822V96.8223ZM25.5017 90.9215C18.5016 86.8965 12.9509 81.3488 8.83028 74.2473L5.37053 76.2548C9.83783 83.9538 15.8901 90.009 23.5078 94.3892L25.5017 90.9215ZM8.83953 74.2634C4.8255 67.1952 2.79647 59.1368 2.79647 50.0353H-1.20353C-1.20353 59.7543 0.970063 68.5063 5.36128 76.2387L8.83953 74.2634ZM130.38 92.6554L131.359 90.9111L130.38 92.6554ZM112.565 75.251L110.839 76.2614L110.844 76.2706L112.565 75.251ZM112.565 24.8196L114.286 25.8392L114.291 25.8299L112.565 24.8196ZM130.38 7.27817L129.402 5.53389L129.402 5.53389L130.38 7.27817ZM179.716 7.27817L178.728 9.01732L178.737 9.02246L179.716 7.27817ZM197.394 24.8196L195.659 25.8141L195.666 25.8267L195.673 25.8392L197.394 24.8196ZM197.394 75.251L195.668 74.2407L195.664 74.2473L197.394 75.251ZM179.716 92.6554L178.737 90.9111L178.737 90.9111L179.716 92.6554ZM170.26 77.9919L171.267 79.7194L171.281 79.7117L171.294 79.7037L170.26 77.9919ZM180.538 66.7544L182.32 67.6623L182.32 67.6623L180.538 66.7544ZM180.538 33.1791L178.756 34.087L178.759 34.0939L178.763 34.1007L180.538 33.1791ZM170.26 22.0787L169.252 23.8063L169.252 23.8063L170.26 22.0787ZM139.699 22.0787L138.707 20.3422L138.699 20.3467L138.692 20.3512L139.699 22.0787ZM129.421 33.1791L131.196 34.1008L131.2 34.0939L131.203 34.087L129.421 33.1791ZM129.421 66.7544L131.203 65.8466L131.203 65.8466L129.421 66.7544ZM139.699 77.9919L138.665 79.7037L138.686 79.7163L138.707 79.7283L139.699 77.9919ZM155.048 96.9593C146.422 96.9593 138.539 94.9388 131.359 90.9111L129.402 94.3996C137.205 98.7772 145.767 100.959 155.048 100.959V96.9593ZM131.359 90.9111C124.175 86.8808 118.492 81.3295 114.286 74.2314L110.844 76.2706C115.409 83.9731 121.603 90.0247 129.402 94.3996L131.359 90.9111ZM114.291 74.2407C110.1 67.0811 107.987 58.9841 107.987 49.8982H103.987C103.987 59.6328 106.259 68.4377 110.839 76.2614L114.291 74.2407ZM107.987 49.8982C107.987 40.9073 110.098 32.9052 114.286 25.8392L110.844 23.7999C106.261 31.5344 103.987 40.2515 103.987 49.8982H107.987ZM114.291 25.8299C118.499 18.6416 124.181 13.0493 131.359 9.02246L129.402 5.53389C121.597 9.91231 115.402 16.0143 110.839 23.8092L114.291 25.8299ZM131.359 9.02246C138.539 4.99473 146.422 2.97425 155.048 2.97425V-1.02575C145.767 -1.02575 137.205 1.15638 129.402 5.53389L131.359 9.02246ZM155.048 2.97425C163.769 2.97425 171.648 4.99645 178.728 9.0173L180.703 5.53905C172.983 1.15466 164.416 -1.02575 155.048 -1.02575V2.97425ZM178.737 9.02246C185.912 13.0472 191.544 18.6345 195.659 25.8141L199.129 23.825C194.656 16.0214 188.503 9.9144 180.694 5.53389L178.737 9.02246ZM195.673 25.8392C199.861 32.9052 201.972 40.9073 201.972 49.8982H205.972C205.972 40.2515 203.698 31.5344 199.115 23.7999L195.673 25.8392ZM201.972 49.8982C201.972 58.9841 199.859 67.0811 195.668 74.2407L199.12 76.2614C203.7 68.4377 205.972 59.6328 205.972 49.8982H201.972ZM195.664 74.2473C191.551 81.3366 185.918 86.8829 178.737 90.9111L180.694 94.3996C188.497 90.0226 194.649 83.966 199.124 76.2548L195.664 74.2473ZM178.737 90.9111C171.557 94.9388 163.674 96.9593 155.048 96.9593V100.959C164.329 100.959 172.891 98.7772 180.694 94.3996L178.737 90.9111ZM155.048 83.829C161.11 83.829 166.537 82.4788 171.267 79.7194L169.252 76.2643C165.212 78.6212 160.498 79.829 155.048 79.829V83.829ZM171.294 79.7037C176.018 76.8494 179.694 72.8159 182.32 67.6623L178.756 65.8466C176.448 70.3773 173.272 73.8354 169.225 76.28L171.294 79.7037ZM182.32 67.6623C184.953 62.4932 186.238 56.5535 186.238 49.8982H182.238C182.238 56.0336 181.056 61.3313 178.756 65.8466L182.32 67.6623ZM186.238 49.8982C186.238 43.2442 184.954 37.3434 182.313 32.2575L178.763 34.1007C181.056 38.5164 182.238 43.7617 182.238 49.8982H186.238ZM182.32 32.2713C179.692 27.1124 176.008 23.1163 171.267 20.3512L169.252 23.8063C173.282 26.1573 176.45 29.5615 178.756 34.087L182.32 32.2713ZM171.267 20.3512C166.537 17.5918 161.11 16.2415 155.048 16.2415V20.2415C160.498 20.2415 165.212 21.4494 169.252 23.8063L171.267 20.3512ZM155.048 16.2415C148.986 16.2415 143.52 17.592 138.707 20.3422L140.692 23.8152C144.832 21.4492 149.599 20.2415 155.048 20.2415V16.2415ZM138.692 20.3512C133.951 23.1163 130.267 27.1124 127.639 32.2713L131.203 34.087C133.509 29.5615 136.677 26.1573 140.707 23.8063L138.692 20.3512ZM127.646 32.2575C125.005 37.3434 123.721 43.2442 123.721 49.8982H127.721C127.721 43.7617 128.903 38.5164 131.196 34.1008L127.646 32.2575ZM123.721 49.8982C123.721 56.5535 125.006 62.4932 127.639 67.6623L131.203 65.8466C128.903 61.3313 127.721 56.0336 127.721 49.8982H123.721ZM127.639 67.6623C130.264 72.8159 133.941 76.8494 138.665 79.7037L140.734 76.28C136.687 73.8354 133.511 70.3773 131.203 65.8466L127.639 67.6623ZM138.707 79.7283C143.52 82.4786 148.986 83.829 155.048 83.829V79.829C149.599 79.829 144.832 78.6214 140.692 76.2554L138.707 79.7283ZM300.06 98V100H302.06V98H300.06ZM280.874 98L279.206 99.1038L279.799 100H280.874V98ZM237.432 32.3569L239.099 31.2531L235.432 25.7108V32.3569H237.432ZM237.432 98V100H239.432V98H237.432ZM218.246 98H216.246V100H218.246V98ZM218.246 2.20762V0.207618H216.246V2.20762H218.246ZM237.432 2.20762L239.101 1.10545L238.508 0.207618H237.432V2.20762ZM280.874 67.9878L279.205 69.09L282.874 74.6454V67.9878H280.874ZM280.874 2.20762V0.207618H278.874V2.20762H280.874ZM300.06 2.20762H302.06V0.207618H300.06V2.20762ZM300.06 96H280.874V100H300.06V96ZM282.542 96.8962L239.099 31.2531L235.764 33.4606L279.206 99.1038L282.542 96.8962ZM235.432 32.3569V98H239.432V32.3569H235.432ZM237.432 96H218.246V100H237.432V96ZM220.246 98V2.20762H216.246V98H220.246ZM218.246 4.20762H237.432V0.207618H218.246V4.20762ZM235.763 3.30979L279.205 69.09L282.543 66.8856L239.101 1.10545L235.763 3.30979ZM282.874 67.9878V2.20762H278.874V67.9878H282.874ZM280.874 4.20762H300.06V0.207618H280.874V4.20762ZM298.06 2.20762V98H302.06V2.20762H298.06ZM384.115 2.34467H386.115V0.344666H384.115V2.34467ZM384.115 17.8304V19.8304H386.115V17.8304H384.115ZM358.625 17.8304V15.8304H356.625V17.8304H358.625ZM358.625 98V100H360.625V98H358.625ZM339.439 98H337.439V100H339.439V98ZM339.439 17.8304H341.439V15.8304H339.439V17.8304ZM313.949 17.8304H311.949V19.8304H313.949V17.8304ZM313.949 2.34467V0.344666H311.949V2.34467H313.949ZM382.115 2.34467V17.8304H386.115V2.34467H382.115ZM384.115 15.8304H358.625V19.8304H384.115V15.8304ZM356.625 17.8304V98H360.625V17.8304H356.625ZM358.625 96H339.439V100H358.625V96ZM341.439 98V17.8304H337.439V98H341.439ZM339.439 15.8304H313.949V19.8304H339.439V15.8304ZM315.949 17.8304V2.34467H311.949V17.8304H315.949ZM313.949 4.34467H384.115V0.344666H313.949V4.34467ZM417.299 17.8304V15.8304H415.299V17.8304H417.299ZM417.299 41.8128H415.299V43.8128H417.299V41.8128ZM449.504 41.8128H451.504V39.8128H449.504V41.8128ZM449.504 57.0244V59.0244H451.504V57.0244H449.504ZM417.299 57.0244V55.0244H415.299V57.0244H417.299ZM417.299 82.3772H415.299V84.3772H417.299V82.3772ZM453.615 82.3772H455.615V80.3772H453.615V82.3772ZM453.615 98V100H455.615V98H453.615ZM398.113 98H396.113V100H398.113V98ZM398.113 2.20762V0.207618H396.113V2.20762H398.113ZM453.615 2.20762H455.615V0.207618H453.615V2.20762ZM453.615 17.8304V19.8304H455.615V17.8304H453.615ZM415.299 17.8304V41.8128H419.299V17.8304H415.299ZM417.299 43.8128H449.504V39.8128H417.299V43.8128ZM447.504 41.8128V57.0244H451.504V41.8128H447.504ZM449.504 55.0244H417.299V59.0244H449.504V55.0244ZM415.299 57.0244V82.3772H419.299V57.0244H415.299ZM417.299 84.3772H453.615V80.3772H417.299V84.3772ZM451.615 82.3772V98H455.615V82.3772H451.615ZM453.615 96H398.113V100H453.615V96ZM400.113 98V2.20762H396.113V98H400.113ZM398.113 4.20762H453.615V0.207618H398.113V4.20762ZM451.615 2.20762V17.8304H455.615V2.20762H451.615ZM453.615 15.8304H417.299V19.8304H453.615V15.8304ZM552.865 98V100H554.865V98H552.865ZM533.679 98L532.011 99.1038L532.604 100H533.679V98ZM490.237 32.3569L491.905 31.2531L488.237 25.7108V32.3569H490.237ZM490.237 98V100H492.237V98H490.237ZM471.051 98H469.051V100H471.051V98ZM471.051 2.20762V0.207618H469.051V2.20762H471.051ZM490.237 2.20762L491.906 1.10545L491.313 0.207618H490.237V2.20762ZM533.679 67.9878L532.01 69.09L535.679 74.6454V67.9878H533.679ZM533.679 2.20762V0.207618H531.679V2.20762H533.679ZM552.865 2.20762H554.865V0.207618H552.865V2.20762ZM552.865 96H533.679V100H552.865V96ZM535.347 96.8962L491.905 31.2531L488.569 33.4606L532.011 99.1038L535.347 96.8962ZM488.237 32.3569V98H492.237V32.3569H488.237ZM490.237 96H471.051V100H490.237V96ZM473.051 98V2.20762H469.051V98H473.051ZM471.051 4.20762H490.237V0.207618H471.051V4.20762ZM488.568 3.30979L532.01 69.09L535.348 66.8856L491.906 1.10545L488.568 3.30979ZM535.679 67.9878V2.20762H531.679V67.9878H535.679ZM533.679 4.20762H552.865V0.207618H533.679V4.20762ZM550.865 2.20762V98H554.865V2.20762H550.865ZM636.92 2.34467H638.92V0.344666H636.92V2.34467ZM636.92 17.8304V19.8304H638.92V17.8304H636.92ZM611.43 17.8304V15.8304H609.43V17.8304H611.43ZM611.43 98V100H613.43V98H611.43ZM592.244 98H590.244V100H592.244V98ZM592.244 17.8304H594.244V15.8304H592.244V17.8304ZM566.754 17.8304H564.754V19.8304H566.754V17.8304ZM566.754 2.34467V0.344666H564.754V2.34467H566.754ZM634.92 2.34467V17.8304H638.92V2.34467H634.92ZM636.92 15.8304H611.43V19.8304H636.92V15.8304ZM609.43 17.8304V98H613.43V17.8304H609.43ZM611.43 96H592.244V100H611.43V96ZM594.244 98V17.8304H590.244V98H594.244ZM592.244 15.8304H566.754V19.8304H592.244V15.8304ZM568.754 17.8304V2.34467H564.754V17.8304H568.754ZM566.754 4.34467H636.92V0.344666H566.754V4.34467ZM811.433 2.34467L813.359 2.8828L814.069 0.344666H811.433V2.34467ZM784.71 98V100H786.228L786.636 98.5381L784.71 98ZM762.098 98L760.164 98.5098L760.557 100H762.098V98ZM744.146 29.8901L746.08 29.3804L744.189 22.2072L742.218 29.3586L744.146 29.8901ZM725.371 98L725.383 100L726.897 99.9907L727.299 98.5315L725.371 98ZM702.896 98.137L700.965 98.6565L701.365 100.146L702.908 100.137L702.896 98.137ZM677.132 2.34467V0.344666H674.523L675.201 2.86412L677.132 2.34467ZM697.688 2.34467L699.639 1.90205L699.285 0.344666H697.688V2.34467ZM714.545 76.6214L712.594 77.0641L716.479 77.1283L714.545 76.6214ZM734.004 2.34467V0.344666H732.461L732.07 1.83779L734.004 2.34467ZM755.383 2.34467L757.324 1.86214L756.947 0.344666H755.383V2.34467ZM773.747 76.2103L771.806 76.6928L775.696 76.6587L773.747 76.2103ZM790.74 2.34467V0.344666H789.148L788.791 1.89627L790.74 2.34467ZM809.507 1.80653L782.784 97.4619L786.636 98.5381L813.359 2.8828L809.507 1.80653ZM784.71 96H762.098V100H784.71V96ZM764.032 97.4902L746.08 29.3804L742.212 30.3999L760.164 98.5098L764.032 97.4902ZM742.218 29.3586L723.443 97.4685L727.299 98.5315L746.074 30.4216L742.218 29.3586ZM725.359 96L702.884 96.1371L702.908 100.137L725.383 100L725.359 96ZM704.827 97.6176L679.063 1.82521L675.201 2.86412L700.965 98.6565L704.827 97.6176ZM677.132 4.34467H697.688V0.344666H677.132V4.34467ZM695.738 2.78729L712.594 77.0641L716.495 76.1788L699.639 1.90205L695.738 2.78729ZM716.479 77.1283L735.939 2.85154L732.07 1.83779L712.61 76.1146L716.479 77.1283ZM734.004 4.34467H755.383V0.344666H734.004V4.34467ZM753.442 2.8272L771.806 76.6928L775.688 75.7278L757.324 1.86214L753.442 2.8272ZM775.696 76.6587L792.689 2.79306L788.791 1.89627L771.798 75.7619L775.696 76.6587ZM790.74 4.34467H811.433V0.344666H790.74V4.34467ZM873.296 98L871.556 98.9854L872.13 100H873.296V98ZM852.191 60.7246L853.932 59.7392L853.357 58.7246H852.191V60.7246ZM843.147 60.7246V58.7246H841.147V60.7246H843.147ZM843.147 98V100H845.147V98H843.147ZM823.961 98H821.961V100H823.961V98ZM823.961 2.34467V0.344666H821.961V2.34467H823.961ZM878.778 6.31888L877.871 8.10144L877.883 8.1078L877.896 8.11399L878.778 6.31888ZM890.426 16.8711L888.69 17.8634L888.702 17.8845L888.714 17.9054L890.426 16.8711ZM888.919 48.8019L890.536 49.9783L890.541 49.9713L890.546 49.9644L888.919 48.8019ZM872.611 59.2171L872.097 57.2842L869.548 57.9619L870.888 60.2335L872.611 59.2171ZM895.497 98V100H898.999L897.219 96.9836L895.497 98ZM843.147 46.3352H841.147V48.3352H843.147V46.3352ZM870.829 42.635L872.217 44.0747L872.231 44.0621L872.243 44.0492L870.829 42.635ZM870.829 21.9417L869.441 23.3814L869.454 23.3944L869.468 23.4073L870.829 21.9417ZM843.147 18.2415V16.2415H841.147V18.2415H843.147ZM875.036 97.0146L853.932 59.7392L850.451 61.7099L871.556 98.9854L875.036 97.0146ZM852.191 58.7246H843.147V62.7246H852.191V58.7246ZM841.147 60.7246V98H845.147V60.7246H841.147ZM843.147 96H823.961V100H843.147V96ZM825.961 98V2.34467H821.961V98H825.961ZM823.961 4.34467H859.866V0.344666H823.961V4.34467ZM859.866 4.34467C867.033 4.34467 873.009 5.62789 877.871 8.10144L879.685 4.53633C874.131 1.71092 867.499 0.344666 859.866 0.344666V4.34467ZM877.896 8.11399C882.791 10.5188 886.354 13.7762 888.69 17.8634L892.163 15.8788C889.382 11.0127 885.179 7.23522 879.659 4.52377L877.896 8.11399ZM888.714 17.9054C891.162 21.9567 892.4 26.5281 892.4 31.6717H896.4C896.4 25.8519 894.989 20.5562 892.138 15.8369L888.714 17.9054ZM892.4 31.6717C892.4 37.5599 890.703 42.8634 887.291 47.6394L890.546 49.9644C894.444 44.508 896.4 38.3913 896.4 31.6717H892.4ZM887.301 47.6256C883.969 52.208 878.964 55.4589 872.097 57.2842L873.125 61.15C880.693 59.1382 886.56 55.4456 890.536 49.9783L887.301 47.6256ZM870.888 60.2335L893.774 99.0164L897.219 96.9836L874.333 58.2007L870.888 60.2335ZM895.497 96H873.296V100H895.497V96ZM843.147 48.3352H859.181V44.3352H843.147V48.3352ZM859.181 48.3352C864.667 48.3352 869.144 47.0383 872.217 44.0747L869.441 41.1953C867.398 43.1653 864.109 44.3352 859.181 44.3352V48.3352ZM872.243 44.0492C875.261 41.0312 876.666 36.9564 876.666 32.0828H872.666C872.666 36.1625 871.513 39.1226 869.415 41.2208L872.243 44.0492ZM876.666 32.0828C876.666 27.2934 875.255 23.3223 872.19 20.4761L869.468 23.4073C871.519 25.3119 872.666 28.1015 872.666 32.0828H876.666ZM872.217 20.502C869.144 17.5384 864.667 16.2415 859.181 16.2415V20.2415C864.109 20.2415 867.398 21.4114 869.441 23.3814L872.217 20.502ZM859.181 16.2415H843.147V20.2415H859.181V16.2415ZM841.147 18.2415V46.3352H845.147V18.2415H841.147ZM930.939 2.34467H932.939V0.344666H930.939V2.34467ZM930.939 98V100H932.939V98H930.939ZM911.753 98H909.753V100H911.753V98ZM911.753 2.34467V0.344666H909.753V2.34467H911.753ZM928.939 2.34467V98H932.939V2.34467H928.939ZM930.939 96H911.753V100H930.939V96ZM913.753 98V2.34467H909.753V98H913.753ZM911.753 4.34467H930.939V0.344666H911.753V4.34467ZM1014.99 2.34467H1016.99V0.344666H1014.99V2.34467ZM1014.99 17.8304V19.8304H1016.99V17.8304H1014.99ZM989.5 17.8304V15.8304H987.5V17.8304H989.5ZM989.5 98V100H991.5V98H989.5ZM970.314 98H968.314V100H970.314V98ZM970.314 17.8304H972.314V15.8304H970.314V17.8304ZM944.824 17.8304H942.824V19.8304H944.824V17.8304ZM944.824 2.34467V0.344666H942.824V2.34467H944.824ZM1012.99 2.34467V17.8304H1016.99V2.34467H1012.99ZM1014.99 15.8304H989.5V19.8304H1014.99V15.8304ZM987.5 17.8304V98H991.5V17.8304H987.5ZM989.5 96H970.314V100H989.5V96ZM972.314 98V17.8304H968.314V98H972.314ZM970.314 15.8304H944.824V19.8304H970.314V15.8304ZM946.824 17.8304V2.34467H942.824V17.8304H946.824ZM944.824 4.34467H1014.99V0.344666H944.824V4.34467ZM1048.17 17.8304V15.8304H1046.17V17.8304H1048.17ZM1048.17 41.8128H1046.17V43.8128H1048.17V41.8128ZM1080.38 41.8128H1082.38V39.8128H1080.38V41.8128ZM1080.38 57.0244V59.0244H1082.38V57.0244H1080.38ZM1048.17 57.0244V55.0244H1046.17V57.0244H1048.17ZM1048.17 82.3772H1046.17V84.3772H1048.17V82.3772ZM1084.49 82.3772H1086.49V80.3772H1084.49V82.3772ZM1084.49 98V100H1086.49V98H1084.49ZM1028.99 98H1026.99V100H1028.99V98ZM1028.99 2.20762V0.207618H1026.99V2.20762H1028.99ZM1084.49 2.20762H1086.49V0.207618H1084.49V2.20762ZM1084.49 17.8304V19.8304H1086.49V17.8304H1084.49ZM1046.17 17.8304V41.8128H1050.17V17.8304H1046.17ZM1048.17 43.8128H1080.38V39.8128H1048.17V43.8128ZM1078.38 41.8128V57.0244H1082.38V41.8128H1078.38ZM1080.38 55.0244H1048.17V59.0244H1080.38V55.0244ZM1046.17 57.0244V82.3772H1050.17V57.0244H1046.17ZM1048.17 84.3772H1084.49V80.3772H1048.17V84.3772ZM1082.49 82.3772V98H1086.49V82.3772H1082.49ZM1084.49 96H1028.99V100H1084.49V96ZM1030.99 98V2.20762H1026.99V98H1030.99ZM1028.99 4.20762H1084.49V0.207618H1028.99V4.20762ZM1082.49 2.20762V17.8304H1086.49V2.20762H1082.49ZM1084.49 15.8304H1048.17V19.8304H1084.49V15.8304ZM1151.26 98L1149.52 98.9854L1150.1 100H1151.26V98ZM1130.16 60.7246L1131.9 59.7392L1131.32 58.7246H1130.16V60.7246ZM1121.11 60.7246V58.7246H1119.11V60.7246H1121.11ZM1121.11 98V100H1123.11V98H1121.11ZM1101.93 98H1099.93V100H1101.93V98ZM1101.93 2.34467V0.344666H1099.93V2.34467H1101.93ZM1156.74 6.31888L1155.84 8.10144L1155.85 8.1078L1155.86 8.11399L1156.74 6.31888ZM1168.39 16.8711L1166.65 17.8634L1166.67 17.8845L1166.68 17.9054L1168.39 16.8711ZM1166.88 48.8019L1168.5 49.9783L1168.51 49.9713L1168.51 49.9644L1166.88 48.8019ZM1150.58 59.2171L1150.06 57.2842L1147.51 57.9619L1148.85 60.2335L1150.58 59.2171ZM1173.46 98V100H1176.96L1175.18 96.9836L1173.46 98ZM1121.11 46.3352H1119.11V48.3352H1121.11V46.3352ZM1148.79 42.635L1150.18 44.0747L1150.2 44.0621L1150.21 44.0492L1148.79 42.635ZM1148.79 21.9417L1147.41 23.3814L1147.42 23.3944L1147.43 23.4073L1148.79 21.9417ZM1121.11 18.2415V16.2415H1119.11V18.2415H1121.11ZM1153 97.0146L1131.9 59.7392L1128.42 61.7099L1149.52 98.9854L1153 97.0146ZM1130.16 58.7246H1121.11V62.7246H1130.16V58.7246ZM1119.11 60.7246V98H1123.11V60.7246H1119.11ZM1121.11 96H1101.93V100H1121.11V96ZM1103.93 98V2.34467H1099.93V98H1103.93ZM1101.93 4.34467H1137.83V0.344666H1101.93V4.34467ZM1137.83 4.34467C1145 4.34467 1150.97 5.62789 1155.84 8.10144L1157.65 4.53633C1152.1 1.71092 1145.46 0.344666 1137.83 0.344666V4.34467ZM1155.86 8.11399C1160.76 10.5188 1164.32 13.7762 1166.65 17.8634L1170.13 15.8788C1167.35 11.0127 1163.14 7.23522 1157.62 4.52377L1155.86 8.11399ZM1166.68 17.9054C1169.13 21.9567 1170.37 26.5281 1170.37 31.6717H1174.37C1174.37 25.8519 1172.95 20.5562 1170.1 15.8369L1166.68 17.9054ZM1170.37 31.6717C1170.37 37.5599 1168.67 42.8634 1165.26 47.6394L1168.51 49.9644C1172.41 44.508 1174.37 38.3913 1174.37 31.6717H1170.37ZM1165.27 47.6256C1161.93 52.208 1156.93 55.4589 1150.06 57.2842L1151.09 61.15C1158.66 59.1382 1164.53 55.4456 1168.5 49.9783L1165.27 47.6256ZM1148.85 60.2335L1171.74 99.0164L1175.18 96.9836L1152.3 58.2007L1148.85 60.2335ZM1173.46 96H1151.26V100H1173.46V96ZM1121.11 48.3352H1137.15V44.3352H1121.11V48.3352ZM1137.15 48.3352C1142.63 48.3352 1147.11 47.0383 1150.18 44.0747L1147.41 41.1953C1145.36 43.1653 1142.07 44.3352 1137.15 44.3352V48.3352ZM1150.21 44.0492C1153.23 41.0312 1154.63 36.9564 1154.63 32.0828H1150.63C1150.63 36.1625 1149.48 39.1226 1147.38 41.2208L1150.21 44.0492ZM1154.63 32.0828C1154.63 27.2934 1153.22 23.3223 1150.16 20.4761L1147.43 23.4073C1149.48 25.3119 1150.63 28.1015 1150.63 32.0828H1154.63ZM1150.18 20.502C1147.11 17.5384 1142.63 16.2415 1137.15 16.2415V20.2415C1142.07 20.2415 1145.36 21.4114 1147.41 23.3814L1150.18 20.502ZM1137.15 16.2415H1121.11V20.2415H1137.15V16.2415ZM1119.11 18.2415V46.3352H1123.11V18.2415H1119.11ZM1204.66 95.5332L1203.86 97.3699L1203.88 97.3747L1204.66 95.5332ZM1192.05 85.6662L1190.43 86.8385L1190.43 86.8385L1192.05 85.6662ZM1187.25 70.4546V68.4546H1185.22L1185.25 70.4858L1187.25 70.4546ZM1207.81 70.4546L1209.8 70.3154L1209.67 68.4546H1207.81V70.4546ZM1211.92 79.7734L1210.56 81.2409L1210.57 81.2532L1210.59 81.2653L1211.92 79.7734ZM1232.89 80.0475L1234.16 81.5929L1234.17 81.5796L1234.19 81.566L1232.89 80.0475ZM1234.12 64.5617L1232.67 65.9392L1232.67 65.9392L1234.12 64.5617ZM1227.54 60.3134L1226.75 62.1517L1226.79 62.1684L1226.83 62.1834L1227.54 60.3134ZM1216.85 56.7503L1216.29 58.6691L1216.3 58.6728L1216.31 58.6763L1216.85 56.7503ZM1201.64 51.4057L1200.78 53.2114L1200.81 53.2236L1200.83 53.2351L1201.64 51.4057ZM1191.64 43.3202L1190.04 44.5202L1190.05 44.5427L1190.07 44.5647L1191.64 43.3202ZM1191.77 13.9932L1193.43 15.1109L1193.43 15.1109L1191.77 13.9932ZM1203.7 4.40029L1204.48 6.23858L1204.5 6.23268L1204.51 6.22657L1203.7 4.40029ZM1245.22 8.23747L1243.98 9.80604L1243.99 9.81622L1244.01 9.82619L1245.22 8.23747ZM1255.5 28.2456V30.2456H1257.65L1257.49 28.0971L1255.5 28.2456ZM1234.39 28.2456L1232.4 28.3566L1232.5 30.2456H1234.39V28.2456ZM1230.15 20.1601L1228.84 21.6786L1228.87 21.7034L1228.9 21.7271L1230.15 20.1601ZM1210.82 19.749L1209.54 18.2176L1209.52 18.2306L1209.51 18.2438L1210.82 19.749ZM1210 34.5495L1208.55 35.925L1208.59 35.9643L1208.63 36.0014L1210 34.5495ZM1216.3 38.6608L1215.49 40.4884L1215.53 40.5063L1215.57 40.5223L1216.3 38.6608ZM1226.99 42.2239L1226.42 44.1396L1226.43 44.1426L1226.99 42.2239ZM1252.35 55.9281L1250.77 57.1532L1250.77 57.1532L1252.35 55.9281ZM1252.62 84.5699L1250.91 83.5356L1250.91 83.5357L1252.62 84.5699ZM1240.97 95.1221L1241.87 96.911L1241.88 96.9046L1241.89 96.8981L1240.97 95.1221ZM1222.75 96.9593C1216.31 96.9593 1210.55 95.8576 1205.44 93.6917L1203.88 97.3747C1209.54 99.777 1215.85 100.959 1222.75 100.959V96.9593ZM1205.45 93.6966C1200.45 91.5422 1196.55 88.4702 1193.67 84.494L1190.43 86.8385C1193.76 91.4502 1198.26 94.9562 1203.86 97.3699L1205.45 93.6966ZM1193.67 84.494C1190.83 80.5667 1189.34 75.9046 1189.25 70.4233L1185.25 70.4858C1185.35 76.6988 1187.06 82.1778 1190.43 86.8385L1193.67 84.494ZM1187.25 72.4546H1207.81V68.4546H1187.25V72.4546ZM1205.81 70.5937C1206.12 74.9369 1207.66 78.5527 1210.56 81.2409L1213.28 78.3059C1211.25 76.4261 1210.05 73.8292 1209.8 70.3154L1205.81 70.5937ZM1210.59 81.2653C1213.61 83.9598 1217.6 85.1995 1222.33 85.1995V81.1995C1218.3 81.1995 1215.35 80.1551 1213.25 78.2815L1210.59 81.2653ZM1222.33 85.1995C1227.11 85.1995 1231.13 84.0772 1234.16 81.5929L1231.62 78.502C1229.53 80.2204 1226.51 81.1995 1222.33 81.1995V85.1995ZM1234.19 81.566C1237.2 78.9803 1238.72 75.5861 1238.72 71.5509H1234.72C1234.72 74.4591 1233.68 76.7293 1231.59 78.529L1234.19 81.566ZM1238.72 71.5509C1238.72 68.2747 1237.7 65.4302 1235.57 63.1842L1232.67 65.9392C1234.01 67.3478 1234.72 69.1626 1234.72 71.5509H1238.72ZM1235.57 63.1842C1233.6 61.1136 1231.15 59.5416 1228.25 58.4434L1226.83 62.1834C1229.24 63.0953 1231.17 64.3554 1232.67 65.9392L1235.57 63.1842ZM1228.33 58.4752C1225.65 57.3284 1221.99 56.1132 1217.39 54.8244L1216.31 58.6763C1220.85 59.9456 1224.31 61.1058 1226.75 62.1517L1228.33 58.4752ZM1217.42 54.8316C1211.25 53.0179 1206.27 51.2644 1202.45 49.5763L1200.83 53.2351C1204.87 55.0188 1210.03 56.8283 1216.29 58.6691L1217.42 54.8316ZM1202.5 49.6C1198.96 47.9128 1195.86 45.4177 1193.2 42.0757L1190.07 44.5647C1193.08 48.3489 1196.65 51.2441 1200.78 53.2114L1202.5 49.6ZM1193.24 42.1202C1190.83 38.9081 1189.53 34.5289 1189.53 28.7938H1185.53C1185.53 35.1184 1186.96 40.4234 1190.04 44.5202L1193.24 42.1202ZM1189.53 28.7938C1189.53 23.479 1190.85 18.9451 1193.43 15.1109L1190.12 12.8755C1187.04 17.4466 1185.53 22.7798 1185.53 28.7938H1189.53ZM1193.43 15.1109C1196.03 11.2583 1199.69 8.29524 1204.48 6.23858L1202.91 2.562C1197.48 4.89069 1193.18 8.32292 1190.12 12.8755L1193.43 15.1109ZM1204.51 6.22657C1209.33 4.07527 1214.89 2.97425 1221.24 2.97425V-1.02575C1214.43 -1.02575 1208.3 0.157259 1202.88 2.57402L1204.51 6.22657ZM1221.24 2.97425C1230.78 2.97425 1238.3 5.31018 1243.98 9.80604L1246.46 6.6689C1239.9 1.48047 1231.43 -1.02575 1221.24 -1.02575V2.97425ZM1244.01 9.82619C1249.72 14.1928 1252.9 20.311 1253.5 28.3941L1257.49 28.0971C1256.82 19.0042 1253.15 11.7838 1246.44 6.64875L1244.01 9.82619ZM1255.5 26.2456H1234.39V30.2456H1255.5V26.2456ZM1236.39 28.1347C1236.18 24.2577 1234.47 21.0389 1231.39 18.5931L1228.9 21.7271C1231.12 23.484 1232.25 25.6555 1232.4 28.3566L1236.39 28.1347ZM1231.45 18.6416C1228.44 16.0607 1224.5 14.8711 1219.87 14.8711V18.8711C1223.82 18.8711 1226.74 19.8742 1228.84 21.6786L1231.45 18.6416ZM1219.87 14.8711C1215.78 14.8711 1212.27 15.9253 1209.54 18.2176L1212.11 21.2804C1213.95 19.7355 1216.47 18.8711 1219.87 18.8711V14.8711ZM1209.51 18.2438C1206.77 20.6352 1205.53 24.0355 1205.53 28.1086H1209.53C1209.53 24.8727 1210.49 22.6999 1212.14 21.2542L1209.51 18.2438ZM1205.53 28.1086C1205.53 31.1392 1206.53 33.7901 1208.55 35.925L1211.45 33.1741C1210.19 31.8372 1209.53 30.1942 1209.53 28.1086H1205.53ZM1208.63 36.0014C1210.55 37.8211 1212.84 39.3115 1215.49 40.4884L1217.12 36.8332C1214.83 35.8174 1212.93 34.567 1211.38 33.0976L1208.63 36.0014ZM1215.57 40.5223C1218.21 41.5569 1221.83 42.7629 1226.42 44.1395L1227.57 40.3082C1223.02 38.944 1219.52 37.7747 1217.04 36.7993L1215.57 40.5223ZM1226.43 44.1426C1232.59 45.9541 1237.56 47.7489 1241.36 49.519L1243.05 45.8921C1239 44.0078 1233.82 42.1482 1227.56 40.3052L1226.43 44.1426ZM1241.36 49.519C1244.98 51.2028 1248.12 53.7335 1250.77 57.1532L1253.93 54.703C1250.91 50.8138 1247.29 47.8628 1243.05 45.8921L1241.36 49.519ZM1250.77 57.1532C1253.26 60.3682 1254.59 64.6952 1254.59 70.3175H1258.59C1258.59 64.0629 1257.1 58.7969 1253.93 54.703L1250.77 57.1532ZM1254.59 70.3175C1254.59 75.0686 1253.37 79.4619 1250.91 83.5356L1254.33 85.6041C1257.17 80.9072 1258.59 75.7989 1258.59 70.3175H1254.59ZM1250.91 83.5357C1248.47 87.5674 1244.88 90.8445 1240.05 93.3461L1241.89 96.8981C1247.29 94.1008 1251.47 90.343 1254.33 85.6041L1250.91 83.5357ZM1240.08 93.3333C1235.3 95.7243 1229.54 96.9593 1222.75 96.9593V100.959C1230.02 100.959 1236.42 99.6362 1241.87 96.911L1240.08 93.3333Z" fill="#EAEAEA"/>
</svg>
