<svg width="767" height="99" viewBox="0 0 767 99" fill="none" xmlns="http://www.w3.org/2000/svg">
<path d="M7.1004 24.8196L5.79901 24.0736L5.79606 24.0788L7.1004 24.8196ZM24.5047 7.41522L25.2401 8.7226L25.2455 8.71956L24.5047 7.41522ZM94.2591 32.0828V33.5828H96.3341L95.6835 31.6125L94.2591 32.0828ZM72.1954 32.0828L70.8431 32.7319L71.2515 33.5828H72.1954V32.0828ZM62.8765 21.8046L62.1226 23.1014L62.129 23.1051L62.1355 23.1088L62.8765 21.8046ZM34.2347 22.3528L35.0024 23.6415L35.0104 23.6367L34.2347 22.3528ZM24.0936 33.3162L22.7624 32.6249L22.7571 32.6351L22.752 32.6453L24.0936 33.3162ZM24.0936 66.7544L22.7469 67.4151L22.7545 67.4304L22.7624 67.4456L24.0936 66.7544ZM34.2347 77.8548L33.4471 79.1314L33.4629 79.1411L33.4789 79.1505L34.2347 77.8548ZM62.8765 78.2659L63.6305 79.5627L63.6396 79.5573L62.8765 78.2659ZM72.1954 67.8508V66.3508H71.2515L70.8431 67.2017L72.1954 67.8508ZM94.2591 67.8508L95.6848 68.3171L96.328 66.3508H94.2591V67.8508ZM77.403 90.7368L78.2449 91.9782L78.248 91.9761L77.403 90.7368ZM24.5047 92.6554L23.757 93.9557L23.7666 93.9612L23.7763 93.9666L24.5047 92.6554ZM7.1004 75.251L5.79601 75.9918L5.803 76.0038L7.1004 75.251ZM2.29647 50.0353C2.29647 40.8566 4.34357 32.7115 8.40475 25.5603L5.79606 24.0788C1.45199 31.7282 -0.703529 40.3935 -0.703529 50.0353H2.29647ZM8.40179 25.5655C12.5654 18.3013 18.1743 12.6971 25.2401 8.72258L23.7693 6.10786C16.2173 10.3559 10.2234 16.3545 5.79902 24.0736L8.40179 25.5655ZM25.2455 8.71956C32.4034 4.65458 40.4132 2.61129 49.3094 2.61129V-0.388712C39.9332 -0.388712 31.4066 1.77062 23.764 6.11088L25.2455 8.71956ZM49.3094 2.61129C59.7282 2.61129 68.7917 5.27796 76.558 10.5732L78.248 8.09447C69.9346 2.42629 60.2691 -0.388712 49.3094 -0.388712V2.61129ZM76.558 10.5732C84.3117 15.8598 89.7352 23.1657 92.8348 32.5531L95.6835 31.6125C92.3878 21.6313 86.5739 13.7712 78.248 8.09447L76.558 10.5732ZM94.2591 30.5828H72.1954V33.5828H94.2591V30.5828ZM73.5477 31.4337C71.236 26.6178 67.9287 22.95 63.6175 20.5004L62.1355 23.1088C65.8642 25.2274 68.7694 28.4117 70.8431 32.7319L73.5477 31.4337ZM63.6304 20.5079C59.4412 18.0723 54.6055 16.8786 49.1723 16.8786V19.8786C54.1543 19.8786 58.4547 20.9689 62.1226 23.1014L63.6304 20.5079ZM49.1723 16.8786C43.3507 16.8786 38.0988 18.2657 33.4591 21.0689L35.0104 23.6367C39.1414 21.1409 43.8479 19.8786 49.1723 19.8786V16.8786ZM33.467 21.0641C28.9161 23.7753 25.3482 27.6448 22.7624 32.6249L25.4249 34.0074C27.7725 29.486 30.9653 26.0465 35.0024 23.6414L33.467 21.0641ZM22.752 32.6453C20.2533 37.6427 19.0305 43.4541 19.0305 50.0353H22.0305C22.0305 43.8259 23.1832 38.4912 25.4353 33.987L22.752 32.6453ZM19.0305 50.0353C19.0305 56.5297 20.255 62.3353 22.7469 67.4151L25.4403 66.0938C23.1815 61.4892 22.0305 56.1487 22.0305 50.0353H19.0305ZM22.7624 67.4456C25.3462 72.4218 28.9081 76.3307 33.4471 79.1314L35.0224 76.5783C30.9734 74.0799 27.7746 70.5886 25.4249 66.0632L22.7624 67.4456ZM33.4789 79.1505C38.1157 81.8553 43.3604 83.192 49.1723 83.192V80.192C43.8381 80.192 39.1245 78.9706 34.9905 76.5592L33.4789 79.1505ZM49.1723 83.192C54.6055 83.192 59.4412 81.9983 63.6304 79.5627L62.1226 76.9692C58.4547 79.1017 54.1543 80.192 49.1723 80.192V83.192ZM63.6396 79.5573C67.937 77.018 71.2379 73.3118 73.5477 68.4999L70.8431 67.2017C68.7675 71.5259 65.8558 74.7631 62.1134 76.9746L63.6396 79.5573ZM72.1954 69.3508H94.2591V66.3508H72.1954V69.3508ZM92.8335 67.3844C89.7325 76.8646 84.308 84.2133 76.558 89.4974L78.248 91.9761C86.5776 86.2968 92.3905 78.3882 95.6848 68.3171L92.8335 67.3844ZM76.5611 89.4953C68.8909 94.6969 59.828 97.3223 49.3094 97.3223V100.322C60.352 100.322 70.0182 97.5572 78.2449 91.9782L76.5611 89.4953ZM49.3094 97.3223C40.4073 97.3223 32.3932 95.3219 25.2332 91.3441L23.7763 93.9666C31.4169 98.2114 39.9391 100.322 49.3094 100.322V97.3223ZM25.2524 91.355C18.1751 87.2855 12.5618 81.6744 8.39781 74.4982L5.803 76.0038C10.227 83.6281 16.2165 89.6199 23.757 93.9557L25.2524 91.355ZM8.40475 74.5103C4.34357 67.3591 2.29647 59.2139 2.29647 50.0353H-0.703529C-0.703529 59.6771 1.45199 68.3424 5.79606 75.9918L8.40475 74.5103ZM130.38 92.6554L131.114 91.3471L130.38 92.6554ZM112.565 75.251L111.27 76.0088L111.275 76.0157L112.565 75.251ZM112.565 24.8196L113.855 25.5843L113.859 25.5773L112.565 24.8196ZM130.38 7.27817L129.647 5.96996L129.647 5.96996L130.38 7.27817ZM179.716 7.27817L178.975 8.58253L178.982 8.58639L179.716 7.27817ZM197.394 24.8196L196.093 25.5655L196.098 25.5749L196.104 25.5843L197.394 24.8196ZM197.394 75.251L196.099 74.4932L196.097 74.4982L197.394 75.251ZM179.716 92.6554L178.982 91.3471L178.982 91.3471L179.716 92.6554ZM170.26 77.9919L171.015 79.2875L171.025 79.2817L171.035 79.2757L170.26 77.9919ZM180.538 66.7544L181.874 67.4353L181.874 67.4353L180.538 66.7544ZM180.538 33.1791L179.201 33.86L179.207 33.8703L180.538 33.1791ZM170.26 22.0787L169.504 23.3744L169.504 23.3744L170.26 22.0787ZM139.699 22.0787L138.955 20.7763L138.943 20.783L139.699 22.0787ZM129.421 33.1791L130.752 33.8704L130.758 33.86L129.421 33.1791ZM129.421 66.7544L130.758 66.0735L130.758 66.0735L129.421 66.7544ZM139.699 77.9919L138.924 79.2757L138.939 79.2852L138.955 79.2942L139.699 77.9919ZM155.048 97.4593C146.34 97.4593 138.372 95.4186 131.114 91.3471L129.647 93.9636C137.372 98.2974 145.849 100.459 155.048 100.459V97.4593ZM131.114 91.3471C123.853 87.2738 118.106 81.66 113.855 74.4863L111.275 76.0157C115.794 83.6426 121.924 89.6317 129.647 93.9636L131.114 91.3471ZM113.859 74.4933C109.62 67.2506 107.487 59.0652 107.487 49.8982H104.487C104.487 59.5517 106.739 68.2681 111.27 76.0088L113.859 74.4933ZM107.487 49.8982C107.487 40.8253 109.619 32.7339 113.855 25.5843L111.275 24.0549C106.741 31.7058 104.487 40.3335 104.487 49.8982H107.487ZM113.859 25.5773C118.112 18.3132 123.858 12.6572 131.114 8.58639L129.647 5.96996C121.92 10.3044 115.789 16.3427 111.27 24.0618L113.859 25.5773ZM131.114 8.58639C138.372 4.51494 146.34 2.47425 155.048 2.47425V-0.525753C145.849 -0.525753 137.372 1.63618 129.647 5.96996L131.114 8.58639ZM155.048 2.47425C163.85 2.47425 171.815 4.51623 178.975 8.58252L180.456 5.97383C172.816 1.63489 164.336 -0.525753 155.048 -0.525753V2.47425ZM178.982 8.58639C186.235 12.6556 191.933 18.3078 196.093 25.5655L198.695 24.0736C194.267 16.348 188.179 10.306 180.449 5.96996L178.982 8.58639ZM196.104 25.5843C200.34 32.7339 202.472 40.8253 202.472 49.8982H205.472C205.472 40.3335 203.218 31.7058 198.684 24.0549L196.104 25.5843ZM202.472 49.8982C202.472 59.0652 200.339 67.2506 196.099 74.4933L198.688 76.0088C203.22 68.2681 205.472 59.5517 205.472 49.8982H202.472ZM196.097 74.4982C191.938 81.6653 186.24 87.2753 178.982 91.3471L180.449 93.9636C188.174 89.6301 194.262 83.6373 198.691 76.0038L196.097 74.4982ZM178.982 91.3471C171.724 95.4186 163.756 97.4593 155.048 97.4593V100.459C164.247 100.459 172.724 98.2974 180.449 93.9636L178.982 91.3471ZM155.048 83.329C161.033 83.329 166.371 81.9966 171.015 79.2875L169.504 76.6962C165.377 79.1034 160.574 80.329 155.048 80.329V83.329ZM171.035 79.2757C175.675 76.4726 179.289 72.511 181.874 67.4353L179.201 66.0735C176.853 70.6821 173.615 74.2121 169.484 76.708L171.035 79.2757ZM181.874 67.4353C184.466 62.348 185.738 56.4885 185.738 49.8982H182.738C182.738 56.0986 181.543 61.4765 179.201 66.0735L181.874 67.4353ZM185.738 49.8982C185.738 43.3089 184.466 37.49 181.869 32.4879L179.207 33.8703C181.543 38.3698 182.738 43.697 182.738 49.8982H185.738ZM181.874 32.4982C179.287 27.4186 175.667 23.4965 171.015 20.783L169.504 23.3744C173.623 25.7772 176.855 29.2554 179.201 33.86L181.874 32.4982ZM171.015 20.783C166.371 18.074 161.033 16.7415 155.048 16.7415V19.7415C160.574 19.7415 165.377 20.9672 169.504 23.3744L171.015 20.783ZM155.048 16.7415C149.062 16.7415 143.684 18.0742 138.955 20.7764L140.443 23.3811C144.668 20.967 149.522 19.7415 155.048 19.7415V16.7415ZM138.943 20.783C134.292 23.4965 130.672 27.4186 128.085 32.4982L130.758 33.86C133.103 29.2554 136.336 25.7772 140.455 23.3744L138.943 20.783ZM128.09 32.4879C125.493 37.49 124.221 43.3089 124.221 49.8982H127.221C127.221 43.697 128.416 38.3698 130.752 33.8703L128.09 32.4879ZM124.221 49.8982C124.221 56.4885 125.493 62.348 128.085 67.4353L130.758 66.0735C128.416 61.4765 127.221 56.0986 127.221 49.8982H124.221ZM128.085 67.4353C130.67 72.511 134.284 76.4726 138.924 79.2757L140.475 76.708C136.344 74.2121 133.105 70.6821 130.758 66.0735L128.085 67.4353ZM138.955 79.2942C143.684 81.9964 149.062 83.329 155.048 83.329V80.329C149.522 80.329 144.668 79.1035 140.443 76.6895L138.955 79.2942ZM267.581 98L266.276 98.739L266.706 99.5H267.581V98ZM246.476 60.7246L247.782 59.9855L247.351 59.2246H246.476V60.7246ZM237.432 60.7246V59.2246H235.932V60.7246H237.432ZM237.432 98V99.5H238.932V98H237.432ZM218.246 98H216.746V99.5H218.246V98ZM218.246 2.34467V0.844666H216.746V2.34467H218.246ZM273.063 6.31888L272.382 7.6558L272.392 7.66057L272.401 7.66521L273.063 6.31888ZM284.711 16.8711L283.409 17.6153L283.418 17.6312L283.427 17.6468L284.711 16.8711ZM283.204 48.8019L284.417 49.6842L284.424 49.6738L283.204 48.8019ZM266.896 59.2171L266.51 57.7674L264.598 58.2757L265.604 59.9794L266.896 59.2171ZM289.782 98V99.5H292.409L291.074 97.2377L289.782 98ZM237.432 46.3352H235.932V47.8352H237.432V46.3352ZM265.114 42.635L266.155 43.7148L266.165 43.7053L266.175 43.6957L265.114 42.635ZM265.114 21.9417L264.073 23.0214L264.083 23.0313L264.093 23.0409L265.114 21.9417ZM237.432 18.2415V16.7415H235.932V18.2415H237.432ZM268.886 97.261L247.782 59.9855L245.171 61.4636L266.276 98.739L268.886 97.261ZM246.476 59.2246H237.432V62.2246H246.476V59.2246ZM235.932 60.7246V98H238.932V60.7246H235.932ZM237.432 96.5H218.246V99.5H237.432V96.5ZM219.746 98V2.34467H216.746V98H219.746ZM218.246 3.84467H254.151V0.844666H218.246V3.84467ZM254.151 3.84467C261.376 3.84467 267.434 5.13827 272.382 7.6558L273.743 4.98197C268.276 2.20054 261.726 0.844666 254.151 0.844666V3.84467ZM272.401 7.66521C277.375 10.1083 281.018 13.4307 283.409 17.6153L286.014 16.1269C283.288 11.3581 279.166 7.64566 273.724 4.97255L272.401 7.66521ZM283.427 17.6468C285.925 21.7817 287.185 26.4435 287.185 31.6717H290.185C290.185 25.9364 288.796 20.7313 285.995 16.0954L283.427 17.6468ZM287.185 31.6717C287.185 37.6638 285.455 43.0689 281.983 47.9301L284.424 49.6738C288.261 44.3024 290.185 38.2873 290.185 31.6717H287.185ZM281.991 47.9197C278.577 52.6127 273.465 55.9188 266.51 57.7674L267.281 60.6668C274.762 58.6782 280.521 55.0409 284.417 49.6842L281.991 47.9197ZM265.604 59.9794L288.49 98.7623L291.074 97.2377L268.188 58.4548L265.604 59.9794ZM289.782 96.5H267.581V99.5H289.782V96.5ZM237.432 47.8352H253.466V44.8352H237.432V47.8352ZM253.466 47.8352C258.882 47.8352 263.211 46.5541 266.155 43.7148L264.073 41.5553C261.901 43.6494 258.464 44.8352 253.466 44.8352V47.8352ZM266.175 43.6957C269.078 40.7926 270.451 36.8572 270.451 32.0828H267.451C267.451 36.2618 266.267 39.3612 264.053 41.5744L266.175 43.6957ZM270.451 32.0828C270.451 27.3944 269.073 23.571 266.135 20.8425L264.093 23.0409C266.271 25.0632 267.451 28.0005 267.451 32.0828H270.451ZM266.155 20.8619C263.211 18.0225 258.882 16.7415 253.466 16.7415V19.7415C258.464 19.7415 261.901 20.9273 264.073 23.0214L266.155 20.8619ZM253.466 16.7415H237.432V19.7415H253.466V16.7415ZM235.932 18.2415V46.3352H238.932V18.2415H235.932ZM325.224 17.8304V16.3304H323.724V17.8304H325.224ZM325.224 41.8128H323.724V43.3128H325.224V41.8128ZM357.429 41.8128H358.929V40.3128H357.429V41.8128ZM357.429 57.0244V58.5244H358.929V57.0244H357.429ZM325.224 57.0244V55.5244H323.724V57.0244H325.224ZM325.224 82.3772H323.724V83.8772H325.224V82.3772ZM361.54 82.3772H363.04V80.8772H361.54V82.3772ZM361.54 98V99.5H363.04V98H361.54ZM306.038 98H304.538V99.5H306.038V98ZM306.038 2.20762V0.707618H304.538V2.20762H306.038ZM361.54 2.20762H363.04V0.707618H361.54V2.20762ZM361.54 17.8304V19.3304H363.04V17.8304H361.54ZM323.724 17.8304V41.8128H326.724V17.8304H323.724ZM325.224 43.3128H357.429V40.3128H325.224V43.3128ZM355.929 41.8128V57.0244H358.929V41.8128H355.929ZM357.429 55.5244H325.224V58.5244H357.429V55.5244ZM323.724 57.0244V82.3772H326.724V57.0244H323.724ZM325.224 83.8772H361.54V80.8772H325.224V83.8772ZM360.04 82.3772V98H363.04V82.3772H360.04ZM361.54 96.5H306.038V99.5H361.54V96.5ZM307.538 98V2.20762H304.538V98H307.538ZM306.038 3.70762H361.54V0.707618H306.038V3.70762ZM360.04 2.20762V17.8304H363.04V2.20762H360.04ZM361.54 16.3304H325.224V19.3304H361.54V16.3304ZM476.725 2.34467H478.225V0.844666H476.725V2.34467ZM476.725 17.8304V19.3304H478.225V17.8304H476.725ZM451.235 17.8304V16.3304H449.735V17.8304H451.235ZM451.235 98V99.5H452.735V98H451.235ZM432.05 98H430.55V99.5H432.05V98ZM432.05 17.8304H433.55V16.3304H432.05V17.8304ZM406.56 17.8304H405.06V19.3304H406.56V17.8304ZM406.56 2.34467V0.844666H405.06V2.34467H406.56ZM475.225 2.34467V17.8304H478.225V2.34467H475.225ZM476.725 16.3304H451.235V19.3304H476.725V16.3304ZM449.735 17.8304V98H452.735V17.8304H449.735ZM451.235 96.5H432.05V99.5H451.235V96.5ZM433.55 98V17.8304H430.55V98H433.55ZM432.05 16.3304H406.56V19.3304H432.05V16.3304ZM408.06 17.8304V2.34467H405.06V17.8304H408.06ZM406.56 3.84467H476.725V0.844666H406.56V3.84467ZM509.91 17.8304V16.3304H508.41V17.8304H509.91ZM509.91 41.8128H508.41V43.3128H509.91V41.8128ZM542.115 41.8128H543.615V40.3128H542.115V41.8128ZM542.115 57.0244V58.5244H543.615V57.0244H542.115ZM509.91 57.0244V55.5244H508.41V57.0244H509.91ZM509.91 82.3772H508.41V83.8772H509.91V82.3772ZM546.226 82.3772H547.726V80.8772H546.226V82.3772ZM546.226 98V99.5H547.726V98H546.226ZM490.724 98H489.224V99.5H490.724V98ZM490.724 2.20762V0.707618H489.224V2.20762H490.724ZM546.226 2.20762H547.726V0.707618H546.226V2.20762ZM546.226 17.8304V19.3304H547.726V17.8304H546.226ZM508.41 17.8304V41.8128H511.41V17.8304H508.41ZM509.91 43.3128H542.115V40.3128H509.91V43.3128ZM540.615 41.8128V57.0244H543.615V41.8128H540.615ZM542.115 55.5244H509.91V58.5244H542.115V55.5244ZM508.41 57.0244V82.3772H511.41V57.0244H508.41ZM509.91 83.8772H546.226V80.8772H509.91V83.8772ZM544.726 82.3772V98H547.726V82.3772H544.726ZM546.226 96.5H490.724V99.5H546.226V96.5ZM492.224 98V2.20762H489.224V98H492.224ZM490.724 3.70762H546.226V0.707618H490.724V3.70762ZM544.726 2.20762V17.8304H547.726V2.20762H544.726ZM546.226 16.3304H509.91V19.3304H546.226V16.3304ZM622.315 79.7734L623.733 79.2831L623.384 78.2734H622.315V79.7734ZM584.218 79.7734V78.2734H583.149L582.8 79.2831L584.218 79.7734ZM577.914 98V99.5H578.982L579.331 98.4903L577.914 98ZM557.768 98L556.357 97.4931L555.636 99.5H557.768V98ZM592.166 2.20762V0.707618H591.111L590.754 1.70068L592.166 2.20762ZM614.504 2.20762L615.916 1.70068L615.559 0.707618H614.504V2.20762ZM648.901 98V99.5H651.034L650.313 97.4931L648.901 98ZM628.619 98L627.202 98.4903L627.551 99.5H628.619V98ZM617.108 64.4247V65.9247H619.214L618.525 63.9344L617.108 64.4247ZM603.266 24.4084L604.684 23.9181L603.266 19.8197L601.849 23.9181L603.266 24.4084ZM589.425 64.4247L588.008 63.9344L587.319 65.9247H589.425V64.4247ZM622.315 78.2734H584.218V81.2734H622.315V78.2734ZM582.8 79.2831L576.496 97.5097L579.331 98.4903L585.635 80.2637L582.8 79.2831ZM577.914 96.5H557.768V99.5H577.914V96.5ZM559.18 98.5069L593.578 2.71455L590.754 1.70068L556.357 97.4931L559.18 98.5069ZM592.166 3.70762H614.504V0.707618H592.166V3.70762ZM613.092 2.71455L647.49 98.5069L650.313 97.4931L615.916 1.70068L613.092 2.71455ZM648.901 96.5H628.619V99.5H648.901V96.5ZM630.037 97.5097L623.733 79.2831L620.898 80.2637L627.202 98.4903L630.037 97.5097ZM618.525 63.9344L604.684 23.9181L601.849 24.8988L615.69 64.915L618.525 63.9344ZM601.849 23.9181L588.008 63.9344L590.843 64.915L604.684 24.8988L601.849 23.9181ZM589.425 65.9247H617.108V62.9247H589.425V65.9247ZM766.048 2.34467H767.548V0.844666H766.048V2.34467ZM766.048 98V99.5H767.548V98H766.048ZM746.862 98H745.362V99.5H746.862V98ZM746.862 35.7829H748.362L745.475 35.2116L746.862 35.7829ZM721.235 98V99.5H722.239L722.622 98.5713L721.235 98ZM706.709 98L705.323 98.5739L705.706 99.5H706.709V98ZM680.945 35.7829L682.331 35.209L679.445 35.7829H680.945ZM680.945 98V99.5H682.445V98H680.945ZM661.759 98H660.259V99.5H661.759V98ZM661.759 2.34467V0.844666H660.259V2.34467H661.759ZM683.548 2.34467L684.928 1.75475L684.538 0.844666H683.548V2.34467ZM713.972 73.4695L712.593 74.0594L713.972 77.2836L715.351 74.0594L713.972 73.4695ZM744.395 2.34467V0.844666H743.405L743.016 1.75475L744.395 2.34467ZM764.548 2.34467V98H767.548V2.34467H764.548ZM766.048 96.5H746.862V99.5H766.048V96.5ZM748.362 98V35.7829H745.362V98H748.362ZM745.475 35.2116L719.848 97.4287L722.622 98.5713L748.249 36.3542L745.475 35.2116ZM721.235 96.5H706.709V99.5H721.235V96.5ZM708.094 97.4261L682.331 35.209L679.559 36.3568L705.323 98.5739L708.094 97.4261ZM679.445 35.7829V98H682.445V35.7829H679.445ZM680.945 96.5H661.759V99.5H680.945V96.5ZM663.259 98V2.34467H660.259V98H663.259ZM661.759 3.84467H683.548V0.844666H661.759V3.84467ZM682.169 2.93458L712.593 74.0594L715.351 72.8796L684.928 1.75475L682.169 2.93458ZM715.351 74.0594L745.774 2.93458L743.016 1.75475L712.593 72.8796L715.351 74.0594ZM744.395 3.84467H766.048V0.844666H744.395V3.84467Z" fill="#EAEAEA"/>
</svg>
