<svg width="148" height="28" viewBox="0 0 148 28" fill="none" xmlns="http://www.w3.org/2000/svg">
<path d="M6.66989 7.96243C8.03965 7.96243 9.24129 8.23015 10.2748 8.7656C11.3208 9.30105 12.124 10.0669 12.6844 11.0631C13.2572 12.0468 13.5436 13.1924 13.5436 14.4999C13.5436 15.8074 13.2572 16.953 12.6844 17.9367C12.124 18.908 11.3208 19.6614 10.2748 20.1968C9.24129 20.7323 8.03965 21 6.66989 21H2.11235V7.96243H6.66989ZM6.5765 18.7773C7.94625 18.7773 9.0047 18.4037 9.75184 17.6566C10.499 16.9094 10.8725 15.8572 10.8725 14.4999C10.8725 13.1426 10.499 12.0841 9.75184 11.3246C9.0047 10.5525 7.94625 10.1665 6.5765 10.1665H4.72733V18.7773H6.5765ZM16.8272 9.41935C16.3664 9.41935 15.9804 9.27615 15.6691 8.98975C15.3703 8.69089 15.2208 8.32355 15.2208 7.88772C15.2208 7.45188 15.3703 7.09077 15.6691 6.80436C15.9804 6.50551 16.3664 6.35608 16.8272 6.35608C17.2879 6.35608 17.6677 6.50551 17.9666 6.80436C18.2779 7.09077 18.4335 7.45188 18.4335 7.88772C18.4335 8.32355 18.2779 8.69089 17.9666 8.98975C17.6677 9.27615 17.2879 9.41935 16.8272 9.41935ZM18.116 10.6521V21H15.501V10.6521H18.116ZM24.6594 21.1681C23.8127 21.1681 23.0531 21.0187 22.3807 20.7198C21.7082 20.4085 21.1728 19.9914 20.7743 19.4684C20.3883 18.9454 20.1766 18.3663 20.1393 17.7313H22.7729C22.8227 18.1297 23.0157 18.4597 23.352 18.7212C23.7006 18.9827 24.1302 19.1135 24.6408 19.1135C25.1389 19.1135 25.5249 19.0139 25.7988 18.8146C26.0852 18.6154 26.2284 18.3601 26.2284 18.0488C26.2284 17.7126 26.0541 17.4635 25.7054 17.3017C25.3692 17.1273 24.8276 16.9405 24.0804 16.7413C23.3084 16.5545 22.6733 16.3615 22.1752 16.1623C21.6896 15.963 21.2662 15.658 20.9051 15.247C20.5564 14.8361 20.3821 14.282 20.3821 13.5846C20.3821 13.0118 20.544 12.4888 20.8677 12.0157C21.2039 11.5425 21.6771 11.1689 22.2873 10.8949C22.9099 10.621 23.6384 10.484 24.4727 10.484C25.7054 10.484 26.6892 10.7953 27.4239 11.4179C28.1585 12.0281 28.5632 12.8562 28.638 13.9022H26.135C26.0977 13.4913 25.9234 13.1675 25.612 12.9309C25.3132 12.6819 24.9085 12.5573 24.3979 12.5573C23.9248 12.5573 23.5574 12.6445 23.2959 12.8188C23.0469 12.9932 22.9223 13.236 22.9223 13.5473C22.9223 13.896 23.0967 14.1637 23.4453 14.3505C23.794 14.5248 24.3357 14.7054 25.0704 14.8921C25.8175 15.0789 26.4339 15.2719 26.9195 15.4712C27.4052 15.6704 27.8223 15.9817 28.171 16.4051C28.5321 16.816 28.7189 17.3639 28.7314 18.0488C28.7314 18.6465 28.5632 19.182 28.227 19.6552C27.9033 20.1283 27.4301 20.5019 26.8075 20.7759C26.1973 21.0374 25.4813 21.1681 24.6594 21.1681ZM30.2055 15.8261C30.2055 14.7552 30.4234 13.8212 30.8592 13.0243C31.2951 12.2149 31.899 11.5923 32.671 11.1564C33.4431 10.7082 34.3272 10.484 35.3234 10.484C36.606 10.484 37.6644 10.8078 38.4987 11.4553C39.3455 12.0904 39.9121 12.9869 40.1985 14.145H37.378C37.2286 13.6967 36.9733 13.3481 36.6122 13.099C36.2635 12.8375 35.8277 12.7068 35.3047 12.7068C34.5576 12.7068 33.9661 12.9807 33.5303 13.5286C33.0944 14.0641 32.8765 14.8299 32.8765 15.8261C32.8765 16.8098 33.0944 17.5756 33.5303 18.1235C33.9661 18.659 34.5576 18.9267 35.3047 18.9267C36.3632 18.9267 37.0543 18.4535 37.378 17.5071H40.1985C39.9121 18.6278 39.3455 19.5182 38.4987 20.1781C37.652 20.8381 36.5935 21.1681 35.3234 21.1681C34.3272 21.1681 33.4431 20.9502 32.671 20.5144C31.899 20.0661 31.2951 19.4435 30.8592 18.6465C30.4234 17.8371 30.2055 16.897 30.2055 15.8261ZM46.7091 21.1681C45.7129 21.1681 44.8163 20.9502 44.0194 20.5144C43.2224 20.0661 42.5936 19.4372 42.1329 18.6278C41.6846 17.8184 41.4604 16.8845 41.4604 15.8261C41.4604 14.7676 41.6908 13.8337 42.1515 13.0243C42.6247 12.2149 43.266 11.5923 44.0754 11.1564C44.8848 10.7082 45.7876 10.484 46.7838 10.484C47.78 10.484 48.6828 10.7082 49.4922 11.1564C50.3016 11.5923 50.9366 12.2149 51.3974 13.0243C51.8706 13.8337 52.1072 14.7676 52.1072 15.8261C52.1072 16.8845 51.8643 17.8184 51.3787 18.6278C50.9055 19.4372 50.258 20.0661 49.4361 20.5144C48.6267 20.9502 47.7177 21.1681 46.7091 21.1681ZM46.7091 18.8893C47.1823 18.8893 47.6243 18.7773 48.0353 18.5531C48.4586 18.3165 48.7948 17.9679 49.0439 17.5071C49.2929 17.0464 49.4175 16.486 49.4175 15.8261C49.4175 14.8423 49.156 14.089 48.633 13.566C48.1224 13.0305 47.4936 12.7628 46.7464 12.7628C45.9993 12.7628 45.3705 13.0305 44.8599 13.566C44.3618 14.089 44.1128 14.8423 44.1128 15.8261C44.1128 16.8098 44.3556 17.5694 44.8412 18.1048C45.3393 18.6278 45.9619 18.8893 46.7091 18.8893ZM58.3401 18.5905L60.9551 10.6521H63.7382L59.9091 21H56.7337L52.9233 10.6521H55.7251L58.3401 18.5905ZM74.8263 15.6019C74.8263 15.9755 74.8014 16.3117 74.7516 16.6106H67.1868C67.2491 17.3577 67.5106 17.943 67.9713 18.3663C68.432 18.7897 68.9986 19.0014 69.671 19.0014C70.6423 19.0014 71.3334 18.5843 71.7444 17.7499H74.5648C74.266 18.7461 73.6931 19.568 72.8464 20.2155C71.9996 20.8506 70.9599 21.1681 69.7271 21.1681C68.7309 21.1681 67.8343 20.9502 67.0374 20.5144C66.2529 20.0661 65.6365 19.4372 65.1882 18.6278C64.7524 17.8184 64.5345 16.8845 64.5345 15.8261C64.5345 14.7552 64.7524 13.815 65.1882 13.0056C65.624 12.1962 66.2342 11.5736 67.0187 11.1378C67.8032 10.7019 68.706 10.484 69.7271 10.484C70.7108 10.484 71.5887 10.6957 72.3607 11.1191C73.1452 11.5425 73.7492 12.1464 74.1726 12.9309C74.6084 13.7029 74.8263 14.5933 74.8263 15.6019ZM72.1179 14.8548C72.1055 14.1824 71.8627 13.6469 71.3895 13.2484C70.9163 12.8375 70.3372 12.632 69.6524 12.632C69.0048 12.632 68.4569 12.8313 68.0087 13.2298C67.5728 13.6158 67.3051 14.1575 67.2055 14.8548H72.1179ZM79.35 12.2585C79.6862 11.7106 80.122 11.281 80.6575 10.9697C81.2054 10.6584 81.828 10.5027 82.5253 10.5027V13.2484H81.8342C81.0124 13.2484 80.3898 13.4414 79.9664 13.8275C79.5555 14.2135 79.35 14.8859 79.35 15.8447V21H76.735V10.6521H79.35V12.2585ZM99.8884 21H97.2734L91.3524 12.053V21H88.7374V7.94375H91.3524L97.2734 16.9094V7.94375H99.8884V21ZM107.068 21.1681C106.071 21.1681 105.175 20.9502 104.378 20.5144C103.581 20.0661 102.952 19.4372 102.491 18.6278C102.043 17.8184 101.819 16.8845 101.819 15.8261C101.819 14.7676 102.049 13.8337 102.51 13.0243C102.983 12.2149 103.624 11.5923 104.434 11.1564C105.243 10.7082 106.146 10.484 107.142 10.484C108.138 10.484 109.041 10.7082 109.851 11.1564C110.66 11.5923 111.295 12.2149 111.756 13.0243C112.229 13.8337 112.466 14.7676 112.466 15.8261C112.466 16.8845 112.223 17.8184 111.737 18.6278C111.264 19.4372 110.616 20.0661 109.795 20.5144C108.985 20.9502 108.076 21.1681 107.068 21.1681ZM107.068 18.8893C107.541 18.8893 107.983 18.7773 108.394 18.5531C108.817 18.3165 109.153 17.9679 109.402 17.5071C109.651 17.0464 109.776 16.486 109.776 15.8261C109.776 14.8423 109.514 14.089 108.991 13.566C108.481 13.0305 107.852 12.7628 107.105 12.7628C106.358 12.7628 105.729 13.0305 105.218 13.566C104.72 14.089 104.471 14.8423 104.471 15.8261C104.471 16.8098 104.714 17.5694 105.2 18.1048C105.698 18.6278 106.32 18.8893 107.068 18.8893ZM128.729 10.6521L125.703 21H122.882L120.996 13.7714L119.109 21H116.27L113.226 10.6521H115.878L117.709 18.5344L119.688 10.6521H122.453L124.395 18.5158L126.226 10.6521H128.729Z" fill="#181818"/>
<line x1="1.21739" y1="26.7826" x2="127.253" y2="26.7826" stroke="url(#paint0_linear_76_151)" stroke-width="2.43478" stroke-linecap="round"/>
<path d="M134.235 9.8819L139.588 15.2348L134.235 20.5878" stroke="black" stroke-width="1.87353" stroke-linecap="round" stroke-linejoin="round"/>
<path d="M141.194 9.8819L146.547 15.2348L141.194 20.5878" stroke="black" stroke-width="1.87353" stroke-linecap="round" stroke-linejoin="round"/>
<defs>
<linearGradient id="paint0_linear_76_151" x1="0" y1="29" x2="128.471" y2="29" gradientUnits="userSpaceOnUse">
<stop stop-color="#FF506D"/>
<stop offset="1" stop-color="#FF39B1"/>
</linearGradient>
</defs>
</svg>
