<svg width="149" height="60" viewBox="0 0 149 60" fill="none" xmlns="http://www.w3.org/2000/svg">
<circle cx="143" cy="37.4094" r="6" fill="url(#paint0_linear_87_121)"/>
<path d="M8.39644 20.498V27.5285H17.8374V31.9879H8.39644V39.4201H19.0426V44H2.77203V15.9181H19.0426V20.498H8.39644ZM33.4342 38.8175L39.0586 21.7434H45.0445L36.8088 44H29.9792L21.7836 21.7434H27.8097L33.4342 38.8175ZM68.8933 32.3896C68.8933 33.1931 68.8398 33.9162 68.7326 34.559H52.462C52.5959 36.166 53.1584 37.4248 54.1494 38.3354C55.1403 39.246 56.3589 39.7013 57.8052 39.7013C59.8943 39.7013 61.3807 38.8041 62.2646 37.0097H68.3309C67.6881 39.1523 66.4561 40.92 64.6349 42.3127C62.8136 43.6786 60.5773 44.3616 57.9257 44.3616C55.7831 44.3616 53.8547 43.8929 52.1406 42.9555C50.4533 41.9913 49.1276 40.6387 48.1634 38.8979C47.226 37.157 46.7573 35.1483 46.7573 32.8717C46.7573 30.5684 47.226 28.5463 48.1634 26.8054C49.1008 25.0645 50.4131 23.7254 52.1005 22.788C53.7878 21.8505 55.7295 21.3818 57.9257 21.3818C60.0416 21.3818 61.9298 21.8372 63.5903 22.7478C65.2776 23.6584 66.5766 24.9574 67.4872 26.6447C68.4246 28.3052 68.8933 30.2202 68.8933 32.3896ZM63.0681 30.7826C63.0413 29.3364 62.519 28.1847 61.5013 27.3276C60.4835 26.4438 59.2381 26.0019 57.765 26.0019C56.3723 26.0019 55.1939 26.4304 54.2297 27.2875C53.2923 28.1177 52.7165 29.2828 52.5022 30.7826H63.0681ZM85.3322 21.422C87.9837 21.422 90.1263 22.2657 91.7601 23.953C93.3938 25.6135 94.2107 27.9437 94.2107 30.9433V44H88.5863V31.7067C88.5863 29.939 88.1444 28.5864 87.2605 27.649C86.3767 26.6849 85.1715 26.2028 83.6449 26.2028C82.0914 26.2028 80.8594 26.6849 79.9488 27.649C79.065 28.5864 78.6231 29.939 78.6231 31.7067V44H72.9987V21.7434H78.6231V24.5154C79.373 23.5513 80.3238 22.8013 81.4754 22.2657C82.6539 21.7032 83.9395 21.422 85.3322 21.422ZM106.108 26.3635V37.1302C106.108 37.8801 106.282 38.4292 106.63 38.7773C107.005 39.0987 107.621 39.2594 108.478 39.2594H111.089V44H107.554C102.813 44 100.443 41.6967 100.443 37.09V26.3635H97.7916V21.7434H100.443V16.2395H106.108V21.7434H111.089V26.3635H106.108ZM123.652 44.3616C121.83 44.3616 120.197 44.0402 118.75 43.3974C117.304 42.7278 116.152 41.8306 115.295 40.7057C114.465 39.5808 114.01 38.3354 113.929 36.9695H119.594C119.701 37.8265 120.116 38.5363 120.839 39.0987C121.589 39.6612 122.513 39.9424 123.611 39.9424C124.683 39.9424 125.513 39.7281 126.102 39.2996C126.718 38.8711 127.026 38.322 127.026 37.6525C127.026 36.9293 126.651 36.3937 125.901 36.0455C125.178 35.6705 124.013 35.2688 122.406 34.8403C120.746 34.4385 119.38 34.0234 118.308 33.5948C117.264 33.1663 116.353 32.5101 115.577 31.6263C114.827 30.7425 114.452 29.5506 114.452 28.0508C114.452 26.8188 114.8 25.6939 115.496 24.6761C116.219 23.6584 117.237 22.8549 118.549 22.2657C119.889 21.6765 121.455 21.3818 123.25 21.3818C125.901 21.3818 128.017 22.0514 129.597 23.3906C131.178 24.7029 132.048 26.484 132.209 28.7338H126.825C126.745 27.8499 126.37 27.1536 125.7 26.6447C125.058 26.109 124.187 25.8412 123.089 25.8412C122.071 25.8412 121.281 26.0287 120.719 26.4036C120.183 26.7786 119.915 27.3009 119.915 27.9704C119.915 28.7204 120.29 29.2962 121.04 29.6979C121.79 30.0729 122.955 30.4612 124.535 30.863C126.142 31.2647 127.468 31.6799 128.513 32.1084C129.557 32.5369 130.454 33.2065 131.204 34.1171C131.981 35.0009 132.383 36.1794 132.41 37.6525C132.41 38.938 132.048 40.0897 131.325 41.1074C130.629 42.1252 129.611 42.9287 128.272 43.5179C126.959 44.0803 125.419 44.3616 123.652 44.3616Z" fill="#363636"/>
<defs>
<linearGradient id="paint0_linear_87_121" x1="143" y1="35.0094" x2="143" y2="43.4094" gradientUnits="userSpaceOnUse">
<stop stop-color="#FF4E59"/>
<stop offset="1" stop-color="#FF56B6"/>
</linearGradient>
</defs>
</svg>
