<svg width="145" height="41" viewBox="0 0 145 41" fill="none" xmlns="http://www.w3.org/2000/svg">
<path d="M21.2968 10.3949C20.654 9.21648 19.7701 8.31925 18.6453 7.70324C17.5204 7.08724 16.208 6.77923 14.7082 6.77923C13.0476 6.77923 11.5746 7.15419 10.289 7.90412C9.00341 8.65404 7.99905 9.72535 7.27591 11.1181C6.55278 12.5108 6.19121 14.1177 6.19121 15.939C6.19121 17.8138 6.55278 19.4475 7.27591 20.8403C8.02583 22.233 9.05698 23.3043 10.3693 24.0542C11.6817 24.8041 13.2083 25.1791 14.9492 25.1791C17.0918 25.1791 18.8461 24.6166 20.212 23.4918C21.578 22.3401 22.4752 20.7465 22.9037 18.711H13.2619V14.4124H28.4478V19.3136C28.0728 21.2688 27.2693 23.0766 26.0373 24.7372C24.8053 26.3977 23.2117 27.7368 21.2566 28.7546C19.3282 29.7456 17.1588 30.241 14.7483 30.241C12.0433 30.241 9.59263 29.6384 7.39644 28.4332C5.22702 27.2012 3.51292 25.5005 2.25412 23.3311C1.02211 21.1616 0.406102 18.6976 0.406102 15.939C0.406102 13.1803 1.02211 10.7163 2.25412 8.5469C3.51292 6.35071 5.22702 4.64999 7.39644 3.44476C9.59263 2.21275 12.0299 1.59674 14.7082 1.59674C17.8685 1.59674 20.6138 2.37345 22.9439 3.92685C25.274 5.45348 26.881 7.6095 27.7648 10.3949H21.2968ZM31.1627 18.7914C31.1627 16.5416 31.6046 14.5463 32.4884 12.8054C33.3991 11.0645 34.6177 9.72535 36.1443 8.78795C37.6977 7.85055 39.4252 7.38185 41.3268 7.38185C42.9873 7.38185 44.4336 7.71663 45.6656 8.38621C46.9244 9.05578 47.9288 9.89944 48.6787 10.9172V7.74342H54.3433V30H48.6787V26.7459C47.9556 27.7904 46.9512 28.6609 45.6656 29.3572C44.4068 30.0268 42.9472 30.3616 41.2866 30.3616C39.4118 30.3616 37.6977 29.8795 36.1443 28.9153C34.6177 27.9511 33.3991 26.5986 32.4884 24.8577C31.6046 23.09 31.1627 21.0679 31.1627 18.7914ZM48.6787 18.8717C48.6787 17.5058 48.4109 16.3407 47.8752 15.3765C47.3396 14.3856 46.6164 13.6357 45.7058 13.1268C44.7952 12.5911 43.8176 12.3233 42.7731 12.3233C41.7285 12.3233 40.7644 12.5777 39.8805 13.0866C38.9967 13.5955 38.2736 14.3454 37.7111 15.3364C37.1755 16.3006 36.9076 17.4522 36.9076 18.7914C36.9076 20.1305 37.1755 21.309 37.7111 22.3267C38.2736 23.3177 38.9967 24.081 39.8805 24.6166C40.7911 25.1523 41.7553 25.4201 42.7731 25.4201C43.8176 25.4201 44.7952 25.1657 45.7058 24.6568C46.6164 24.1212 47.3396 23.3712 47.8752 22.4071C48.4109 21.4161 48.6787 20.2376 48.6787 18.8717ZM65.4609 0.270991V30H59.8365V0.270991H65.4609ZM76.6422 0.270991V30H71.0178V0.270991H76.6422ZM102.889 18.3896C102.889 19.1931 102.835 19.9162 102.728 20.559H86.4576C86.5916 22.166 87.154 23.4248 88.145 24.3354C89.1359 25.246 90.3546 25.7013 91.8008 25.7013C93.8899 25.7013 95.3764 24.8041 96.2602 23.0097H102.327C101.684 25.1523 100.452 26.92 98.6305 28.3127C96.8092 29.6786 94.5729 30.3616 91.9214 30.3616C89.7787 30.3616 87.8504 29.8929 86.1363 28.9555C84.4489 27.9913 83.1232 26.6387 82.159 24.8979C81.2216 23.157 80.7529 21.1483 80.7529 18.8717C80.7529 16.5684 81.2216 14.5463 82.159 12.8054C83.0964 11.0645 84.4088 9.72535 86.0961 8.78795C87.7834 7.85055 89.7252 7.38185 91.9214 7.38185C94.0372 7.38185 95.9254 7.83716 97.5859 8.74777C99.2733 9.65839 100.572 10.9574 101.483 12.6447C102.42 14.3052 102.889 16.2202 102.889 18.3896ZM97.0637 16.7826C97.0369 15.3364 96.5146 14.1847 95.4969 13.3276C94.4791 12.4438 93.2337 12.0019 91.7607 12.0019C90.368 12.0019 89.1895 12.4304 88.2253 13.2875C87.2879 14.1177 86.7121 15.2828 86.4978 16.7826H97.0637ZM112.619 11.1984C113.342 10.02 114.279 9.09595 115.431 8.42638C116.609 7.75681 117.948 7.42202 119.448 7.42202V13.3276H117.962C116.194 13.3276 114.855 13.7428 113.944 14.5731C113.061 15.4033 112.619 16.8496 112.619 18.9119V30H106.994V7.74342H112.619V11.1984ZM144.529 7.74342L130.749 40.5257H124.763L129.584 29.4376L120.665 7.74342H126.973L132.718 23.2909L138.543 7.74342H144.529Z" fill="#FF773F"/>
</svg>
