<svg width="158" height="60" viewBox="0 0 158 60" fill="none" xmlns="http://www.w3.org/2000/svg">
<circle cx="152" cy="37.4092" r="6" fill="url(#paint0_linear_112_124)"/>
<path d="M22.2968 24.3949C21.654 23.2165 20.7701 22.3193 19.6453 21.7032C18.5204 21.0872 17.208 20.7792 15.7082 20.7792C14.0476 20.7792 12.5746 21.1542 11.289 21.9041C10.0034 22.654 8.99905 23.7254 8.27591 25.1181C7.55278 26.5108 7.19121 28.1177 7.19121 29.939C7.19121 31.8138 7.55278 33.4475 8.27591 34.8403C9.02583 36.233 10.057 37.3043 11.3693 38.0542C12.6817 38.8041 14.2083 39.1791 15.9492 39.1791C18.0918 39.1791 19.8461 38.6166 21.212 37.4918C22.578 36.3401 23.4752 34.7465 23.9037 32.711H14.2619V28.4124H29.4478V33.3136C29.0728 35.2688 28.2693 37.0766 27.0373 38.7372C25.8053 40.3977 24.2117 41.7368 22.2566 42.7546C20.3282 43.7456 18.1588 44.241 15.7483 44.241C13.0433 44.241 10.5926 43.6384 8.39644 42.4332C6.22702 41.2012 4.51292 39.5005 3.25412 37.3311C2.02211 35.1616 1.4061 32.6976 1.4061 29.939C1.4061 27.1803 2.02211 24.7163 3.25412 22.5469C4.51292 20.3507 6.22702 18.65 8.39644 17.4448C10.5926 16.2128 13.0299 15.5967 15.7082 15.5967C18.8685 15.5967 21.6138 16.3734 23.9439 17.9269C26.274 19.4535 27.881 21.6095 28.7648 24.3949H22.2968ZM32.1627 32.7914C32.1627 30.5416 32.6046 28.5463 33.4884 26.8054C34.3991 25.0645 35.6177 23.7254 37.1443 22.788C38.6977 21.8505 40.4252 21.3818 42.3268 21.3818C43.9873 21.3818 45.4336 21.7166 46.6656 22.3862C47.9244 23.0558 48.9288 23.8994 49.6787 24.9172V21.7434H55.3433V44H49.6787V40.7459C48.9556 41.7904 47.9512 42.6609 46.6656 43.3572C45.4068 44.0268 43.9472 44.3616 42.2866 44.3616C40.4118 44.3616 38.6977 43.8795 37.1443 42.9153C35.6177 41.9511 34.3991 40.5986 33.4884 38.8577C32.6046 37.09 32.1627 35.0679 32.1627 32.7914ZM49.6787 32.8717C49.6787 31.5058 49.4109 30.3407 48.8752 29.3765C48.3396 28.3856 47.6164 27.6357 46.7058 27.1268C45.7952 26.5911 44.8176 26.3233 43.7731 26.3233C42.7285 26.3233 41.7644 26.5777 40.8805 27.0866C39.9967 27.5955 39.2736 28.3454 38.7111 29.3364C38.1755 30.3006 37.9076 31.4522 37.9076 32.7914C37.9076 34.1305 38.1755 35.309 38.7111 36.3267C39.2736 37.3177 39.9967 38.081 40.8805 38.6166C41.7911 39.1523 42.7553 39.4201 43.7731 39.4201C44.8176 39.4201 45.7952 39.1657 46.7058 38.6568C47.6164 38.1212 48.3396 37.3712 48.8752 36.4071C49.4109 35.4161 49.6787 34.2376 49.6787 32.8717ZM66.4609 14.271V44H60.8365V14.271H66.4609ZM77.6422 14.271V44H72.0178V14.271H77.6422ZM103.889 32.3896C103.889 33.1931 103.835 33.9162 103.728 34.559H87.4576C87.5916 36.166 88.154 37.4248 89.145 38.3354C90.1359 39.246 91.3546 39.7013 92.8008 39.7013C94.8899 39.7013 96.3764 38.8041 97.2602 37.0097H103.327C102.684 39.1523 101.452 40.92 99.6305 42.3127C97.8092 43.6786 95.5729 44.3616 92.9214 44.3616C90.7787 44.3616 88.8504 43.8929 87.1363 42.9555C85.4489 41.9913 84.1232 40.6387 83.159 38.8979C82.2216 37.157 81.7529 35.1483 81.7529 32.8717C81.7529 30.5684 82.2216 28.5463 83.159 26.8054C84.0964 25.0645 85.4088 23.7254 87.0961 22.788C88.7834 21.8505 90.7252 21.3818 92.9214 21.3818C95.0372 21.3818 96.9254 21.8372 98.5859 22.7478C100.273 23.6584 101.572 24.9574 102.483 26.6447C103.42 28.3052 103.889 30.2202 103.889 32.3896ZM98.0637 30.7826C98.0369 29.3364 97.5146 28.1847 96.4969 27.3276C95.4791 26.4438 94.2337 26.0019 92.7607 26.0019C91.368 26.0019 90.1895 26.4304 89.2253 27.2875C88.2879 28.1177 87.7121 29.2828 87.4978 30.7826H98.0637ZM113.619 25.1984C114.342 24.02 115.279 23.096 116.431 22.4264C117.609 21.7568 118.948 21.422 120.448 21.422V27.3276H118.962C117.194 27.3276 115.855 27.7428 114.944 28.5731C114.061 29.4033 113.619 30.8496 113.619 32.9119V44H107.994V21.7434H113.619V25.1984ZM145.529 21.7434L131.749 54.5257H125.763L130.584 43.4376L121.665 21.7434H127.973L133.718 37.2909L139.543 21.7434H145.529Z" fill="white"/>
<path d="M22.2968 24.3949L21.8578 24.6343L21.9999 24.8949H22.2968V24.3949ZM8.27591 25.1181L7.83217 24.8877L8.27591 25.1181ZM8.27591 34.8403L7.83212 35.0707L7.83568 35.0773L8.27591 34.8403ZM11.3693 38.0542L11.1213 38.4883L11.1213 38.4883L11.3693 38.0542ZM21.212 37.4918L21.5299 37.8777L21.5343 37.874L21.212 37.4918ZM23.9037 32.711L24.393 32.814L24.52 32.211H23.9037V32.711ZM14.2619 32.711H13.7619V33.211H14.2619V32.711ZM14.2619 28.4124V27.9124H13.7619V28.4124H14.2619ZM29.4478 28.4124H29.9478V27.9124H29.4478V28.4124ZM29.4478 33.3136L29.9388 33.4078L29.9478 33.3611V33.3136H29.4478ZM27.0373 38.7372L26.6358 38.4392L26.6358 38.4392L27.0373 38.7372ZM22.2566 42.7546L22.4851 43.1993L22.4875 43.1981L22.2566 42.7546ZM8.39644 42.4332L8.1495 42.868L8.15589 42.8715L8.39644 42.4332ZM3.25412 37.3311L2.81932 37.578L2.82165 37.582L3.25412 37.3311ZM3.25412 22.5469L2.82032 22.2983L2.81934 22.3L3.25412 22.5469ZM8.39644 17.4448L8.63926 17.8818L8.64106 17.8808L8.39644 17.4448ZM23.9439 17.9269L23.6665 18.3429L23.6699 18.3451L23.9439 17.9269ZM28.7648 24.3949V24.8949H29.448L29.2414 24.2437L28.7648 24.3949ZM22.7357 24.1555C22.0493 22.8971 21.0983 21.9289 19.8854 21.2647L19.4051 22.1418C20.442 22.7096 21.2586 23.5358 21.8578 24.6343L22.7357 24.1555ZM19.8854 21.2647C18.6753 20.602 17.2777 20.2792 15.7082 20.2792V21.2792C17.1384 21.2792 18.3654 21.5725 19.4051 22.1418L19.8854 21.2647ZM15.7082 20.2792C13.9696 20.2792 12.4077 20.6727 11.0371 21.4722L11.5409 22.336C12.7415 21.6357 14.1257 21.2792 15.7082 21.2792V20.2792ZM11.0371 21.4722C9.66523 22.2725 8.59641 23.4158 7.83217 24.8877L8.71966 25.3485C9.40169 24.0349 10.3416 23.0356 11.5409 22.336L11.0371 21.4722ZM7.83217 24.8877C7.06655 26.3622 6.69121 28.0505 6.69121 29.939H7.69121C7.69121 28.185 8.03901 26.6594 8.71966 25.3485L7.83217 24.8877ZM6.69121 29.939C6.69121 31.8785 7.06552 33.5942 7.83217 35.0707L8.71966 34.6098C8.04003 33.3009 7.69121 31.7491 7.69121 29.939H6.69121ZM7.83568 35.0773C8.62779 36.5484 9.7238 37.6898 11.1213 38.4883L11.6174 37.6201C10.3901 36.9188 9.42388 35.9176 8.71615 34.6032L7.83568 35.0773ZM11.1213 38.4883C12.52 39.2876 14.1347 39.6791 15.9492 39.6791V38.6791C14.282 38.6791 12.8434 38.3206 11.6174 37.6201L11.1213 38.4883ZM15.9492 39.6791C18.1824 39.6791 20.0566 39.091 21.5299 37.8777L20.8942 37.1058C19.6356 38.1423 18.0013 38.6791 15.9492 38.6791V39.6791ZM21.5343 37.874C22.9991 36.6391 23.9454 34.9399 24.393 32.814L23.4145 32.608C23.005 34.5531 22.1569 36.0411 20.8898 37.1095L21.5343 37.874ZM23.9037 32.211H14.2619V33.211H23.9037V32.211ZM14.7619 32.711V28.4124H13.7619V32.711H14.7619ZM14.2619 28.9124H29.4478V27.9124H14.2619V28.9124ZM28.9478 28.4124V33.3136H29.9478V28.4124H28.9478ZM28.9567 33.2195C28.5965 35.0979 27.8248 36.8366 26.6358 38.4392L27.4389 39.0351C28.7139 37.3166 29.5492 35.4396 29.9388 33.4078L28.9567 33.2195ZM26.6358 38.4392C25.4519 40.035 23.9182 41.3259 22.0257 42.3111L22.4875 43.1981C24.5053 42.1477 26.1588 40.7604 27.4389 39.0351L26.6358 38.4392ZM22.028 42.3099C20.178 43.2606 18.0883 43.741 15.7483 43.741V44.741C18.2293 44.741 20.4784 44.2305 22.4851 43.1993L22.028 42.3099ZM15.7483 43.741C13.1205 43.741 10.7536 43.1564 8.63699 41.9949L8.15589 42.8715C10.4316 44.1204 12.9661 44.741 15.7483 44.741V43.741ZM8.64335 41.9984C6.55142 40.8104 4.90117 39.1733 3.68659 37.0801L2.82165 37.582C4.12467 39.8276 5.90263 41.592 8.14952 42.868L8.64335 41.9984ZM3.6889 37.0841C2.50404 34.9978 1.9061 32.6204 1.9061 29.939H0.906102C0.906102 32.7748 1.54018 35.3255 2.81934 37.578L3.6889 37.0841ZM1.9061 29.939C1.9061 27.2575 2.50404 24.8802 3.6889 22.7938L2.81934 22.3C1.54018 24.5524 0.906102 27.1032 0.906102 29.939H1.9061ZM3.68792 22.7955C4.90236 20.6767 6.55114 19.0419 8.63926 17.8818L8.15362 17.0077C5.9029 18.2581 4.12347 20.0247 2.82033 22.2983L3.68792 22.7955ZM8.64106 17.8808C10.7578 16.6934 13.1099 16.0967 15.7082 16.0967V15.0967C12.9498 15.0967 10.4275 15.7321 8.15181 17.0087L8.64106 17.8808ZM15.7082 16.0967C18.783 16.0967 21.4289 16.8511 23.6666 18.3429L24.2213 17.5108C21.7987 15.8958 18.9541 15.0967 15.7082 15.0967V16.0967ZM23.6699 18.3451C25.8988 19.8054 27.4374 21.8646 28.2882 24.5461L29.2414 24.2437C28.3246 21.3544 26.6492 19.1016 24.2179 17.5086L23.6699 18.3451ZM28.7648 23.8949H22.2968V24.8949H28.7648V23.8949ZM33.4884 26.8054L33.0454 26.5736L33.0426 26.579L33.4884 26.8054ZM37.1443 22.788L36.886 22.3598L36.8827 22.3619L37.1443 22.788ZM46.6656 22.3862L46.4269 22.8255L46.4308 22.8276L46.6656 22.3862ZM49.6787 24.9172L49.2762 25.2138L50.1787 26.4386V24.9172H49.6787ZM49.6787 21.7434V21.2434H49.1787V21.7434H49.6787ZM55.3433 21.7434H55.8433V21.2434H55.3433V21.7434ZM55.3433 44V44.5H55.8433V44H55.3433ZM49.6787 44H49.1787V44.5H49.6787V44ZM49.6787 40.7459H50.1787V39.1452L49.2676 40.4613L49.6787 40.7459ZM46.6656 43.3572L46.9004 43.7987L46.9038 43.7969L46.6656 43.3572ZM37.1443 42.9153L36.8773 43.3381L36.8806 43.3401L37.1443 42.9153ZM33.4884 38.8577L33.0412 39.0813L33.0454 39.0894L33.4884 38.8577ZM48.8752 29.3765L48.4353 29.6143L48.4381 29.6194L48.8752 29.3765ZM46.7058 27.1268L46.4522 27.5579L46.4619 27.5633L46.7058 27.1268ZM40.8805 27.0866L40.631 26.6533L40.631 26.6533L40.8805 27.0866ZM38.7111 29.3364L38.2762 29.0896L38.274 29.0935L38.7111 29.3364ZM38.7111 36.3267L38.2687 36.5596L38.2723 36.5666L38.2763 36.5735L38.7111 36.3267ZM40.8805 38.6166L40.6214 39.0443L40.627 39.0476L40.8805 38.6166ZM46.7058 38.6568L46.9498 39.0934L46.9593 39.0878L46.7058 38.6568ZM48.8752 36.4071L49.3123 36.6499L49.3151 36.6448L48.8752 36.4071ZM32.6627 32.7914C32.6627 30.6082 33.0911 28.6925 33.9343 27.0317L33.0426 26.579C32.1181 28.4 31.6627 30.475 31.6627 32.7914H32.6627ZM33.9315 27.0371C34.8045 25.3682 35.9635 24.0997 37.4059 23.214L36.8827 22.3619C35.2718 23.351 33.9937 24.7608 33.0454 26.5736L33.9315 27.0371ZM37.4026 23.216C38.8743 22.328 40.5117 21.8818 42.3268 21.8818V20.8818C40.3387 20.8818 38.5212 21.3731 36.886 22.3599L37.4026 23.216ZM42.3268 21.8818C43.9193 21.8818 45.2805 22.2025 46.4269 22.8255L46.9044 21.9469C45.5867 21.2308 44.0554 20.8818 42.3268 20.8818V21.8818ZM46.4308 22.8276C47.6321 23.4666 48.576 24.2635 49.2762 25.2138L50.0812 24.6206C49.2816 23.5353 48.2168 22.645 46.9004 21.9448L46.4308 22.8276ZM50.1787 24.9172V21.7434H49.1787V24.9172H50.1787ZM49.6787 22.2434H55.3433V21.2434H49.6787V22.2434ZM54.8433 21.7434V44H55.8433V21.7434H54.8433ZM55.3433 43.5H49.6787V44.5H55.3433V43.5ZM50.1787 44V40.7459H49.1787V44H50.1787ZM49.2676 40.4613C48.5955 41.4322 47.6545 42.2529 46.4275 42.9176L46.9038 43.7969C48.2479 43.0688 49.3157 42.1487 50.0898 41.0305L49.2676 40.4613ZM46.4308 42.9158C45.2554 43.541 43.8788 43.8616 42.2866 43.8616V44.8616C44.0155 44.8616 45.5583 44.5126 46.9004 43.7986L46.4308 42.9158ZM42.2866 43.8616C40.5025 43.8616 38.8801 43.4042 37.408 42.4905L36.8806 43.3401C38.5153 44.3547 40.3211 44.8616 42.2866 44.8616V43.8616ZM37.4113 42.4925C35.9657 41.5795 34.805 40.2958 33.9315 38.6259L33.0454 39.0894C33.9931 40.9013 35.2697 42.3227 36.8773 43.338L37.4113 42.4925ZM33.9357 38.6341C33.0915 36.9457 32.6627 35.0021 32.6627 32.7914H31.6627C31.6627 35.1337 32.1178 37.2343 33.0412 39.0813L33.9357 38.6341ZM50.1787 32.8717C50.1787 31.4408 49.898 30.1879 49.3123 29.1337L48.4381 29.6194C48.9238 30.4935 49.1787 31.5707 49.1787 32.8717H50.1787ZM49.3151 29.1388C48.738 28.0713 47.9498 27.2492 46.9497 26.6903L46.4619 27.5633C47.283 28.0221 47.9411 28.6999 48.4354 29.6143L49.3151 29.1388ZM46.9593 26.6958C45.9728 26.1155 44.9078 25.8233 43.7731 25.8233V26.8233C44.7274 26.8233 45.6176 27.0667 46.4523 27.5577L46.9593 26.6958ZM43.7731 25.8233C42.6432 25.8233 41.5927 26.0996 40.631 26.6533L41.13 27.5199C41.9361 27.0558 42.8139 26.8233 43.7731 26.8233V25.8233ZM40.631 26.6533C39.6611 27.2117 38.8775 28.0303 38.2763 29.0896L39.146 29.5832C39.6696 28.6605 40.3323 27.9792 41.13 27.5199L40.631 26.6533ZM38.274 29.0935C37.6891 30.1464 37.4076 31.3853 37.4076 32.7914H38.4076C38.4076 31.5191 38.6618 30.4547 39.1482 29.5792L38.274 29.0935ZM37.4076 32.7914C37.4076 34.1983 37.6894 35.4591 38.2687 36.5596L39.1536 36.0938C38.6615 35.1589 38.4076 34.0627 38.4076 32.7914H37.4076ZM38.2763 36.5735C38.8764 37.631 39.6572 38.4599 40.6214 39.0442L41.1397 38.189C40.3362 37.7021 39.6707 37.0044 39.146 36.0799L38.2763 36.5735ZM40.627 39.0476C41.6114 39.6267 42.6627 39.9201 43.7731 39.9201V38.9201C42.848 38.9201 41.9709 38.6779 41.134 38.1857L40.627 39.0476ZM43.7731 39.9201C44.9029 39.9201 45.9644 39.6439 46.9497 39.0933L46.4619 38.2203C45.6259 38.6875 44.7323 38.9201 43.7731 38.9201V39.9201ZM46.9593 39.0878C47.9503 38.5049 48.7353 37.6884 49.3123 36.6499L48.4381 36.1642C47.9438 37.054 47.2826 37.7374 46.4523 38.2258L46.9593 39.0878ZM49.3151 36.6448C49.8978 35.5668 50.1787 34.3031 50.1787 32.8717H49.1787C49.1787 34.1721 48.924 35.2653 48.4354 36.1693L49.3151 36.6448ZM66.4609 14.271H66.9609V13.771H66.4609V14.271ZM66.4609 44V44.5H66.9609V44H66.4609ZM60.8365 44H60.3365V44.5H60.8365V44ZM60.8365 14.271V13.771H60.3365V14.271H60.8365ZM65.9609 14.271V44H66.9609V14.271H65.9609ZM66.4609 43.5H60.8365V44.5H66.4609V43.5ZM61.3365 44V14.271H60.3365V44H61.3365ZM60.8365 14.771H66.4609V13.771H60.8365V14.771ZM77.6422 14.271H78.1422V13.771H77.6422V14.271ZM77.6422 44V44.5H78.1422V44H77.6422ZM72.0178 44H71.5178V44.5H72.0178V44ZM72.0178 14.271V13.771H71.5178V14.271H72.0178ZM77.1422 14.271V44H78.1422V14.271H77.1422ZM77.6422 43.5H72.0178V44.5H77.6422V43.5ZM72.5178 44V14.271H71.5178V44H72.5178ZM72.0178 14.771H77.6422V13.771H72.0178V14.771ZM103.728 34.559V35.059H104.152L104.221 34.6412L103.728 34.559ZM87.4576 34.559V34.059H86.9142L86.9594 34.6006L87.4576 34.559ZM89.145 38.3354L88.8067 38.7036L88.8067 38.7036L89.145 38.3354ZM97.2602 37.0097V36.5097H96.9491L96.8116 36.7887L97.2602 37.0097ZM103.327 37.0097L103.805 37.1533L103.999 36.5097H103.327V37.0097ZM99.6305 42.3127L99.9305 42.7127L99.9342 42.7099L99.6305 42.3127ZM87.1363 42.9555L86.8881 43.3897L86.8963 43.3942L87.1363 42.9555ZM83.159 38.8979L82.7187 39.1349L82.7216 39.1401L83.159 38.8979ZM83.159 26.8054L82.7188 26.5683L82.7188 26.5683L83.159 26.8054ZM87.0961 22.788L87.3389 23.225L87.3389 23.225L87.0961 22.788ZM98.5859 22.7478L98.3455 23.1862L98.3485 23.1878L98.5859 22.7478ZM102.483 26.6447L102.043 26.8822L102.047 26.8905L102.483 26.6447ZM98.0637 30.7826V31.2826H98.573L98.5636 30.7734L98.0637 30.7826ZM96.4969 27.3276L96.169 27.7052L96.1748 27.7101L96.4969 27.3276ZM89.2253 27.2875L89.5568 27.6618L89.5575 27.6612L89.2253 27.2875ZM87.4978 30.7826L87.0028 30.7119L86.9213 31.2826H87.4978V30.7826ZM103.389 32.3896C103.389 33.1716 103.337 33.8666 103.235 34.4768L104.221 34.6412C104.334 33.9659 104.389 33.2146 104.389 32.3896H103.389ZM103.728 34.059H87.4576V35.059H103.728V34.059ZM86.9594 34.6006C87.1015 36.3064 87.7056 37.6918 88.8067 38.7036L89.4833 37.9673C88.6025 37.1578 88.0816 36.0256 87.9559 34.5175L86.9594 34.6006ZM88.8067 38.7036C89.8971 39.7057 91.2395 40.2013 92.8008 40.2013V39.2013C91.4697 39.2013 90.3747 38.7864 89.4833 37.9673L88.8067 38.7036ZM92.8008 40.2013C93.9179 40.2013 94.9052 39.9609 95.7409 39.4565C96.5779 38.9513 97.2311 38.2003 97.7087 37.2306L96.8116 36.7887C96.4054 37.6135 95.8735 38.2084 95.2241 38.6004C94.5733 38.9932 93.7729 39.2013 92.8008 39.2013V40.2013ZM97.2602 37.5097H103.327V36.5097H97.2602V37.5097ZM102.848 36.866C102.236 38.9051 101.067 40.585 99.3267 41.9155L99.9342 42.7099C101.837 41.2549 103.132 39.3995 103.805 37.1533L102.848 36.866ZM99.3305 41.9127C97.6095 43.2034 95.4832 43.8616 92.9214 43.8616V44.8616C95.6626 44.8616 98.009 44.1538 99.9305 42.7127L99.3305 41.9127ZM92.9214 43.8616C90.8543 43.8616 89.0097 43.4102 87.3762 42.5168L86.8963 43.3942C88.691 44.3756 90.7032 44.8616 92.9214 44.8616V43.8616ZM87.3843 42.5213C85.7785 41.6037 84.5173 40.3184 83.5964 38.6556L82.7216 39.1401C83.729 40.9591 85.1194 42.3789 86.8882 43.3896L87.3843 42.5213ZM83.5992 38.6608C82.7066 37.0031 82.2529 35.0781 82.2529 32.8717H81.2529C81.2529 35.2184 81.7365 37.3108 82.7188 39.1349L83.5992 38.6608ZM82.2529 32.8717C82.2529 30.6374 82.7071 28.6993 83.5992 27.0424L82.7188 26.5683C81.7361 28.3933 81.2529 30.4993 81.2529 32.8717H82.2529ZM83.5992 27.0424C84.4925 25.3836 85.7373 24.1148 87.3389 23.225L86.8533 22.3509C85.0802 23.3359 83.7003 24.7454 82.7188 26.5683L83.5992 27.0424ZM87.3389 23.225C88.9422 22.3343 90.7983 21.8818 92.9214 21.8818V20.8818C90.6521 20.8818 88.6246 21.3668 86.8533 22.3509L87.3389 23.225ZM92.9214 21.8818C94.9632 21.8818 96.767 22.3205 98.3455 23.1862L98.8264 22.3094C97.0838 21.3538 95.1112 20.8818 92.9214 20.8818V21.8818ZM98.3485 23.1878C99.95 24.0521 101.179 25.2807 102.043 26.8822L102.923 26.4072C101.966 24.6341 100.597 23.2647 98.8234 22.3078L98.3485 23.1878ZM102.047 26.8905C102.937 28.4662 103.389 30.2943 103.389 32.3896H104.389C104.389 30.1461 103.904 28.1443 102.918 26.3989L102.047 26.8905ZM98.5636 30.7734C98.5344 29.197 97.9574 27.9039 96.8189 26.9452L96.1748 27.7101C97.0718 28.4655 97.5394 29.4757 97.5638 30.7919L98.5636 30.7734ZM96.8247 26.9501C95.7073 25.9797 94.3421 25.5019 92.7607 25.5019V26.5019C94.1253 26.5019 95.2509 26.9079 96.169 27.7052L96.8247 26.9501ZM92.7607 25.5019C91.2561 25.5019 89.9565 25.9686 88.8931 26.9138L89.5575 27.6612C90.4226 26.8922 91.4798 26.5019 92.7607 26.5019V25.5019ZM88.8938 26.9132C87.85 27.8377 87.2302 29.1204 87.0028 30.7119L87.9928 30.8534C88.194 29.4452 88.7259 28.3978 89.5568 27.6618L88.8938 26.9132ZM87.4978 31.2826H98.0637V30.2826H87.4978V31.2826ZM113.619 25.1984H113.119V26.9692L114.045 25.4599L113.619 25.1984ZM116.431 22.4264L116.184 21.9916L116.18 21.9941L116.431 22.4264ZM120.448 21.422H120.948V20.922H120.448V21.422ZM120.448 27.3276V27.8276H120.948V27.3276H120.448ZM114.944 28.5731L114.608 28.2035L114.602 28.2086L114.944 28.5731ZM113.619 44V44.5H114.119V44H113.619ZM107.994 44H107.494V44.5H107.994V44ZM107.994 21.7434V21.2434H107.494V21.7434H107.994ZM113.619 21.7434H114.119V21.2434H113.619V21.7434ZM114.045 25.4599C114.726 24.3492 115.605 23.485 116.682 22.8586L116.18 21.9941C114.954 22.7069 113.957 23.6907 113.193 24.9369L114.045 25.4599ZM116.678 22.8611C117.773 22.2388 119.026 21.922 120.448 21.922V20.922C118.871 20.922 117.445 21.2749 116.184 21.9917L116.678 22.8611ZM119.948 21.422V27.3276H120.948V21.422H119.948ZM120.448 26.8276H118.962V27.8276H120.448V26.8276ZM118.962 26.8276C117.123 26.8276 115.643 27.2591 114.608 28.2036L115.281 28.9425C116.067 28.2265 117.265 27.8276 118.962 27.8276V26.8276ZM114.602 28.2086C113.566 29.1817 113.119 30.8031 113.119 32.9119H114.119C114.119 30.8961 114.555 29.6249 115.287 28.9375L114.602 28.2086ZM113.119 32.9119V44H114.119V32.9119H113.119ZM113.619 43.5H107.994V44.5H113.619V43.5ZM108.494 44V21.7434H107.494V44H108.494ZM107.994 22.2434H113.619V21.2434H107.994V22.2434ZM113.119 21.7434V25.1984H114.119V21.7434H113.119ZM145.529 21.7434L145.99 21.9372L146.282 21.2434H145.529V21.7434ZM131.749 54.5257V55.0257H132.081L132.21 54.7194L131.749 54.5257ZM125.763 54.5257L125.305 54.3263L125.001 55.0257H125.763V54.5257ZM130.584 43.4376L131.043 43.6369L131.127 43.443L131.047 43.2474L130.584 43.4376ZM121.665 21.7434V21.2434H120.919L121.203 21.9335L121.665 21.7434ZM127.973 21.7434L128.442 21.5701L128.321 21.2434H127.973V21.7434ZM133.718 37.2909L133.249 37.4642L133.715 38.7246L134.186 37.4663L133.718 37.2909ZM139.543 21.7434V21.2434H139.196L139.075 21.568L139.543 21.7434ZM145.068 21.5497L131.288 54.3319L132.21 54.7194L145.99 21.9372L145.068 21.5497ZM131.749 54.0257H125.763V55.0257H131.749V54.0257ZM126.222 54.725L131.043 43.6369L130.126 43.2382L125.305 54.3263L126.222 54.725ZM131.047 43.2474L122.128 21.5533L121.203 21.9335L130.122 43.6277L131.047 43.2474ZM121.665 22.2434H127.973V21.2434H121.665V22.2434ZM127.504 21.9167L133.249 37.4642L134.187 37.1176L128.442 21.5701L127.504 21.9167ZM134.186 37.4663L140.011 21.9188L139.075 21.568L133.25 37.1155L134.186 37.4663ZM139.543 22.2434H145.529V21.2434H139.543V22.2434Z" fill="#FF5174"/>
<defs>
<linearGradient id="paint0_linear_112_124" x1="152" y1="35.0092" x2="152" y2="43.4092" gradientUnits="userSpaceOnUse">
<stop stop-color="#FF4E59"/>
<stop offset="1" stop-color="#FF56B6"/>
</linearGradient>
</defs>
</svg>
