<svg width="158" height="60" viewBox="0 0 158 60" fill="none" xmlns="http://www.w3.org/2000/svg">
<circle cx="152" cy="37.4094" r="6" fill="url(#paint0_linear_6_728)"/>
<path d="M22.2968 24.3949C21.654 23.2165 20.7701 22.3193 19.6453 21.7032C18.5204 21.0872 17.208 20.7792 15.7082 20.7792C14.0476 20.7792 12.5746 21.1542 11.289 21.9041C10.0034 22.654 8.99905 23.7254 8.27591 25.1181C7.55278 26.5108 7.19121 28.1177 7.19121 29.939C7.19121 31.8138 7.55278 33.4475 8.27591 34.8403C9.02583 36.233 10.057 37.3043 11.3693 38.0542C12.6817 38.8041 14.2083 39.1791 15.9492 39.1791C18.0918 39.1791 19.8461 38.6166 21.212 37.4918C22.578 36.3401 23.4752 34.7465 23.9037 32.711H14.2619V28.4124H29.4478V33.3136C29.0728 35.2688 28.2693 37.0766 27.0373 38.7372C25.8053 40.3977 24.2117 41.7368 22.2566 42.7546C20.3282 43.7456 18.1588 44.241 15.7483 44.241C13.0433 44.241 10.5926 43.6384 8.39644 42.4332C6.22702 41.2012 4.51292 39.5005 3.25412 37.3311C2.02211 35.1616 1.4061 32.6976 1.4061 29.939C1.4061 27.1803 2.02211 24.7163 3.25412 22.5469C4.51292 20.3507 6.22702 18.65 8.39644 17.4448C10.5926 16.2128 13.0299 15.5967 15.7082 15.5967C18.8685 15.5967 21.6138 16.3734 23.9439 17.9269C26.274 19.4535 27.881 21.6095 28.7648 24.3949H22.2968ZM32.1627 32.7914C32.1627 30.5416 32.6046 28.5463 33.4884 26.8054C34.3991 25.0645 35.6177 23.7254 37.1443 22.788C38.6977 21.8505 40.4252 21.3818 42.3268 21.3818C43.9873 21.3818 45.4336 21.7166 46.6656 22.3862C47.9244 23.0558 48.9288 23.8994 49.6787 24.9172V21.7434H55.3433V44H49.6787V40.7459C48.9556 41.7904 47.9512 42.6609 46.6656 43.3572C45.4068 44.0268 43.9472 44.3616 42.2866 44.3616C40.4118 44.3616 38.6977 43.8795 37.1443 42.9153C35.6177 41.9511 34.3991 40.5986 33.4884 38.8577C32.6046 37.09 32.1627 35.0679 32.1627 32.7914ZM49.6787 32.8717C49.6787 31.5058 49.4109 30.3407 48.8752 29.3765C48.3396 28.3856 47.6164 27.6357 46.7058 27.1268C45.7952 26.5911 44.8176 26.3233 43.7731 26.3233C42.7285 26.3233 41.7644 26.5777 40.8805 27.0866C39.9967 27.5955 39.2736 28.3454 38.7111 29.3364C38.1755 30.3006 37.9076 31.4522 37.9076 32.7914C37.9076 34.1305 38.1755 35.309 38.7111 36.3267C39.2736 37.3177 39.9967 38.081 40.8805 38.6166C41.7911 39.1523 42.7553 39.4201 43.7731 39.4201C44.8176 39.4201 45.7952 39.1657 46.7058 38.6568C47.6164 38.1212 48.3396 37.3712 48.8752 36.4071C49.4109 35.4161 49.6787 34.2376 49.6787 32.8717ZM66.4609 14.271V44H60.8365V14.271H66.4609ZM77.6422 14.271V44H72.0178V14.271H77.6422ZM103.889 32.3896C103.889 33.1931 103.835 33.9162 103.728 34.559H87.4576C87.5916 36.166 88.154 37.4248 89.145 38.3354C90.1359 39.246 91.3546 39.7013 92.8008 39.7013C94.8899 39.7013 96.3764 38.8041 97.2602 37.0097H103.327C102.684 39.1523 101.452 40.92 99.6305 42.3127C97.8092 43.6786 95.5729 44.3616 92.9214 44.3616C90.7787 44.3616 88.8504 43.8929 87.1363 42.9555C85.4489 41.9913 84.1232 40.6387 83.159 38.8979C82.2216 37.157 81.7529 35.1483 81.7529 32.8717C81.7529 30.5684 82.2216 28.5463 83.159 26.8054C84.0964 25.0645 85.4088 23.7254 87.0961 22.788C88.7834 21.8505 90.7252 21.3818 92.9214 21.3818C95.0372 21.3818 96.9254 21.8372 98.5859 22.7478C100.273 23.6584 101.572 24.9574 102.483 26.6447C103.42 28.3052 103.889 30.2202 103.889 32.3896ZM98.0637 30.7826C98.0369 29.3364 97.5146 28.1847 96.4969 27.3276C95.4791 26.4438 94.2337 26.0019 92.7607 26.0019C91.368 26.0019 90.1895 26.4304 89.2253 27.2875C88.2879 28.1177 87.7121 29.2828 87.4978 30.7826H98.0637ZM113.619 25.1984C114.342 24.02 115.279 23.096 116.431 22.4264C117.609 21.7568 118.948 21.422 120.448 21.422V27.3276H118.962C117.194 27.3276 115.855 27.7428 114.944 28.5731C114.061 29.4033 113.619 30.8496 113.619 32.9119V44H107.994V21.7434H113.619V25.1984ZM145.529 21.7434L131.749 54.5257H125.763L130.584 43.4376L121.665 21.7434H127.973L133.718 37.2909L139.543 21.7434H145.529Z" fill="#363636"/>
<defs>
<linearGradient id="paint0_linear_6_728" x1="152" y1="35.0094" x2="152" y2="43.4094" gradientUnits="userSpaceOnUse">
<stop stop-color="#FF4E59"/>
<stop offset="1" stop-color="#FF56B6"/>
</linearGradient>
</defs>
</svg>
