<svg width="940" height="100" viewBox="0 0 940 100" fill="none" xmlns="http://www.w3.org/2000/svg">
<path d="M104.745 2.34467H106.745V0.344666H104.745V2.34467ZM104.745 98V100H106.745V98H104.745ZM85.559 98H83.559V100H85.559V98ZM85.559 35.7829H87.559L83.7097 35.0212L85.559 35.7829ZM59.9321 98V100H61.2714L61.7814 98.7617L59.9321 98ZM45.4057 98L43.5578 98.7652L44.0692 100H45.4057V98ZM19.6418 35.7829L21.4896 35.0177L17.6418 35.7829H19.6418ZM19.6418 98V100H21.6418V98H19.6418ZM0.4559 98H-1.5441V100H0.4559V98ZM0.4559 2.34467V0.344666H-1.5441V2.34467H0.4559ZM22.2456 2.34467L24.0844 1.55811L23.5654 0.344666H22.2456V2.34467ZM52.6689 73.4695L50.8301 74.256L52.6689 78.5549L54.5078 74.256L52.6689 73.4695ZM83.0922 2.34467V0.344666H81.7725L81.2534 1.55811L83.0922 2.34467ZM102.745 2.34467V98H106.745V2.34467H102.745ZM104.745 96H85.559V100H104.745V96ZM87.559 98V35.7829H83.559V98H87.559ZM83.7097 35.0212L58.0829 97.2383L61.7814 98.7617L87.4083 36.5446L83.7097 35.0212ZM59.9321 96H45.4057V100H59.9321V96ZM47.2535 97.2348L21.4896 35.0177L17.7939 36.5481L43.5578 98.7652L47.2535 97.2348ZM17.6418 35.7829V98H21.6418V35.7829H17.6418ZM19.6418 96H0.4559V100H19.6418V96ZM2.4559 98V2.34467H-1.5441V98H2.4559ZM0.4559 4.34467H22.2456V0.344666H0.4559V4.34467ZM20.4067 3.13122L50.8301 74.256L54.5078 72.6829L24.0844 1.55811L20.4067 3.13122ZM54.5078 74.256L84.9311 3.13122L81.2534 1.55811L50.8301 72.6829L54.5078 74.256ZM83.0922 4.34467H104.745V0.344666H83.0922V4.34467ZM142.899 17.8304V15.8304H140.899V17.8304H142.899ZM142.899 41.8128H140.899V43.8128H142.899V41.8128ZM175.104 41.8128H177.104V39.8128H175.104V41.8128ZM175.104 57.0244V59.0244H177.104V57.0244H175.104ZM142.899 57.0244V55.0244H140.899V57.0244H142.899ZM142.899 82.3772H140.899V84.3772H142.899V82.3772ZM179.215 82.3772H181.215V80.3772H179.215V82.3772ZM179.215 98V100H181.215V98H179.215ZM123.713 98H121.713V100H123.713V98ZM123.713 2.20762V0.207618H121.713V2.20762H123.713ZM179.215 2.20762H181.215V0.207618H179.215V2.20762ZM179.215 17.8304V19.8304H181.215V17.8304H179.215ZM140.899 17.8304V41.8128H144.899V17.8304H140.899ZM142.899 43.8128H175.104V39.8128H142.899V43.8128ZM173.104 41.8128V57.0244H177.104V41.8128H173.104ZM175.104 55.0244H142.899V59.0244H175.104V55.0244ZM140.899 57.0244V82.3772H144.899V57.0244H140.899ZM142.899 84.3772H179.215V80.3772H142.899V84.3772ZM177.215 82.3772V98H181.215V82.3772H177.215ZM179.215 96H123.713V100H179.215V96ZM125.713 98V2.20762H121.713V98H125.713ZM123.713 4.20762H179.215V0.207618H123.713V4.20762ZM177.215 2.20762V17.8304H181.215V2.20762H177.215ZM179.215 15.8304H142.899V19.8304H179.215V15.8304ZM256.538 8.23747L255.618 10.0133L255.627 10.0178L256.538 8.23747ZM274.217 25.0936L272.473 26.0742L272.481 26.0872L272.488 26.1L274.217 25.0936ZM274.217 75.5251L272.488 74.5187L272.484 74.5257L274.217 75.5251ZM256.538 92.1072L255.627 90.3269L255.618 90.3314L256.538 92.1072ZM196.651 98H194.651V100H196.651V98ZM196.651 2.34467V0.344666H194.651V2.34467H196.651ZM252.701 73.4695L251.287 72.0553L251.287 72.0553L252.701 73.4695ZM252.701 27.0122L251.264 28.4031L251.269 28.4089L251.275 28.4147L252.701 27.0122ZM215.837 18.5156V16.5156H213.837V18.5156H215.837ZM215.837 81.692H213.837V83.692H215.837V81.692ZM230.089 4.34467C239.875 4.34467 248.366 6.25602 255.618 10.0133L257.458 6.46164C249.545 2.36185 240.403 0.344666 230.089 0.344666V4.34467ZM255.627 10.0178C262.962 13.7726 268.561 19.1178 272.473 26.0742L275.96 24.1131C271.65 16.4516 265.463 10.5595 257.45 6.45717L255.627 10.0178ZM272.488 26.1C276.488 32.969 278.521 41.0167 278.521 50.3094H282.521C282.521 40.4162 280.351 31.6534 275.945 24.0873L272.488 26.1ZM278.521 50.3094C278.521 59.6021 276.488 67.6497 272.488 74.5187L275.945 76.5315C280.351 68.9654 282.521 60.2026 282.521 50.3094H278.521ZM272.484 74.5257C268.575 81.3014 262.975 86.5652 255.627 90.3269L257.45 93.8875C265.45 89.7921 271.636 84.0012 275.949 76.5246L272.484 74.5257ZM255.618 90.3314C248.366 94.0886 239.875 96 230.089 96V100C240.403 100 249.545 97.9828 257.458 93.883L255.618 90.3314ZM230.089 96H196.651V100H230.089V96ZM198.651 98V2.34467H194.651V98H198.651ZM196.651 4.34467H230.089V0.344666H196.651V4.34467ZM229.404 83.692C239.82 83.692 248.157 80.8424 254.115 74.8837L251.287 72.0553C246.282 77.0599 239.087 79.692 229.404 79.692V83.692ZM254.115 74.8837C260.071 68.9283 262.924 60.6402 262.924 50.3094H258.924C258.924 59.8953 256.295 67.0473 251.287 72.0553L254.115 74.8837ZM262.924 50.3094C262.924 39.9767 260.07 31.652 254.127 25.6098L251.275 28.4147C256.295 33.5186 258.924 40.7252 258.924 50.3094H262.924ZM254.138 25.6214C248.183 19.4676 239.838 16.5156 229.404 16.5156V20.5156C239.069 20.5156 246.256 23.2281 251.264 28.4031L254.138 25.6214ZM229.404 16.5156H215.837V20.5156H229.404V16.5156ZM213.837 18.5156V81.692H217.837V18.5156H213.837ZM215.837 83.692H229.404V79.692H215.837V83.692ZM314.068 2.34467H316.068V0.344666H314.068V2.34467ZM314.068 98V100H316.068V98H314.068ZM294.882 98H292.882V100H294.882V98ZM294.882 2.34467V0.344666H292.882V2.34467H294.882ZM312.068 2.34467V98H316.068V2.34467H312.068ZM314.068 96H294.882V100H314.068V96ZM296.882 98V2.34467H292.882V98H296.882ZM294.882 4.34467H314.068V0.344666H294.882V4.34467ZM391.678 79.7734L393.568 79.1197L393.102 77.7734H391.678V79.7734ZM353.58 79.7734V77.7734H352.155L351.69 79.1197L353.58 79.7734ZM347.276 98V100H348.701L349.166 98.6537L347.276 98ZM327.131 98L325.249 97.3241L324.288 100H327.131V98ZM361.528 2.20762V0.207618H360.122L359.646 1.5317L361.528 2.20762ZM383.866 2.20762L385.749 1.5317L385.273 0.207618H383.866V2.20762ZM418.264 98V100H421.107L420.146 97.3241L418.264 98ZM397.982 98L396.091 98.6537L396.557 100H397.982V98ZM386.47 64.4247V66.4247H389.278L388.36 63.7709L386.47 64.4247ZM372.629 24.4084L374.519 23.7547L372.629 18.2901L370.739 23.7547L372.629 24.4084ZM358.788 64.4247L356.897 63.7709L355.98 66.4247H358.788V64.4247ZM391.678 77.7734H353.58V81.7734H391.678V77.7734ZM351.69 79.1197L345.386 97.3463L349.166 98.6537L355.47 80.4271L351.69 79.1197ZM347.276 96H327.131V100H347.276V96ZM329.013 98.6759L363.411 2.88353L359.646 1.5317L325.249 97.3241L329.013 98.6759ZM361.528 4.20762H383.866V0.207618H361.528V4.20762ZM381.984 2.88353L416.382 98.6759L420.146 97.3241L385.749 1.5317L381.984 2.88353ZM418.264 96H397.982V100H418.264V96ZM399.872 97.3463L393.568 79.1197L389.788 80.4271L396.091 98.6537L399.872 97.3463ZM388.36 63.7709L374.519 23.7547L370.739 25.0622L384.58 65.0785L388.36 63.7709ZM370.739 23.7547L356.897 63.7709L360.678 65.0785L374.519 25.0622L370.739 23.7547ZM358.788 66.4247H386.47V62.4247H358.788V66.4247ZM537.367 98L535.962 99.4235L536.547 100H537.367V98ZM526.952 87.7218L528.357 86.2983L527.018 84.9766L525.617 86.233L526.952 87.7218ZM475.835 96.0814L474.991 97.8946L475.01 97.9033L475.029 97.9116L475.835 96.0814ZM463.502 85.8033L461.827 86.8968L461.832 86.9048L461.838 86.9127L463.502 85.8033ZM464.461 53.3243L466.092 54.4812L466.092 54.4812L464.461 53.3243ZM480.221 41.1276L481.038 42.9532L483.425 41.8852L481.769 39.8611L480.221 41.1276ZM474.876 32.4939L473.011 33.2159L473.015 33.2263L473.019 33.2367L474.876 32.4939ZM476.658 11.6635L478.329 12.7627L478.335 12.7528L478.341 12.7429L476.658 11.6635ZM486.388 3.30396L485.54 1.49258L485.532 1.4961L485.525 1.49969L486.388 3.30396ZM516.126 3.57804L515.185 5.34275L515.185 5.34275L516.126 3.57804ZM525.308 12.3487L523.555 13.3126L523.555 13.3126L525.308 12.3487ZM527.911 24.5455V26.5455H529.793L529.908 24.6677L527.911 24.5455ZM509.274 24.5455L507.275 24.4849L507.212 26.5455H509.274V24.5455ZM507.081 17.6934L505.627 19.0666L505.647 19.0874L505.667 19.1076L507.081 17.6934ZM494.336 17.5563L495.665 19.0512L495.67 19.0468L494.336 17.5563ZM493.925 30.1642L492.21 31.1932L492.219 31.2088L492.229 31.2242L493.925 30.1642ZM500.64 38.3867L499.186 39.76L499.21 39.7849L499.234 39.809L500.64 38.3867ZM524.759 62.232L523.353 63.6543L524.767 65.0524L526.174 63.6463L524.759 62.232ZM525.445 61.1357L523.73 60.1067L523.69 60.1725L523.656 60.2412L525.445 61.1357ZM533.256 48.1167V46.1167H532.124L531.541 47.0877L533.256 48.1167ZM553.264 48.1167L555.002 49.1059L556.704 46.1167H553.264V48.1167ZM543.671 64.9729L541.933 63.9836L541.911 64.0215L541.892 64.0602L543.671 64.9729ZM537.778 75.114L536.107 74.0156L535.207 75.3849L536.373 76.5366L537.778 75.114ZM560.939 98V100H565.808L562.344 96.5774L560.939 98ZM514.892 75.7992L516.247 77.2706L517.789 75.8505L516.298 74.3767L514.892 75.7992ZM491.321 52.502L492.727 51.0796L491.757 50.121L490.511 50.6736L491.321 52.502ZM482.688 79.6364L481.34 81.1143L481.352 81.1253L481.364 81.136L482.688 79.6364ZM538.772 96.5765L528.357 86.2983L525.547 89.1454L535.962 99.4235L538.772 96.5765ZM525.617 86.233C517.15 93.8266 506.811 97.6445 494.473 97.6445V101.645C507.717 101.645 519.03 97.514 528.287 89.2107L525.617 86.233ZM494.473 97.6445C487.663 97.6445 481.734 96.4951 476.642 94.2512L475.029 97.9116C480.718 100.419 487.214 101.645 494.473 101.645V97.6445ZM476.679 94.2682C471.676 91.939 467.864 88.7413 465.166 84.6939L461.838 86.9127C464.986 91.6359 469.397 95.2903 474.991 97.8946L476.679 94.2682ZM465.176 84.7097C462.485 80.5885 461.116 75.8141 461.116 70.3175H457.116C457.116 76.5152 458.671 82.0646 461.827 86.8968L465.176 84.7097ZM461.116 70.3175C461.116 64.4177 462.775 59.1596 466.092 54.4812L462.829 52.1674C459.021 57.5388 457.116 63.6094 457.116 70.3175H461.116ZM466.092 54.4812C469.405 49.8094 474.344 45.9475 481.038 42.9532L479.404 39.3019C472.21 42.5202 466.643 46.7895 462.829 52.1674L466.092 54.4812ZM481.769 39.8611C479.392 36.9567 477.734 34.2533 476.733 31.7511L473.019 33.2367C474.211 36.2162 476.116 39.2686 478.673 42.394L481.769 39.8611ZM476.741 31.7719C475.739 29.182 475.232 26.4131 475.232 23.4491H471.232C471.232 26.8805 471.821 30.1414 473.011 33.2159L476.741 31.7719ZM475.232 23.4491C475.232 19.4318 476.271 15.8896 478.329 12.7627L474.987 10.5643C472.476 14.3809 471.232 18.6958 471.232 23.4491H475.232ZM478.341 12.7429C480.405 9.52416 483.349 6.97432 487.251 5.10822L485.525 1.49969C481.021 3.65349 477.479 6.6767 474.974 10.5842L478.341 12.7429ZM487.236 5.11534C491.217 3.25146 495.898 2.28903 501.325 2.28903V-1.71097C495.424 -1.71097 490.146 -0.663445 485.54 1.49258L487.236 5.11534ZM501.325 2.28903C506.829 2.28903 511.423 3.3368 515.185 5.34275L517.067 1.81334C512.606 -0.566061 507.333 -1.71097 501.325 -1.71097V2.28903ZM515.185 5.34275C518.995 7.37495 521.754 10.0371 523.555 13.3126L527.06 11.3849C524.842 7.35144 521.479 4.16648 517.067 1.81334L515.185 5.34275ZM523.555 13.3126C525.369 16.6102 526.168 20.2947 525.915 24.4233L529.908 24.6677C530.203 19.8429 529.266 15.3961 527.06 11.3849L523.555 13.3126ZM527.911 22.5455H509.274V26.5455H527.911V22.5455ZM511.273 24.6061C511.374 21.2522 510.567 18.3506 508.495 16.2792L505.667 19.1076C506.702 20.1425 507.356 21.8089 507.275 24.4849L511.273 24.6061ZM508.535 16.3201C506.539 14.2067 503.874 13.2266 500.777 13.2266V17.2266C502.979 17.2266 504.517 17.8911 505.627 19.0666L508.535 16.3201ZM500.777 13.2266C497.779 13.2266 495.142 14.1513 493.003 16.0658L495.67 19.0468C497.002 17.855 498.659 17.2266 500.777 17.2266V13.2266ZM493.007 16.0615C490.899 17.9356 489.869 20.4166 489.869 23.3121H493.869C493.869 21.4568 494.484 20.1007 495.665 19.0512L493.007 16.0615ZM489.869 23.3121C489.869 26.0151 490.684 28.6507 492.21 31.1932L495.64 29.1352C494.425 27.1097 493.869 25.1771 493.869 23.3121H489.869ZM492.229 31.2242C493.703 33.5822 496.046 36.4348 499.186 39.76L502.094 37.0135C499.022 33.7606 496.888 31.1315 495.621 29.1042L492.229 31.2242ZM499.234 39.809L523.353 63.6543L526.166 60.8098L502.046 36.9644L499.234 39.809ZM526.174 63.6463C526.47 63.3499 526.75 62.9965 526.959 62.5783L523.382 60.7894C523.396 60.7618 523.404 60.7515 523.399 60.7579C523.394 60.7645 523.378 60.7848 523.345 60.8178L526.174 63.6463ZM526.959 62.5783C527.051 62.3956 527.142 62.2129 527.233 62.0302L523.656 60.2412C523.564 60.424 523.473 60.6067 523.382 60.7894L526.959 62.5783ZM527.16 62.1647L534.971 49.1457L531.541 47.0877L523.73 60.1067L527.16 62.1647ZM533.256 50.1167H553.264V46.1167H533.256V50.1167ZM551.526 47.1275L541.933 63.9836L545.409 65.9621L555.002 49.1059L551.526 47.1275ZM541.892 64.0602C540.096 67.5625 538.167 70.8806 536.107 74.0156L539.45 76.2123C541.592 72.9521 543.592 69.5095 545.451 65.8855L541.892 64.0602ZM536.373 76.5366L559.533 99.4226L562.344 96.5774L539.184 73.6914L536.373 76.5366ZM560.939 96H537.367V100H560.939V96ZM495.021 85.7476C503.039 85.7476 510.14 82.8929 516.247 77.2706L513.538 74.3278C508.133 79.3034 501.987 81.7476 495.021 81.7476V85.7476ZM516.298 74.3767L492.727 51.0796L489.915 53.9245L513.486 77.2217L516.298 74.3767ZM490.511 50.6736C481.221 54.7916 476.028 60.9329 476.028 69.2212H480.028C480.028 63.0743 483.697 58.0696 492.132 54.3304L490.511 50.6736ZM476.028 69.2212C476.028 73.9091 477.829 77.9128 481.34 81.1143L484.035 78.1585C481.334 75.6955 480.028 72.7557 480.028 69.2212H476.028ZM481.364 81.136C484.916 84.2703 489.537 85.7476 495.021 85.7476V81.7476C490.273 81.7476 486.671 80.4841 484.011 78.1367L481.364 81.136ZM668.188 2.34467H670.188V0.344666H668.188V2.34467ZM668.188 17.8304V19.8304H670.188V17.8304H668.188ZM642.698 17.8304V15.8304H640.698V17.8304H642.698ZM642.698 98V100H644.698V98H642.698ZM623.512 98H621.512V100H623.512V98ZM623.512 17.8304H625.512V15.8304H623.512V17.8304ZM598.022 17.8304H596.022V19.8304H598.022V17.8304ZM598.022 2.34467V0.344666H596.022V2.34467H598.022ZM666.188 2.34467V17.8304H670.188V2.34467H666.188ZM668.188 15.8304H642.698V19.8304H668.188V15.8304ZM640.698 17.8304V98H644.698V17.8304H640.698ZM642.698 96H623.512V100H642.698V96ZM625.512 98V17.8304H621.512V98H625.512ZM623.512 15.8304H598.022V19.8304H623.512V15.8304ZM600.022 17.8304V2.34467H596.022V17.8304H600.022ZM598.022 4.34467H668.188V0.344666H598.022V4.34467ZM701.372 17.8304V15.8304H699.372V17.8304H701.372ZM701.372 41.8128H699.372V43.8128H701.372V41.8128ZM733.577 41.8128H735.577V39.8128H733.577V41.8128ZM733.577 57.0244V59.0244H735.577V57.0244H733.577ZM701.372 57.0244V55.0244H699.372V57.0244H701.372ZM701.372 82.3772H699.372V84.3772H701.372V82.3772ZM737.688 82.3772H739.688V80.3772H737.688V82.3772ZM737.688 98V100H739.688V98H737.688ZM682.186 98H680.186V100H682.186V98ZM682.186 2.20762V0.207618H680.186V2.20762H682.186ZM737.688 2.20762H739.688V0.207618H737.688V2.20762ZM737.688 17.8304V19.8304H739.688V17.8304H737.688ZM699.372 17.8304V41.8128H703.372V17.8304H699.372ZM701.372 43.8128H733.577V39.8128H701.372V43.8128ZM731.577 41.8128V57.0244H735.577V41.8128H731.577ZM733.577 55.0244H701.372V59.0244H733.577V55.0244ZM699.372 57.0244V82.3772H703.372V57.0244H699.372ZM701.372 84.3772H737.688V80.3772H701.372V84.3772ZM735.688 82.3772V98H739.688V82.3772H735.688ZM737.688 96H682.186V100H737.688V96ZM684.186 98V2.20762H680.186V98H684.186ZM682.186 4.20762H737.688V0.207618H682.186V4.20762ZM735.688 2.20762V17.8304H739.688V2.20762H735.688ZM737.688 15.8304H701.372V19.8304H737.688V15.8304ZM756.768 24.8196L755.033 23.825L755.029 23.8319L756.768 24.8196ZM774.173 7.41522L775.153 9.15839L775.16 9.15434L774.173 7.41522ZM843.927 32.0828V34.0828H846.694L845.826 31.4557L843.927 32.0828ZM821.863 32.0828L820.06 32.9482L820.605 34.0828H821.863V32.0828ZM812.544 21.8046L811.539 23.5336L811.548 23.5386L811.556 23.5435L812.544 21.8046ZM783.903 22.3528L784.926 24.071L784.937 24.0646L783.903 22.3528ZM773.762 33.3162L771.987 32.3945L771.98 32.4081L771.973 32.4217L773.762 33.3162ZM773.762 66.7544L771.966 67.6353L771.976 67.6558L771.987 67.676L773.762 66.7544ZM783.903 77.8548L782.852 79.5569L782.874 79.5699L782.895 79.5824L783.903 77.8548ZM812.544 78.2659L813.55 79.995L813.556 79.9914L813.562 79.9878L812.544 78.2659ZM821.863 67.8508V65.8508H820.605L820.06 66.9853L821.863 67.8508ZM843.927 67.8508L845.828 68.4725L846.686 65.8508H843.927V67.8508ZM827.071 90.7368L828.193 92.392L828.198 92.3892L827.071 90.7368ZM774.173 92.6554L773.176 94.3892L773.189 94.3965L773.201 94.4037L774.173 92.6554ZM756.768 75.251L755.029 76.2387L755.034 76.2467L755.038 76.2548L756.768 75.251ZM752.464 50.0353C752.464 40.9338 754.493 32.8754 758.507 25.8072L755.029 23.8319C750.638 31.5643 748.464 40.3163 748.464 50.0353H752.464ZM758.504 25.8141C762.624 18.6258 768.168 13.0873 775.153 9.15837L773.192 5.67207C765.559 9.96565 759.501 16.0301 755.033 23.825L758.504 25.8141ZM775.16 9.15434C782.237 5.13524 790.161 3.11129 798.977 3.11129V-0.888712C789.521 -0.888712 780.908 1.28996 773.185 5.6761L775.16 9.15434ZM798.977 3.11129C809.306 3.11129 818.269 5.75324 825.944 10.9863L828.198 7.68135C819.793 1.95101 810.027 -0.888712 798.977 -0.888712V3.11129ZM825.944 10.9863C833.603 16.2079 838.961 23.4214 842.028 32.7099L845.826 31.4557C842.498 21.3755 836.619 13.4231 828.198 7.68135L825.944 10.9863ZM843.927 30.0828H821.863V34.0828H843.927V30.0828ZM823.666 31.2173C821.315 26.3188 817.941 22.5704 813.533 20.0657L811.556 23.5435C815.188 25.6069 818.026 28.7107 820.06 32.9482L823.666 31.2173ZM813.55 20.0756C809.274 17.5895 804.349 16.3786 798.84 16.3786V20.3786C803.747 20.3786 807.958 21.4517 811.539 23.5336L813.55 20.0756ZM798.84 16.3786C792.936 16.3786 787.593 17.7866 782.868 20.641L784.937 24.0646C788.983 21.6201 793.599 20.3786 798.84 20.3786V16.3786ZM782.879 20.6346C778.243 23.3968 774.612 27.3379 771.987 32.3945L775.537 34.2378C777.845 29.7928 780.975 26.4251 784.926 24.071L782.879 20.6346ZM771.973 32.4217C769.433 37.5013 768.198 43.3921 768.198 50.0353H772.198C772.198 43.8879 773.339 38.6326 775.55 34.2106L771.973 32.4217ZM768.198 50.0353C768.198 56.5932 769.435 62.4763 771.966 67.6353L775.557 65.8736C773.337 61.3482 772.198 56.0852 772.198 50.0353H768.198ZM771.987 67.676C774.609 72.7274 778.232 76.7059 782.852 79.5569L784.953 76.1528C780.986 73.7048 777.847 70.283 775.537 65.8328L771.987 67.676ZM782.895 79.5824C787.616 82.336 792.949 83.692 798.84 83.692V79.692C793.586 79.692 788.961 78.4898 784.91 76.1273L782.895 79.5824ZM798.84 83.692C804.349 83.692 809.274 82.4811 813.55 79.995L811.539 76.5369C807.958 78.6189 803.747 79.692 798.84 79.692V83.692ZM813.562 79.9878C817.952 77.3938 821.318 73.6094 823.666 68.7162L820.06 66.9853C818.024 71.2282 815.177 74.3873 811.527 76.5441L813.562 79.9878ZM821.863 69.8508H843.927V65.8508H821.863V69.8508ZM842.026 67.229C838.957 76.6106 833.598 83.8661 825.944 89.0843L828.198 92.3892C836.624 86.6441 842.501 78.6422 845.828 68.4725L842.026 67.229ZM825.948 89.0815C818.371 94.2202 809.409 96.8223 798.977 96.8223V100.822C810.107 100.822 819.874 98.034 828.193 92.392L825.948 89.0815ZM798.977 96.8223C790.153 96.8223 782.224 94.8403 775.144 90.907L773.201 94.4037C780.922 98.693 789.529 100.822 798.977 100.822V96.8223ZM775.17 90.9215C768.17 86.8965 762.619 81.3488 758.498 74.2473L755.038 76.2548C759.506 83.9538 765.558 90.009 773.176 94.3892L775.17 90.9215ZM758.507 74.2634C754.493 67.1952 752.464 59.1368 752.464 50.0353H748.464C748.464 59.7543 750.638 68.5063 755.029 76.2387L758.507 74.2634ZM939.662 2.34467H941.662V0.344666H939.662V2.34467ZM939.662 98V100H941.662V98H939.662ZM920.476 98H918.476V100H920.476V98ZM920.476 57.2985H922.476V55.2985H920.476V57.2985ZM879.5 57.2985V55.2985H877.5V57.2985H879.5ZM879.5 98V100H881.5V98H879.5ZM860.314 98H858.314V100H860.314V98ZM860.314 2.34467V0.344666H858.314V2.34467H860.314ZM879.5 2.34467H881.5V0.344666H879.5V2.34467ZM879.5 41.6757H877.5V43.6757H879.5V41.6757ZM920.476 41.6757V43.6757H922.476V41.6757H920.476ZM920.476 2.34467V0.344666H918.476V2.34467H920.476ZM937.662 2.34467V98H941.662V2.34467H937.662ZM939.662 96H920.476V100H939.662V96ZM922.476 98V57.2985H918.476V98H922.476ZM920.476 55.2985H879.5V59.2985H920.476V55.2985ZM877.5 57.2985V98H881.5V57.2985H877.5ZM879.5 96H860.314V100H879.5V96ZM862.314 98V2.34467H858.314V98H862.314ZM860.314 4.34467H879.5V0.344666H860.314V4.34467ZM877.5 2.34467V41.6757H881.5V2.34467H877.5ZM879.5 43.6757H920.476V39.6757H879.5V43.6757ZM922.476 41.6757V2.34467H918.476V41.6757H922.476ZM920.476 4.34467H939.662V0.344666H920.476V4.34467Z" fill="#EAEAEA"/>
</svg>
