<svg width="395" height="73" viewBox="0 0 395 73" fill="none" xmlns="http://www.w3.org/2000/svg">
<path d="M40.5694 19.8826V54H33.7264V31.809L24.586 54H19.4049L10.2157 31.809V54H3.37264V19.8826H11.1444L21.9954 45.2507L32.8465 19.8826H40.5694ZM72.5075 39.874C72.5075 40.8516 72.4423 41.7314 72.3119 42.5135H52.516C52.679 44.4686 53.3633 46.0002 54.569 47.1081C55.7746 48.216 57.2573 48.77 59.0169 48.77C61.5586 48.77 63.3671 47.6783 64.4425 45.4951H71.8232C71.0411 48.102 69.5421 50.2526 67.3263 51.9471C65.1105 53.609 62.3896 54.4399 59.1636 54.4399C56.5567 54.4399 54.2105 53.8697 52.125 52.7292C50.0721 51.5561 48.4591 49.9105 47.286 47.7924C46.1455 45.6743 45.5753 43.2304 45.5753 40.4606C45.5753 37.6582 46.1455 35.198 47.286 33.0799C48.4265 30.9618 50.0232 29.3325 52.0761 28.192C54.129 27.0515 56.4915 26.4812 59.1636 26.4812C61.7378 26.4812 64.0351 27.0352 66.0555 28.1431C68.1084 29.251 69.6888 30.8315 70.7967 32.8844C71.9372 34.9047 72.5075 37.2346 72.5075 39.874ZM65.42 37.9189C65.3875 36.1592 64.752 34.7581 63.5138 33.7153C62.2755 32.64 60.7603 32.1023 58.968 32.1023C57.2736 32.1023 55.8398 32.6237 54.6667 33.6664C53.5262 34.6766 52.8256 36.0941 52.5649 37.9189H65.42ZM102.675 39.874C102.675 40.8516 102.61 41.7314 102.479 42.5135H82.6834C82.8463 44.4686 83.5306 46.0002 84.7363 47.1081C85.942 48.216 87.4247 48.77 89.1843 48.77C91.726 48.77 93.5345 47.6783 94.6098 45.4951H101.991C101.208 48.102 99.7095 50.2526 97.4937 51.9471C95.2778 53.609 92.5569 54.4399 89.3309 54.4399C86.7241 54.4399 84.3779 53.8697 82.2924 52.7292C80.2395 51.5561 78.6265 49.9105 77.4534 47.7924C76.3129 45.6743 75.7426 43.2304 75.7426 40.4606C75.7426 37.6582 76.3129 35.198 77.4534 33.0799C78.5939 30.9618 80.1906 29.3325 82.2435 28.192C84.2964 27.0515 86.6589 26.4812 89.3309 26.4812C91.9052 26.4812 94.2025 27.0352 96.2228 28.1431C98.2757 29.251 99.8562 30.8315 100.964 32.8844C102.105 34.9047 102.675 37.2346 102.675 39.874ZM95.5874 37.9189C95.5548 36.1592 94.9194 34.7581 93.6811 33.7153C92.4429 32.64 90.9276 32.1023 89.1354 32.1023C87.4409 32.1023 86.0072 32.6237 84.8341 33.6664C83.6936 34.6766 82.993 36.0941 82.7323 37.9189H95.5874ZM115.637 32.5422V45.6417C115.637 46.5541 115.849 47.2221 116.272 47.6458C116.728 48.0368 117.478 48.2323 118.521 48.2323H121.698V54H117.397C111.629 54 108.745 51.1976 108.745 45.5929V32.5422H105.519V26.9212H108.745V20.2248H115.637V26.9212H121.698V32.5422H115.637ZM154.103 54.3422C150.91 54.3422 147.977 53.5927 145.305 52.0937C142.633 50.5948 140.515 48.5256 138.951 45.8861C137.387 43.2141 136.605 40.1999 136.605 36.8436C136.605 33.5198 137.387 30.5382 138.951 27.8987C140.515 25.2267 142.633 23.1412 145.305 21.6422C147.977 20.1433 150.91 19.3938 154.103 19.3938C157.329 19.3938 160.262 20.1433 162.902 21.6422C165.574 23.1412 167.675 25.2267 169.207 27.8987C170.771 30.5382 171.553 33.5198 171.553 36.8436C171.553 40.1999 170.771 43.2141 169.207 45.8861C167.675 48.5256 165.574 50.5948 162.902 52.0937C160.229 53.5927 157.297 54.3422 154.103 54.3422ZM154.103 48.2323C156.156 48.2323 157.965 47.7761 159.529 46.8637C161.093 45.9187 162.315 44.5827 163.195 42.8556C164.075 41.1286 164.515 39.1246 164.515 36.8436C164.515 34.5625 164.075 32.5748 163.195 30.8803C162.315 29.1533 161.093 27.8336 159.529 26.9212C157.965 26.0088 156.156 25.5526 154.103 25.5526C152.05 25.5526 150.226 26.0088 148.629 26.9212C147.065 27.8336 145.843 29.1533 144.963 30.8803C144.083 32.5748 143.643 34.5625 143.643 36.8436C143.643 39.1246 144.083 41.1286 144.963 42.8556C145.843 44.5827 147.065 45.9187 148.629 46.8637C150.226 47.7761 152.05 48.2323 154.103 48.2323ZM202.208 26.9212V54H195.316V50.5785C194.436 51.7516 193.279 52.6803 191.845 53.3646C190.444 54.0163 188.913 54.3422 187.251 54.3422C185.133 54.3422 183.259 53.9022 181.63 53.0224C180 52.11 178.713 50.7903 177.768 49.0632C176.856 47.3036 176.4 45.2181 176.4 42.8068V26.9212H183.243V41.8292C183.243 43.9799 183.78 45.6417 184.856 46.8148C185.931 47.9553 187.397 48.5256 189.255 48.5256C191.145 48.5256 192.627 47.9553 193.703 46.8148C194.778 45.6417 195.316 43.9799 195.316 41.8292V26.9212H202.208ZM215.802 31.1247C216.682 29.691 217.823 28.5667 219.224 27.7521C220.658 26.9375 222.287 26.5301 224.112 26.5301V33.7153H222.303C220.153 33.7153 218.523 34.2204 217.415 35.2306C216.34 36.2407 215.802 38.0003 215.802 40.5095V54H208.959V26.9212H215.802V31.1247ZM263.585 19.8826V25.4059H254.494V54H247.651V25.4059H238.559V19.8826H263.585ZM293.751 39.874C293.751 40.8516 293.686 41.7314 293.555 42.5135H273.759C273.922 44.4686 274.607 46.0002 275.812 47.1081C277.018 48.216 278.501 48.77 280.26 48.77C282.802 48.77 284.61 47.6783 285.686 45.4951H293.066C292.284 48.102 290.785 50.2526 288.57 51.9471C286.354 53.609 283.633 54.4399 280.407 54.4399C277.8 54.4399 275.454 53.8697 273.368 52.7292C271.315 51.5561 269.702 49.9105 268.529 47.7924C267.389 45.6743 266.819 43.2304 266.819 40.4606C266.819 37.6582 267.389 35.198 268.529 33.0799C269.67 30.9618 271.267 29.3325 273.319 28.192C275.372 27.0515 277.735 26.4812 280.407 26.4812C282.981 26.4812 285.278 27.0352 287.299 28.1431C289.352 29.251 290.932 30.8315 292.04 32.8844C293.18 34.9047 293.751 37.2346 293.751 39.874ZM286.663 37.9189C286.631 36.1592 285.995 34.7581 284.757 33.7153C283.519 32.64 282.004 32.1023 280.211 32.1023C278.517 32.1023 277.083 32.6237 275.91 33.6664C274.769 34.6766 274.069 36.0941 273.808 37.9189H286.663ZM296.986 40.3628C296.986 37.6256 297.524 35.198 298.599 33.0799C299.707 30.9618 301.189 29.3325 303.047 28.192C304.937 27.0515 307.039 26.4812 309.352 26.4812C311.373 26.4812 313.132 26.8886 314.631 27.7032C316.163 28.5179 317.385 29.5443 318.297 30.7826V26.9212H325.189V54H318.297V50.0408C317.417 51.3117 316.195 52.3707 314.631 53.2179C313.1 54.0326 311.324 54.4399 309.303 54.4399C307.022 54.4399 304.937 53.8534 303.047 52.6803C301.189 51.5072 299.707 49.8616 298.599 47.7435C297.524 45.5929 296.986 43.1326 296.986 40.3628ZM318.297 40.4606C318.297 38.7987 317.971 37.3812 317.319 36.2081C316.668 35.0024 315.788 34.09 314.68 33.4709C313.572 32.8192 312.383 32.4933 311.112 32.4933C309.841 32.4933 308.668 32.8029 307.593 33.422C306.517 34.0412 305.637 34.9536 304.953 36.1592C304.301 37.3323 303.976 38.7335 303.976 40.3628C303.976 41.9921 304.301 43.4259 304.953 44.6642C305.637 45.8698 306.517 46.7985 307.593 47.4502C308.701 48.102 309.874 48.4278 311.112 48.4278C312.383 48.4278 313.572 48.1183 314.68 47.4991C315.788 46.8474 316.668 45.935 317.319 44.7619C317.971 43.5562 318.297 42.1225 318.297 40.4606ZM365.501 26.5301C368.825 26.5301 371.497 27.5566 373.517 29.6095C375.57 31.6298 376.596 34.4648 376.596 38.1144V54H369.753V39.0431C369.753 36.925 369.216 35.312 368.14 34.2041C367.065 33.0636 365.599 32.4933 363.741 32.4933C361.884 32.4933 360.401 33.0636 359.293 34.2041C358.218 35.312 357.68 36.925 357.68 39.0431V54H350.837V39.0431C350.837 36.925 350.3 35.312 349.224 34.2041C348.149 33.0636 346.683 32.4933 344.825 32.4933C342.935 32.4933 341.436 33.0636 340.328 34.2041C339.253 35.312 338.715 36.925 338.715 39.0431V54H331.872V26.9212H338.715V30.196C339.595 29.0555 340.719 28.1594 342.088 27.5077C343.489 26.856 345.021 26.5301 346.683 26.5301C348.801 26.5301 350.691 26.9863 352.353 27.8987C354.014 28.7786 355.302 30.0494 356.214 31.7113C357.094 30.1472 358.365 28.8926 360.027 27.9476C361.721 27.0026 363.546 26.5301 365.501 26.5301Z" fill="#363636"/>
<circle cx="389" cy="48" r="6" fill="url(#paint0_linear_128_212)"/>
<defs>
<linearGradient id="paint0_linear_128_212" x1="389" y1="45.6" x2="389" y2="54" gradientUnits="userSpaceOnUse">
<stop stop-color="#FF4E59"/>
<stop offset="1" stop-color="#FF56B6"/>
</linearGradient>
</defs>
</svg>
