<svg width="136" height="37" viewBox="0 0 136 37" fill="none" xmlns="http://www.w3.org/2000/svg">
<rect x="135.305" y="36.9996" width="135" height="37" rx="18.5" transform="rotate(-180 135.305 36.9996)" fill="url(#paint0_linear_6_1169)"/>
<path d="M37.855 18.798L31.1816 14.9451" stroke="white" stroke-width="1.2" stroke-linecap="round" stroke-linejoin="round"/>
<path d="M34.6289 12.4841C34.7143 12.5334 34.7801 12.6107 34.815 12.7029C34.8499 12.7952 34.8519 12.8967 34.8205 12.9902C34.6956 13.3646 34.7038 13.7707 34.8438 14.1398C34.9838 14.5089 35.247 14.8183 35.5889 15.0156C35.9307 15.213 36.3303 15.2862 36.7199 15.223C37.1095 15.1597 37.4654 14.9637 37.7272 14.6683C37.7925 14.5944 37.8813 14.5454 37.9787 14.5295C38.076 14.5136 38.1758 14.5319 38.2612 14.5812L39.411 15.2451C39.5093 15.3018 39.5811 15.3953 39.6105 15.505C39.6398 15.6147 39.6245 15.7315 39.5677 15.8298L34.4305 24.7276C34.3738 24.826 34.2803 24.8977 34.1706 24.9271C34.0609 24.9565 33.9441 24.9411 33.8458 24.8843L32.696 24.2205C32.6106 24.1712 32.5448 24.0939 32.5099 24.0017C32.475 23.9095 32.473 23.808 32.5043 23.7145C32.6293 23.34 32.6211 22.9339 32.4811 22.5648C32.3411 22.1957 32.0779 21.8864 31.736 21.689C31.3942 21.4916 30.9946 21.4184 30.605 21.4817C30.2154 21.545 29.8595 21.7409 29.5977 22.0363C29.5324 22.1102 29.4436 22.1593 29.3462 22.1751C29.2489 22.191 29.149 22.1727 29.0636 22.1234L27.9139 21.4596C27.8156 21.4028 27.7438 21.3093 27.7144 21.1996C27.685 21.09 27.7004 20.9731 27.7572 20.8748L32.8943 11.977C32.9511 11.8787 33.0446 11.8069 33.1543 11.7775C33.264 11.7481 33.3808 11.7635 33.4791 11.8203L34.6289 12.4841Z" stroke="white" stroke-width="1.2" stroke-linecap="round" stroke-linejoin="round"/>
<path d="M50.1723 23.9998L48.0581 20.2656H47.152V23.9998H45.23V14.4172H48.8269C49.5682 14.4172 50.1997 14.5499 50.7214 14.8153C51.2431 15.0716 51.6321 15.424 51.8883 15.8724C52.1538 16.3118 52.2865 16.806 52.2865 17.3551C52.2865 17.9866 52.1034 18.5587 51.7373 19.0712C51.3712 19.5746 50.8267 19.9224 50.1036 20.1146L52.3963 23.9998H50.1723ZM47.152 18.8241H48.7582C49.2799 18.8241 49.6689 18.7005 49.9252 18.4534C50.1814 18.1971 50.3096 17.8448 50.3096 17.3963C50.3096 16.957 50.1814 16.6184 49.9252 16.3804C49.6689 16.1333 49.2799 16.0097 48.7582 16.0097H47.152V18.8241ZM55.9469 15.9685V18.371H59.1731V19.8949H55.9469V22.4347H59.5849V23.9998H54.0249V14.4035H59.5849V15.9685H55.9469ZM68.0037 17.3002C67.784 16.8975 67.482 16.5909 67.0976 16.3804C66.7132 16.1699 66.2647 16.0646 65.7522 16.0646C65.1847 16.0646 64.6813 16.1928 64.242 16.449C63.8027 16.7053 63.4595 17.0714 63.2124 17.5473C62.9653 18.0232 62.8417 18.5724 62.8417 19.1948C62.8417 19.8354 62.9653 20.3937 63.2124 20.8696C63.4687 21.3456 63.821 21.7117 64.2695 21.9679C64.718 22.2242 65.2396 22.3523 65.8345 22.3523C66.5667 22.3523 67.1662 22.1601 67.633 21.7757C68.0998 21.3822 68.4064 20.8376 68.5528 20.142H65.2579V18.6731H70.4473V20.348C70.3192 21.0161 70.0446 21.6339 69.6236 22.2013C69.2026 22.7688 68.6581 23.2264 67.9899 23.5742C67.331 23.9128 66.5896 24.0821 65.7659 24.0821C64.8415 24.0821 64.0041 23.8762 63.2536 23.4643C62.5122 23.0433 61.9265 22.4622 61.4963 21.7208C61.0753 20.9795 60.8648 20.1374 60.8648 19.1948C60.8648 18.2521 61.0753 17.41 61.4963 16.6687C61.9265 15.9182 62.5122 15.337 63.2536 14.9252C64.0041 14.5042 64.8369 14.2937 65.7522 14.2937C66.8322 14.2937 67.7703 14.5591 68.5665 15.0899C69.3628 15.6116 69.9119 16.3484 70.214 17.3002H68.0037ZM73.7913 14.4172V23.9998H71.8693V14.4172H73.7913ZM78.9989 24.0959C78.3307 24.0959 77.7267 23.9815 77.1867 23.7526C76.6558 23.5238 76.2348 23.1943 75.9237 22.7642C75.6125 22.334 75.4523 21.8261 75.4432 21.2403H77.5024C77.5299 21.6339 77.6672 21.945 77.9143 22.1739C78.1706 22.4027 78.5184 22.5171 78.9577 22.5171C79.4061 22.5171 79.7585 22.4118 80.0148 22.2013C80.271 21.9817 80.3992 21.6979 80.3992 21.3501C80.3992 21.0664 80.3122 20.833 80.1383 20.65C79.9644 20.4669 79.7448 20.3251 79.4794 20.2244C79.2231 20.1146 78.8661 19.9956 78.4085 19.8675C77.7862 19.6844 77.2782 19.5059 76.8847 19.332C76.5003 19.149 76.1662 18.879 75.8825 18.5221C75.6079 18.156 75.4706 17.6709 75.4706 17.0668C75.4706 16.4994 75.6125 16.0051 75.8962 15.5841C76.1799 15.1631 76.578 14.8428 77.0906 14.6231C77.6031 14.3943 78.1889 14.2799 78.8478 14.2799C79.8363 14.2799 80.6371 14.5225 81.2503 15.0075C81.8727 15.4835 82.2159 16.1516 82.28 17.0119H80.1658C80.1475 16.6824 80.0056 16.4124 79.7402 16.2019C79.4839 15.9823 79.1407 15.8724 78.7106 15.8724C78.3353 15.8724 78.0333 15.9685 77.8045 16.1607C77.5848 16.3529 77.475 16.6321 77.475 16.9982C77.475 17.2544 77.5574 17.4695 77.7221 17.6434C77.896 17.8082 78.1065 17.9455 78.3536 18.0553C78.6099 18.156 78.9668 18.2749 79.4244 18.4122C80.0468 18.5953 80.5548 18.7783 80.9483 18.9614C81.3419 19.1444 81.6805 19.419 81.9642 19.7851C82.248 20.1512 82.3898 20.6317 82.3898 21.2266C82.3898 21.7391 82.2571 22.215 81.9917 22.6544C81.7263 23.0937 81.3373 23.446 80.8248 23.7115C80.3122 23.9677 79.7036 24.0959 78.9989 24.0959ZM90.5772 14.4172V15.9685H88.0237V23.9998H86.1017V15.9685H83.5482V14.4172H90.5772ZM93.9015 15.9685V18.371H97.1278V19.8949H93.9015V22.4347H97.5396V23.9998H91.9795V14.4035H97.5396V15.9685H93.9015ZM104.229 23.9998L102.114 20.2656H101.208V23.9998H99.2863V14.4172H102.883C103.624 14.4172 104.256 14.5499 104.778 14.8153C105.299 15.0716 105.688 15.424 105.945 15.8724C106.21 16.3118 106.343 16.806 106.343 17.3551C106.343 17.9866 106.16 18.5587 105.794 19.0712C105.428 19.5746 104.883 19.9224 104.16 20.1146L106.453 23.9998H104.229ZM101.208 18.8241H102.815C103.336 18.8241 103.725 18.7005 103.981 18.4534C104.238 18.1971 104.366 17.8448 104.366 17.3963C104.366 16.957 104.238 16.6184 103.981 16.3804C103.725 16.1333 103.336 16.0097 102.815 16.0097H101.208V18.8241Z" fill="white"/>
<defs>
<linearGradient id="paint0_linear_6_1169" x1="146.451" y1="42.7552" x2="263.528" y2="59.7934" gradientUnits="userSpaceOnUse">
<stop stop-color="#FF39B1"/>
<stop offset="0.486955" stop-color="#FE8B2E"/>
<stop offset="1" stop-color="#FF516A"/>
</linearGradient>
</defs>
</svg>
