<svg width="264" height="60" viewBox="0 0 264 60" fill="none" xmlns="http://www.w3.org/2000/svg">
<circle cx="258" cy="37.4094" r="6" fill="url(#paint0_linear_87_120)"/>
<path d="M17.2348 44L11.0479 33.0726H8.39644V44H2.77203V15.9583H13.2977C15.4671 15.9583 17.3151 16.3467 18.8418 17.1234C20.3684 17.8733 21.5067 18.9044 22.2566 20.2168C23.0333 21.5024 23.4216 22.9486 23.4216 24.5556C23.4216 26.4036 22.886 28.0776 21.8147 29.5774C20.7433 31.0505 19.1498 32.0682 17.0339 32.6307L23.743 44H17.2348ZM8.39644 28.8543H13.0968C14.6235 28.8543 15.7617 28.4927 16.5117 27.7696C17.2616 27.0196 17.6365 25.9885 17.6365 24.6761C17.6365 23.3906 17.2616 22.3996 16.5117 21.7032C15.7617 20.9801 14.6235 20.6185 13.0968 20.6185H8.39644V28.8543ZM49.1985 32.3896C49.1985 33.1931 49.1449 33.9162 49.0378 34.559H32.7672C32.9011 36.166 33.4635 37.4248 34.4545 38.3354C35.4455 39.246 36.6641 39.7013 38.1104 39.7013C40.1994 39.7013 41.6859 38.8041 42.5697 37.0097H48.6361C47.9933 39.1523 46.7613 40.92 44.94 42.3127C43.1188 43.6786 40.8824 44.3616 38.2309 44.3616C36.0883 44.3616 34.1599 43.8929 32.4458 42.9555C30.7585 41.9913 29.4327 40.6387 28.4685 38.8979C27.5311 37.157 27.0624 35.1483 27.0624 32.8717C27.0624 30.5684 27.5311 28.5463 28.4685 26.8054C29.4059 25.0645 30.7183 23.7254 32.4056 22.788C34.0929 21.8505 36.0347 21.3818 38.2309 21.3818C40.3468 21.3818 42.2349 21.8372 43.8955 22.7478C45.5828 23.6584 46.8818 24.9574 47.7924 26.6447C48.7298 28.3052 49.1985 30.2202 49.1985 32.3896ZM43.3732 30.7826C43.3464 29.3364 42.8242 28.1847 41.8064 27.3276C40.7887 26.4438 39.5433 26.0019 38.0702 26.0019C36.6775 26.0019 35.499 26.4304 34.5349 27.2875C33.5975 28.1177 33.0216 29.2828 32.8074 30.7826H43.3732ZM62.0216 21.3818C63.6822 21.3818 65.1418 21.7166 66.4006 22.3862C67.6594 23.029 68.6504 23.8727 69.3735 24.9172V21.7434H75.0381V44.1607C75.0381 46.223 74.623 48.0576 73.7927 49.6646C72.9625 51.2983 71.717 52.5839 70.0565 53.5213C68.396 54.4855 66.3873 54.9676 64.0304 54.9676C60.87 54.9676 58.272 54.2311 56.2365 52.758C54.2278 51.2849 53.0895 49.2762 52.8217 46.7319H58.406C58.7006 47.7496 59.33 48.5531 60.2941 49.1423C61.2851 49.7583 62.4769 50.0663 63.8697 50.0663C65.5034 50.0663 66.8292 49.5708 67.8469 48.5799C68.8647 47.6157 69.3735 46.1426 69.3735 44.1607V40.7057C68.6504 41.7502 67.646 42.6207 66.3605 43.317C65.1017 44.0134 63.6554 44.3616 62.0216 44.3616C60.1468 44.3616 58.4327 43.8795 56.8793 42.9153C55.3259 41.9511 54.0939 40.5986 53.1833 38.8577C52.2995 37.09 51.8575 35.0679 51.8575 32.7914C51.8575 30.5416 52.2995 28.5463 53.1833 26.8054C54.0939 25.0645 55.3125 23.7254 56.8392 22.788C58.3926 21.8505 60.1201 21.3818 62.0216 21.3818ZM69.3735 32.8717C69.3735 31.5058 69.1057 30.3407 68.5701 29.3765C68.0344 28.3856 67.3113 27.6357 66.4006 27.1268C65.49 26.5911 64.5125 26.3233 63.4679 26.3233C62.4234 26.3233 61.4592 26.5777 60.5754 27.0866C59.6915 27.5955 58.9684 28.3454 58.406 29.3364C57.8703 30.3006 57.6025 31.4522 57.6025 32.7914C57.6025 34.1305 57.8703 35.309 58.406 36.3267C58.9684 37.3177 59.6915 38.081 60.5754 38.6166C61.486 39.1523 62.4502 39.4201 63.4679 39.4201C64.5125 39.4201 65.49 39.1657 66.4006 38.6568C67.3113 38.1212 68.0344 37.3712 68.5701 36.4071C69.1057 35.4161 69.3735 34.2376 69.3735 32.8717ZM83.3837 19.0919C82.3927 19.0919 81.5625 18.7839 80.8929 18.1679C80.2501 17.5251 79.9287 16.735 79.9287 15.7976C79.9287 14.8602 80.2501 14.0835 80.8929 13.4675C81.5625 12.8247 82.3927 12.5033 83.3837 12.5033C84.3747 12.5033 85.1916 12.8247 85.8343 13.4675C86.5039 14.0835 86.8387 14.8602 86.8387 15.7976C86.8387 16.735 86.5039 17.5251 85.8343 18.1679C85.1916 18.7839 84.3747 19.0919 83.3837 19.0919ZM86.1557 21.7434V44H80.5313V21.7434H86.1557ZM100.23 44.3616C98.4084 44.3616 96.7746 44.0402 95.3284 43.3974C93.8821 42.7278 92.7304 41.8306 91.8734 40.7057C91.0431 39.5808 90.5878 38.3354 90.5074 36.9695H96.172C96.2792 37.8265 96.6943 38.5363 97.4174 39.0987C98.1673 39.6612 99.0914 39.9424 100.189 39.9424C101.261 39.9424 102.091 39.7281 102.68 39.2996C103.296 38.8711 103.604 38.322 103.604 37.6525C103.604 36.9293 103.229 36.3937 102.479 36.0455C101.756 35.6705 100.591 35.2688 98.9842 34.8403C97.3237 34.4385 95.9578 34.0234 94.8864 33.5948C93.8419 33.1663 92.9313 32.5101 92.1546 31.6263C91.4047 30.7425 91.0297 29.5506 91.0297 28.0508C91.0297 26.8188 91.3779 25.6939 92.0742 24.6761C92.7974 23.6584 93.8151 22.8549 95.1275 22.2657C96.4666 21.6765 98.0334 21.3818 99.8279 21.3818C102.479 21.3818 104.595 22.0514 106.175 23.3906C107.756 24.7029 108.626 26.484 108.787 28.7338H103.403C103.323 27.8499 102.948 27.1536 102.279 26.6447C101.636 26.109 100.765 25.8412 99.6672 25.8412C98.6494 25.8412 97.8593 26.0287 97.2969 26.4036C96.7612 26.7786 96.4934 27.3009 96.4934 27.9704C96.4934 28.7204 96.8684 29.2962 97.6183 29.6979C98.3682 30.0729 99.5333 30.4612 101.113 30.863C102.72 31.2647 104.046 31.6799 105.091 32.1084C106.135 32.5369 107.032 33.2065 107.782 34.1171C108.559 35.0009 108.961 36.1794 108.988 37.6525C108.988 38.938 108.626 40.0897 107.903 41.1074C107.207 42.1252 106.189 42.9287 104.85 43.5179C103.537 44.0803 101.997 44.3616 100.23 44.3616ZM120.153 26.3635V37.1302C120.153 37.8801 120.327 38.4292 120.675 38.7773C121.05 39.0987 121.666 39.2594 122.523 39.2594H125.135V44H121.599C116.859 44 114.488 41.6967 114.488 37.09V26.3635H111.837V21.7434H114.488V16.2395H120.153V21.7434H125.135V26.3635H120.153ZM134.804 25.1984C135.527 24.02 136.465 23.096 137.617 22.4264C138.795 21.7568 140.134 21.422 141.634 21.422V27.3276H140.148C138.38 27.3276 137.041 27.7428 136.13 28.5731C135.246 29.4033 134.804 30.8496 134.804 32.9119V44H129.18V21.7434H134.804V25.1984ZM143.976 32.7914C143.976 30.5416 144.418 28.5463 145.302 26.8054C146.212 25.0645 147.431 23.7254 148.958 22.788C150.511 21.8505 152.239 21.3818 154.14 21.3818C155.801 21.3818 157.247 21.7166 158.479 22.3862C159.738 23.0558 160.742 23.8994 161.492 24.9172V21.7434H167.157V44H161.492V40.7459C160.769 41.7904 159.765 42.6609 158.479 43.3572C157.22 44.0268 155.76 44.3616 154.1 44.3616C152.225 44.3616 150.511 43.8795 148.958 42.9153C147.431 41.9511 146.212 40.5986 145.302 38.8577C144.418 37.09 143.976 35.0679 143.976 32.7914ZM161.492 32.8717C161.492 31.5058 161.224 30.3407 160.689 29.3765C160.153 28.3856 159.43 27.6357 158.519 27.1268C157.609 26.5911 156.631 26.3233 155.586 26.3233C154.542 26.3233 153.578 26.5777 152.694 27.0866C151.81 27.5955 151.087 28.3454 150.524 29.3364C149.989 30.3006 149.721 31.4522 149.721 32.7914C149.721 34.1305 149.989 35.309 150.524 36.3267C151.087 37.3177 151.81 38.081 152.694 38.6166C153.604 39.1523 154.569 39.4201 155.586 39.4201C156.631 39.4201 157.609 39.1657 158.519 38.6568C159.43 38.1212 160.153 37.3712 160.689 36.4071C161.224 35.4161 161.492 34.2376 161.492 32.8717ZM179.198 26.3635V37.1302C179.198 37.8801 179.372 38.4292 179.721 38.7773C180.095 39.0987 180.711 39.2594 181.569 39.2594H184.18V44H180.645C175.904 44 173.534 41.6967 173.534 37.09V26.3635H170.882V21.7434H173.534V16.2395H179.198V21.7434H184.18V26.3635H179.198ZM191.078 19.0919C190.087 19.0919 189.256 18.7839 188.587 18.1679C187.944 17.5251 187.623 16.735 187.623 15.7976C187.623 14.8602 187.944 14.0835 188.587 13.4675C189.256 12.8247 190.087 12.5033 191.078 12.5033C192.069 12.5033 192.885 12.8247 193.528 13.4675C194.198 14.0835 194.533 14.8602 194.533 15.7976C194.533 16.735 194.198 17.5251 193.528 18.1679C192.885 18.7839 192.069 19.0919 191.078 19.0919ZM193.85 21.7434V44H188.225V21.7434H193.85ZM209.289 44.3616C207.147 44.3616 205.218 43.8929 203.504 42.9555C201.79 41.9913 200.438 40.6387 199.447 38.8979C198.483 37.157 198 35.1483 198 32.8717C198 30.5952 198.496 28.5864 199.487 26.8456C200.505 25.1047 201.884 23.7655 203.625 22.8281C205.366 21.8639 207.308 21.3818 209.45 21.3818C211.593 21.3818 213.535 21.8639 215.275 22.8281C217.016 23.7655 218.382 25.1047 219.373 26.8456C220.391 28.5864 220.9 30.5952 220.9 32.8717C220.9 35.1483 220.378 37.157 219.333 38.8979C218.315 40.6387 216.923 41.9913 215.155 42.9555C213.414 43.8929 211.459 44.3616 209.289 44.3616ZM209.289 39.4603C210.307 39.4603 211.258 39.2193 212.142 38.7372C213.052 38.2283 213.776 37.4784 214.311 36.4874C214.847 35.4964 215.115 34.2912 215.115 32.8717C215.115 30.7559 214.552 29.1355 213.427 28.0106C212.329 26.8589 210.977 26.2831 209.37 26.2831C207.763 26.2831 206.41 26.8589 205.312 28.0106C204.241 29.1355 203.705 30.7559 203.705 32.8717C203.705 34.9876 204.227 36.6213 205.272 37.773C206.343 38.8979 207.682 39.4603 209.289 39.4603ZM237.359 21.422C240.011 21.422 242.153 22.2657 243.787 23.953C245.421 25.6135 246.238 27.9437 246.238 30.9433V44H240.613V31.7067C240.613 29.939 240.171 28.5864 239.287 27.649C238.404 26.6849 237.198 26.2028 235.672 26.2028C234.118 26.2028 232.886 26.6849 231.976 27.649C231.092 28.5864 230.65 29.939 230.65 31.7067V44H225.026V21.7434H230.65V24.5154C231.4 23.5513 232.351 22.8013 233.502 22.2657C234.681 21.7032 235.966 21.422 237.359 21.422Z" fill="#363636"/>
<defs>
<linearGradient id="paint0_linear_87_120" x1="258" y1="35.0094" x2="258" y2="43.4094" gradientUnits="userSpaceOnUse">
<stop stop-color="#FF4E59"/>
<stop offset="1" stop-color="#FF56B6"/>
</linearGradient>
</defs>
</svg>
