<svg width="84" height="22" viewBox="0 0 84 22" fill="none" xmlns="http://www.w3.org/2000/svg">
<path d="M13.855 10.798L7.18164 6.94512" stroke="white" stroke-width="1.2" stroke-linecap="round" stroke-linejoin="round"/>
<path d="M10.6289 4.48411C10.7143 4.5334 10.7801 4.61072 10.815 4.70295C10.8499 4.79518 10.8519 4.89665 10.8205 4.99016C10.6956 5.36461 10.7038 5.77072 10.8438 6.1398C10.9838 6.50888 11.247 6.81827 11.5889 7.01564C11.9307 7.21301 12.3303 7.28625 12.7199 7.22296C13.1095 7.15966 13.4654 6.96373 13.7272 6.6683C13.7925 6.59441 13.8813 6.54537 13.9787 6.52951C14.076 6.51364 14.1758 6.53192 14.2612 6.58125L15.411 7.24506C15.5093 7.30183 15.5811 7.39533 15.6105 7.505C15.6398 7.61467 15.6245 7.73152 15.5677 7.82985L10.4305 16.7276C10.3738 16.826 10.2803 16.8977 10.1706 16.9271C10.0609 16.9565 9.94408 16.9411 9.84576 16.8843L8.69601 16.2205C8.61059 16.1712 8.54484 16.0939 8.50991 16.0017C8.47498 15.9095 8.47301 15.808 8.50435 15.7145C8.6293 15.34 8.62107 14.9339 8.48107 14.5648C8.34106 14.1957 8.07787 13.8864 7.73602 13.689C7.39416 13.4916 6.99462 13.4184 6.60499 13.4817C6.21535 13.545 5.85954 13.7409 5.59773 14.0363C5.53241 14.1102 5.44356 14.1593 5.34622 14.1751C5.24888 14.191 5.14905 14.1727 5.06365 14.1234L3.9139 13.4596C3.81557 13.4028 3.74382 13.3093 3.71443 13.1996C3.68505 13.09 3.70043 12.9731 3.7572 12.8748L8.89435 3.97699C8.95112 3.87866 9.04462 3.80692 9.15429 3.77753C9.26396 3.74814 9.38081 3.76353 9.47914 3.8203L10.6289 4.48411Z" stroke="white" stroke-width="1.2" stroke-linecap="round" stroke-linejoin="round"/>
<path d="M26.1723 15.9998L24.0581 12.2656H23.152V15.9998H21.23V6.41721H24.8269C25.5682 6.41721 26.1997 6.54992 26.7214 6.81534C27.2431 7.0716 27.6321 7.42397 27.8883 7.87244C28.1538 8.31175 28.2865 8.80598 28.2865 9.35512C28.2865 9.98664 28.1034 10.5587 27.7373 11.0712C27.3712 11.5746 26.8267 11.9224 26.1036 12.1146L28.3963 15.9998H26.1723ZM23.152 10.8241H24.7582C25.2799 10.8241 25.6689 10.7005 25.9252 10.4534C26.1814 10.1971 26.3096 9.84478 26.3096 9.39631C26.3096 8.957 26.1814 8.61836 25.9252 8.3804C25.6689 8.13328 25.2799 8.00972 24.7582 8.00972H23.152V10.8241ZM31.9469 7.96854V10.371H35.1731V11.8949H31.9469V14.4347H35.5849V15.9998H30.0249V6.40348H35.5849V7.96854H31.9469ZM44.0037 9.30021C43.784 8.89751 43.482 8.5909 43.0976 8.3804C42.7132 8.16989 42.2647 8.06464 41.7522 8.06464C41.1847 8.06464 40.6813 8.19277 40.242 8.44904C39.8027 8.70531 39.4595 9.0714 39.2124 9.54732C38.9653 10.0232 38.8417 10.5724 38.8417 11.1948C38.8417 11.8354 38.9653 12.3937 39.2124 12.8696C39.4687 13.3456 39.821 13.7117 40.2695 13.9679C40.718 14.2242 41.2396 14.3523 41.8345 14.3523C42.5667 14.3523 43.1662 14.1601 43.633 13.7757C44.0998 13.3822 44.4064 12.8376 44.5528 12.142H41.2579V10.6731H46.4473V12.348C46.3192 13.0161 46.0446 13.6339 45.6236 14.2013C45.2026 14.7688 44.6581 15.2264 43.9899 15.5742C43.331 15.9128 42.5896 16.0821 41.7659 16.0821C40.8415 16.0821 40.0041 15.8762 39.2536 15.4643C38.5122 15.0433 37.9265 14.4622 37.4963 13.7208C37.0753 12.9795 36.8648 12.1374 36.8648 11.1948C36.8648 10.2521 37.0753 9.41004 37.4963 8.6687C37.9265 7.9182 38.5122 7.33702 39.2536 6.92517C40.0041 6.50416 40.8369 6.29365 41.7522 6.29365C42.8322 6.29365 43.7703 6.55907 44.5665 7.08991C45.3628 7.6116 45.9119 8.34836 46.214 9.30021H44.0037ZM49.7913 6.41721V15.9998H47.8693V6.41721H49.7913ZM54.9989 16.0959C54.3307 16.0959 53.7267 15.9815 53.1867 15.7526C52.6558 15.5238 52.2348 15.1943 51.9237 14.7642C51.6125 14.334 51.4523 13.8261 51.4432 13.2403H53.5024C53.5299 13.6339 53.6672 13.945 53.9143 14.1739C54.1706 14.4027 54.5184 14.5171 54.9577 14.5171C55.4061 14.5171 55.7585 14.4118 56.0148 14.2013C56.271 13.9817 56.3992 13.6979 56.3992 13.3501C56.3992 13.0664 56.3122 12.833 56.1383 12.65C55.9644 12.4669 55.7448 12.3251 55.4794 12.2244C55.2231 12.1146 54.8661 11.9956 54.4085 11.8675C53.7862 11.6844 53.2782 11.5059 52.8847 11.332C52.5003 11.149 52.1662 10.879 51.8825 10.5221C51.6079 10.156 51.4706 9.67088 51.4706 9.06682C51.4706 8.49938 51.6125 8.00515 51.8962 7.58414C52.1799 7.16313 52.578 6.84279 53.0906 6.62314C53.6031 6.39433 54.1889 6.27992 54.8478 6.27992C55.8363 6.27992 56.6371 6.52246 57.2503 7.00754C57.8727 7.48346 58.2159 8.15159 58.28 9.01191H56.1658C56.1475 8.68242 56.0056 8.41243 55.7402 8.20192C55.4839 7.98227 55.1407 7.87244 54.7106 7.87244C54.3353 7.87244 54.0333 7.96854 53.8045 8.16074C53.5848 8.35294 53.475 8.63209 53.475 8.99818C53.475 9.25445 53.5574 9.46953 53.7221 9.64342C53.896 9.80817 54.1065 9.94545 54.3536 10.0553C54.6099 10.156 54.9668 10.2749 55.4244 10.4122C56.0468 10.5953 56.5548 10.7783 56.9483 10.9614C57.3419 11.1444 57.6805 11.419 57.9642 11.7851C58.248 12.1512 58.3898 12.6317 58.3898 13.2266C58.3898 13.7391 58.2571 14.215 57.9917 14.6544C57.7263 15.0937 57.3373 15.446 56.8248 15.7115C56.3122 15.9677 55.7036 16.0959 54.9989 16.0959ZM66.5772 6.41721V7.96854H64.0237V15.9998H62.1017V7.96854H59.5482V6.41721H66.5772ZM69.9015 7.96854V10.371H73.1278V11.8949H69.9015V14.4347H73.5396V15.9998H67.9795V6.40348H73.5396V7.96854H69.9015ZM80.2285 15.9998L78.1143 12.2656H77.2083V15.9998H75.2863V6.41721H78.8831C79.6245 6.41721 80.256 6.54992 80.7777 6.81534C81.2994 7.0716 81.6884 7.42397 81.9446 7.87244C82.21 8.31175 82.3427 8.80598 82.3427 9.35512C82.3427 9.98664 82.1597 10.5587 81.7936 11.0712C81.4275 11.5746 80.8829 11.9224 80.1599 12.1146L82.4526 15.9998H80.2285ZM77.2083 10.8241H78.8145C79.3362 10.8241 79.7252 10.7005 79.9814 10.4534C80.2377 10.1971 80.3658 9.84478 80.3658 9.39631C80.3658 8.957 80.2377 8.61836 79.9814 8.3804C79.7252 8.13328 79.3362 8.00972 78.8145 8.00972H77.2083V10.8241Z" fill="white"/>
</svg>
