<svg width="270" height="73" viewBox="0 0 270 73" fill="none" xmlns="http://www.w3.org/2000/svg">
<path d="M15.1524 54.3422C12.7737 54.3422 10.623 53.9348 8.70042 53.1202C6.81044 52.3055 5.31149 51.1324 4.20357 49.6009C3.09566 48.0694 2.5254 46.2609 2.49282 44.1754H9.82463C9.92239 45.5766 10.4112 46.6845 11.291 47.4991C12.2034 48.3138 13.4417 48.7211 15.0058 48.7211C16.6025 48.7211 17.857 48.3464 18.7694 47.5969C19.6819 46.8148 20.1381 45.8047 20.1381 44.5664C20.1381 43.5562 19.8285 42.7253 19.2094 42.0736C18.5902 41.4219 17.8082 40.9168 16.8632 40.5583C15.9508 40.1673 14.6799 39.7437 13.0506 39.2875C10.8348 38.6358 9.02628 38.0003 7.62509 37.3812C6.25648 36.7295 5.0671 35.7682 4.05694 34.4974C3.07936 33.1939 2.59058 31.4669 2.59058 29.3162C2.59058 27.2959 3.09566 25.5363 4.10582 24.0373C5.11598 22.5384 6.53346 21.3979 8.35827 20.6158C10.1831 19.8012 12.2686 19.3938 14.6148 19.3938C18.134 19.3938 20.9853 20.2574 23.1685 21.9844C25.3844 23.6789 26.6063 26.0576 26.8344 29.1207H19.3071C19.2419 27.9476 18.7369 26.9863 17.7919 26.2369C16.8795 25.4548 15.6575 25.0638 14.126 25.0638C12.7899 25.0638 11.7146 25.4059 10.9 26.0902C10.1179 26.7745 9.72688 27.7684 9.72688 29.0718C9.72688 29.9842 10.0201 30.75 10.6067 31.3691C11.2258 31.9557 11.9753 32.4445 12.8551 32.8355C13.7675 33.1939 15.0384 33.6176 16.6677 34.1063C18.8835 34.7581 20.692 35.4098 22.0932 36.0615C23.4944 36.7132 24.7001 37.6908 25.7102 38.9942C26.7204 40.2976 27.2255 42.0084 27.2255 44.1265C27.2255 45.9513 26.753 47.6458 25.808 49.2099C24.863 50.774 23.4781 52.0286 21.6533 52.9735C19.8285 53.8859 17.6615 54.3422 15.1524 54.3422ZM58.3307 39.874C58.3307 40.8516 58.2655 41.7314 58.1352 42.5135H38.3393C38.5022 44.4686 39.1865 46.0002 40.3922 47.1081C41.5979 48.216 43.0805 48.77 44.8402 48.77C47.3819 48.77 49.1904 47.6783 50.2657 45.4951H57.6464C56.8643 48.102 55.3654 50.2526 53.1496 51.9471C50.9337 53.609 48.2128 54.4399 44.9868 54.4399C42.3799 54.4399 40.0338 53.8697 37.9483 52.7292C35.8953 51.5561 34.2823 49.9105 33.1093 47.7924C31.9688 45.6743 31.3985 43.2304 31.3985 40.4606C31.3985 37.6582 31.9688 35.198 33.1093 33.0799C34.2498 30.9618 35.8465 29.3325 37.8994 28.192C39.9523 27.0515 42.3148 26.4812 44.9868 26.4812C47.5611 26.4812 49.8584 27.0352 51.8787 28.1431C53.9316 29.251 55.512 30.8315 56.6199 32.8844C57.7605 34.9047 58.3307 37.2346 58.3307 39.874ZM51.2433 37.9189C51.2107 36.1592 50.5753 34.7581 49.337 33.7153C48.0987 32.64 46.5835 32.1023 44.7913 32.1023C43.0968 32.1023 41.663 32.6237 40.49 33.6664C39.3494 34.6766 38.6489 36.0941 38.3882 37.9189H51.2433ZM88.4981 39.874C88.4981 40.8516 88.4329 41.7314 88.3026 42.5135H68.5067C68.6696 44.4686 69.3539 46.0002 70.5596 47.1081C71.7652 48.216 73.2479 48.77 75.0075 48.77C77.5492 48.77 79.3577 47.6783 80.4331 45.4951H87.8138C87.0317 48.102 85.5328 50.2526 83.3169 51.9471C81.1011 53.609 78.3802 54.4399 75.1542 54.4399C72.5473 54.4399 70.2011 53.8697 68.1156 52.7292C66.0627 51.5561 64.4497 49.9105 63.2766 47.7924C62.1361 45.6743 61.5659 43.2304 61.5659 40.4606C61.5659 37.6582 62.1361 35.198 63.2766 33.0799C64.4171 30.9618 66.0138 29.3325 68.0667 28.192C70.1197 27.0515 72.4821 26.4812 75.1542 26.4812C77.7285 26.4812 80.0258 27.0352 82.0461 28.1431C84.099 29.251 85.6794 30.8315 86.7873 32.8844C87.9278 34.9047 88.4981 37.2346 88.4981 39.874ZM81.4107 37.9189C81.3781 36.1592 80.7426 34.7581 79.5044 33.7153C78.2661 32.64 76.7509 32.1023 74.9587 32.1023C73.2642 32.1023 71.8304 32.6237 70.6573 33.6664C69.5168 34.6766 68.8162 36.0941 68.5555 37.9189H81.4107ZM142.337 19.8826V54H135.493V31.809L126.353 54H121.172L111.983 31.809V54H105.14V19.8826H112.911L123.763 45.2507L134.614 19.8826H142.337ZM161.126 54.4399C158.519 54.4399 156.173 53.8697 154.088 52.7292C152.002 51.5561 150.357 49.9105 149.151 47.7924C147.978 45.6743 147.391 43.2304 147.391 40.4606C147.391 37.6908 147.994 35.2468 149.2 33.1288C150.438 31.0107 152.116 29.3814 154.234 28.2409C156.352 27.0678 158.715 26.4812 161.322 26.4812C163.929 26.4812 166.291 27.0678 168.409 28.2409C170.527 29.3814 172.189 31.0107 173.395 33.1288C174.633 35.2468 175.252 37.6908 175.252 40.4606C175.252 43.2304 174.617 45.6743 173.346 47.7924C172.108 49.9105 170.413 51.5561 168.263 52.7292C166.144 53.8697 163.766 54.4399 161.126 54.4399ZM161.126 48.4767C162.364 48.4767 163.521 48.1834 164.597 47.5969C165.705 46.9777 166.584 46.0653 167.236 44.8597C167.888 43.654 168.214 42.1876 168.214 40.4606C168.214 37.8863 167.529 35.9149 166.161 34.5462C164.825 33.1451 163.179 32.4445 161.224 32.4445C159.269 32.4445 157.623 33.1451 156.287 34.5462C154.984 35.9149 154.332 37.8863 154.332 40.4606C154.332 43.0349 154.967 45.0226 156.238 46.4238C157.542 47.7924 159.171 48.4767 161.126 48.4767ZM187.115 31.1247C187.995 29.691 189.135 28.5667 190.536 27.7521C191.97 26.9375 193.599 26.5301 195.424 26.5301V33.7153H193.616C191.465 33.7153 189.836 34.2204 188.728 35.2306C187.652 36.2407 187.115 38.0003 187.115 40.5095V54H180.272V26.9212H187.115V31.1247ZM225.206 39.874C225.206 40.8516 225.141 41.7314 225.01 42.5135H205.214C205.377 44.4686 206.062 46.0002 207.267 47.1081C208.473 48.216 209.956 48.77 211.715 48.77C214.257 48.77 216.066 47.6783 217.141 45.4951H224.522C223.74 48.102 222.241 50.2526 220.025 51.9471C217.809 53.609 215.088 54.4399 211.862 54.4399C209.255 54.4399 206.909 53.8697 204.823 52.7292C202.771 51.5561 201.158 49.9105 199.984 47.7924C198.844 45.6743 198.274 43.2304 198.274 40.4606C198.274 37.6582 198.844 35.198 199.984 33.0799C201.125 30.9618 202.722 29.3325 204.775 28.192C206.827 27.0515 209.19 26.4812 211.862 26.4812C214.436 26.4812 216.734 27.0352 218.754 28.1431C220.807 29.251 222.387 30.8315 223.495 32.8844C224.636 34.9047 225.206 37.2346 225.206 39.874ZM218.118 37.9189C218.086 36.1592 217.45 34.7581 216.212 33.7153C214.974 32.64 213.459 32.1023 211.666 32.1023C209.972 32.1023 208.538 32.6237 207.365 33.6664C206.225 34.6766 205.524 36.0941 205.263 37.9189H218.118Z" fill="url(#paint0_linear_130_395)"/>
<path d="M248 55.5C257.113 55.5 264.5 48.1127 264.5 39C264.5 29.8873 257.113 22.5 248 22.5C238.887 22.5 231.5 29.8873 231.5 39C231.5 48.1127 238.887 55.5 248 55.5Z" stroke="url(#paint1_linear_130_395)" stroke-width="3.57811" stroke-miterlimit="10"/>
<path d="M242.166 40.0414L248 45.875L253.833 40.0414" stroke="url(#paint2_linear_130_395)" stroke-width="3.57811" stroke-linecap="round" stroke-linejoin="round"/>
<path d="M248 32.125V45.875" stroke="url(#paint3_linear_130_395)" stroke-width="3.57811" stroke-linecap="round" stroke-linejoin="round"/>
<defs>
<linearGradient id="paint0_linear_130_395" x1="113.5" y1="0" x2="113.5" y2="73" gradientUnits="userSpaceOnUse">
<stop stop-color="#FF1F92"/>
<stop offset="1" stop-color="#FF9585"/>
</linearGradient>
<linearGradient id="paint1_linear_130_395" x1="248" y1="22.5" x2="248" y2="55.5" gradientUnits="userSpaceOnUse">
<stop stop-color="#FF1F92"/>
<stop offset="1" stop-color="#FF9585"/>
</linearGradient>
<linearGradient id="paint2_linear_130_395" x1="248" y1="40.0414" x2="248" y2="45.875" gradientUnits="userSpaceOnUse">
<stop stop-color="#FF1F92"/>
<stop offset="1" stop-color="#FF9585"/>
</linearGradient>
<linearGradient id="paint3_linear_130_395" x1="248.5" y1="32.125" x2="248.5" y2="45.875" gradientUnits="userSpaceOnUse">
<stop stop-color="#FF1F92"/>
<stop offset="1" stop-color="#FF9585"/>
</linearGradient>
</defs>
</svg>
