<svg width="263" height="50" viewBox="0 0 263 50" fill="none" xmlns="http://www.w3.org/2000/svg">
<circle cx="258" cy="32.0078" r="5" fill="url(#paint0_linear_135_1069)"/>
<path d="M10.6821 37.2344C9.05279 37.2344 7.57973 36.9554 6.2629 36.3974C4.9684 35.8394 3.94172 35.0359 3.18287 33.9869C2.42402 32.9379 2.03344 31.6992 2.01112 30.2708H7.03291C7.09987 31.2305 7.43466 31.9894 8.03727 32.5473C8.6622 33.1053 9.51033 33.3843 10.5816 33.3843C11.6753 33.3843 12.5346 33.1276 13.1595 32.6143C13.7844 32.0786 14.0969 31.3868 14.0969 30.5386C14.0969 29.8467 13.8849 29.2776 13.4608 28.8312C13.0367 28.3848 12.5011 28.0389 11.8538 27.7934C11.2289 27.5256 10.3585 27.2354 9.2425 26.9229C7.7248 26.4766 6.48609 26.0413 5.52637 25.6173C4.58897 25.1709 3.77433 24.5125 3.08244 23.642C2.41286 22.7493 2.07808 21.5664 2.07808 20.0933C2.07808 18.7095 2.42402 17.5043 3.11591 16.4776C3.80781 15.4509 4.77869 14.6698 6.02855 14.1341C7.27842 13.5761 8.70684 13.2971 10.3138 13.2971C12.7243 13.2971 14.6772 13.8886 16.1726 15.0715C17.6903 16.2321 18.5272 17.8614 18.6835 19.9594H13.5278C13.4831 19.1559 13.1372 18.4975 12.4899 17.9841C11.865 17.4485 11.028 17.1807 9.97903 17.1807C9.06395 17.1807 8.32742 17.415 7.76944 17.8837C7.23378 18.3524 6.96596 19.0331 6.96596 19.9259C6.96596 20.5508 7.16683 21.0753 7.56857 21.4994C7.99263 21.9011 8.50597 22.2359 9.10859 22.5038C9.73352 22.7493 10.604 23.0394 11.7199 23.3742C13.2376 23.8206 14.4763 24.267 15.436 24.7133C16.3958 25.1597 17.2216 25.8293 17.9135 26.7221C18.6054 27.6148 18.9513 28.7866 18.9513 30.2373C18.9513 31.4872 18.6277 32.6478 17.9804 33.7191C17.3332 34.7904 16.3846 35.6497 15.1347 36.2969C13.8849 36.9219 12.4006 37.2344 10.6821 37.2344ZM33.2927 18.185C35.5023 18.185 37.2878 18.8881 38.6493 20.2942C40.0107 21.678 40.6915 23.6197 40.6915 26.1195V37H36.0045V26.7555C36.0045 25.2825 35.6362 24.1554 34.8997 23.3742C34.1631 22.5707 33.1588 22.169 31.8866 22.169C30.5921 22.169 29.5654 22.5707 28.8066 23.3742C28.07 24.1554 27.7018 25.2825 27.7018 26.7555V37H23.0148V18.4528H27.7018V20.7629C28.3267 19.9594 29.119 19.3345 30.0787 18.8881C31.0608 18.4194 32.1321 18.185 33.2927 18.185ZM62.3901 27.3247C62.3901 27.9943 62.3454 28.5969 62.2561 29.1325H48.6973C48.8089 30.4717 49.2776 31.5207 50.1034 32.2795C50.9292 33.0384 51.9447 33.4178 53.15 33.4178C54.8908 33.4178 56.1296 32.6701 56.8661 31.1747H61.9214C61.3857 32.9602 60.359 34.4333 58.8413 35.5939C57.3236 36.7322 55.46 37.3013 53.2504 37.3013C51.4649 37.3013 49.8579 36.9107 48.4295 36.1296C47.0234 35.3261 45.9186 34.199 45.1151 32.7482C44.3339 31.2975 43.9433 29.6235 43.9433 27.7264C43.9433 25.807 44.3339 24.1219 45.1151 22.6712C45.8963 21.2204 46.9899 20.1045 48.396 19.3233C49.8021 18.5421 51.4202 18.1515 53.2504 18.1515C55.0136 18.1515 56.5871 18.531 57.9709 19.2898C59.377 20.0487 60.4595 21.1311 61.2183 22.5372C61.9995 23.921 62.3901 25.5168 62.3901 27.3247ZM57.5357 25.9855C57.5133 24.7803 57.0781 23.8206 56.23 23.1064C55.3819 22.3698 54.344 22.0016 53.1165 22.0016C51.9559 22.0016 50.9738 22.3587 50.1704 23.0729C49.3892 23.7648 48.9093 24.7357 48.7308 25.9855H57.5357ZM64.6059 27.6595C64.6059 25.7847 64.9742 24.1219 65.7107 22.6712C66.4696 21.2204 67.4851 20.1045 68.7573 19.3233C70.0518 18.5421 71.4914 18.1515 73.076 18.1515C74.4598 18.1515 75.665 18.4305 76.6917 18.9885C77.7407 19.5465 78.5777 20.2495 79.2026 21.0977V18.4528H83.9231V37H79.2026V34.2882C78.6 35.1587 77.763 35.884 76.6917 36.4643C75.6427 37.0223 74.4263 37.3013 73.0425 37.3013C71.4802 37.3013 70.0518 36.8996 68.7573 36.0961C67.4851 35.2926 66.4696 34.1655 65.7107 32.7147C64.9742 31.2417 64.6059 29.5566 64.6059 27.6595ZM79.2026 27.7264C79.2026 26.5882 78.9794 25.6173 78.533 24.8138C78.0866 23.988 77.484 23.363 76.7252 22.939C75.9663 22.4926 75.1517 22.2694 74.2812 22.2694C73.4108 22.2694 72.6073 22.4814 71.8708 22.9055C71.1343 23.3296 70.5316 23.9545 70.0629 24.7803C69.6166 25.5838 69.3934 26.5435 69.3934 27.6595C69.3934 28.7754 69.6166 29.7575 70.0629 30.6056C70.5316 31.4314 71.1343 32.0675 71.8708 32.5139C72.6296 32.9602 73.4331 33.1834 74.2812 33.1834C75.1517 33.1834 75.9663 32.9714 76.7252 32.5473C77.484 32.101 78.0866 31.476 78.533 30.6725C78.9794 29.8467 79.2026 28.8647 79.2026 27.7264ZM99.4817 37L93.1878 29.099V37H88.5008V12.2258H93.1878V26.3203L99.4148 18.4528H105.508L97.3391 27.7599L105.575 37H99.4817ZM133.07 20.8633C133.07 22.1132 132.768 23.2849 132.166 24.3786C131.585 25.4722 130.659 26.3538 129.387 27.0234C128.137 27.6929 126.553 28.0277 124.633 28.0277H120.716V37H116.029V13.6319H124.633C126.441 13.6319 127.981 13.9444 129.253 14.5693C130.525 15.1943 131.474 16.0535 132.099 17.1472C132.746 18.2408 133.07 19.4795 133.07 20.8633ZM124.432 24.2446C125.727 24.2446 126.686 23.9545 127.311 23.3742C127.936 22.7716 128.249 21.9346 128.249 20.8633C128.249 18.5868 126.977 17.4485 124.432 17.4485H120.716V24.2446H124.432ZM153.639 27.3247C153.639 27.9943 153.594 28.5969 153.505 29.1325H139.946C140.058 30.4717 140.526 31.5207 141.352 32.2795C142.178 33.0384 143.194 33.4178 144.399 33.4178C146.14 33.4178 147.378 32.6701 148.115 31.1747H153.17C152.635 32.9602 151.608 34.4333 150.09 35.5939C148.572 36.7322 146.709 37.3013 144.499 37.3013C142.714 37.3013 141.107 36.9107 139.678 36.1296C138.272 35.3261 137.167 34.199 136.364 32.7482C135.583 31.2975 135.192 29.6235 135.192 27.7264C135.192 25.807 135.583 24.1219 136.364 22.6712C137.145 21.2204 138.239 20.1045 139.645 19.3233C141.051 18.5421 142.669 18.1515 144.499 18.1515C146.262 18.1515 147.836 18.531 149.22 19.2898C150.626 20.0487 151.708 21.1311 152.467 22.5372C153.248 23.921 153.639 25.5168 153.639 27.3247ZM148.784 25.9855C148.762 24.7803 148.327 23.8206 147.479 23.1064C146.631 22.3698 145.593 22.0016 144.365 22.0016C143.205 22.0016 142.223 22.3587 141.419 23.0729C140.638 23.7648 140.158 24.7357 139.98 25.9855H148.784ZM155.855 27.6595C155.855 25.7847 156.223 24.1219 156.96 22.6712C157.718 21.2204 158.734 20.1045 160.006 19.3233C161.301 18.5421 162.74 18.1515 164.325 18.1515C165.709 18.1515 166.914 18.4305 167.941 18.9885C168.99 19.5465 169.826 20.2495 170.451 21.0977V18.4528H175.172V37H170.451V34.2882C169.849 35.1587 169.012 35.884 167.941 36.4643C166.892 37.0223 165.675 37.3013 164.291 37.3013C162.729 37.3013 161.301 36.8996 160.006 36.0961C158.734 35.2926 157.718 34.1655 156.96 32.7147C156.223 31.2417 155.855 29.5566 155.855 27.6595ZM170.451 27.7264C170.451 26.5882 170.228 25.6173 169.782 24.8138C169.335 23.988 168.733 23.363 167.974 22.939C167.215 22.4926 166.401 22.2694 165.53 22.2694C164.66 22.2694 163.856 22.4814 163.12 22.9055C162.383 23.3296 161.78 23.9545 161.312 24.7803C160.865 25.5838 160.642 26.5435 160.642 27.6595C160.642 28.7754 160.865 29.7575 161.312 30.6056C161.78 31.4314 162.383 32.0675 163.12 32.5139C163.878 32.9602 164.682 33.1834 165.53 33.1834C166.401 33.1834 167.215 32.9714 167.974 32.5473C168.733 32.101 169.335 31.476 169.782 30.6725C170.228 29.8467 170.451 28.8647 170.451 27.7264ZM190.731 37L184.437 29.099V37H179.75V12.2258H184.437V26.3203L190.664 18.4528H196.757L188.588 27.7599L196.824 37H190.731ZM210.961 22.0685H206.006L209.621 13.6319H212.869L210.961 22.0685ZM217.435 31.7104C219.578 29.9249 221.285 28.4406 222.557 27.2577C223.829 26.0525 224.89 24.8026 225.738 23.5081C226.586 22.2136 227.01 20.9414 227.01 19.6916C227.01 18.5533 226.742 17.6605 226.206 17.0133C225.671 16.366 224.845 16.0424 223.729 16.0424C222.613 16.0424 221.754 16.4218 221.151 17.1807C220.549 17.9172 220.236 18.9327 220.214 20.2272H215.661C215.75 17.5489 216.542 15.5179 218.038 14.1341C219.555 12.7503 221.475 12.0584 223.796 12.0584C226.34 12.0584 228.293 12.7392 229.655 14.1006C231.016 15.4398 231.697 17.2141 231.697 19.4237C231.697 21.1646 231.228 22.8274 230.291 24.412C229.353 25.9967 228.282 27.3805 227.077 28.5634C225.872 29.724 224.298 31.1301 222.356 32.7817H232.233V36.6652H215.694V33.1834L217.435 31.7104ZM236.659 31.7104C238.802 29.9249 240.509 28.4406 241.781 27.2577C243.053 26.0525 244.114 24.8026 244.962 23.5081C245.81 22.2136 246.234 20.9414 246.234 19.6916C246.234 18.5533 245.966 17.6605 245.43 17.0133C244.895 16.366 244.069 16.0424 242.953 16.0424C241.837 16.0424 240.978 16.4218 240.375 17.1807C239.773 17.9172 239.46 18.9327 239.438 20.2272H234.885C234.974 17.5489 235.766 15.5179 237.262 14.1341C238.779 12.7503 240.699 12.0584 243.02 12.0584C245.564 12.0584 247.517 12.7392 248.879 14.1006C250.24 15.4398 250.921 17.2141 250.921 19.4237C250.921 21.1646 250.452 22.8274 249.515 24.412C248.577 25.9967 247.506 27.3805 246.301 28.5634C245.096 29.724 243.522 31.1301 241.58 32.7817H251.457V36.6652H234.918V33.1834L236.659 31.7104Z" fill="#363636"/>
<defs>
<linearGradient id="paint0_linear_135_1069" x1="258" y1="30.0078" x2="258" y2="37.0078" gradientUnits="userSpaceOnUse">
<stop stop-color="#FF4E59"/>
<stop offset="1" stop-color="#FF56B6"/>
</linearGradient>
</defs>
</svg>
