<svg width="20" height="20" viewBox="0 0 20 20" fill="none" xmlns="http://www.w3.org/2000/svg">
<path d="M13.855 10.798L7.18164 6.94512" stroke="white" stroke-width="1.2" stroke-linecap="round" stroke-linejoin="round"/>
<path d="M10.6289 4.48411C10.7143 4.5334 10.7801 4.61072 10.815 4.70295C10.8499 4.79518 10.8519 4.89665 10.8205 4.99016C10.6956 5.36461 10.7038 5.77072 10.8438 6.1398C10.9838 6.50888 11.247 6.81827 11.5889 7.01564C11.9307 7.21301 12.3303 7.28625 12.7199 7.22296C13.1095 7.15966 13.4654 6.96373 13.7272 6.6683C13.7925 6.59441 13.8813 6.54537 13.9787 6.52951C14.076 6.51364 14.1758 6.53192 14.2612 6.58125L15.411 7.24506C15.5093 7.30183 15.5811 7.39533 15.6105 7.505C15.6398 7.61467 15.6245 7.73152 15.5677 7.82985L10.4305 16.7276C10.3738 16.826 10.2803 16.8977 10.1706 16.9271C10.0609 16.9565 9.94408 16.9411 9.84576 16.8843L8.69601 16.2205C8.61059 16.1712 8.54484 16.0939 8.50991 16.0017C8.47498 15.9095 8.47301 15.808 8.50435 15.7145C8.6293 15.34 8.62107 14.9339 8.48107 14.5648C8.34106 14.1957 8.07787 13.8864 7.73602 13.689C7.39416 13.4916 6.99462 13.4184 6.60499 13.4817C6.21535 13.545 5.85954 13.7409 5.59773 14.0363C5.53241 14.1102 5.44356 14.1593 5.34622 14.1751C5.24888 14.191 5.14905 14.1727 5.06365 14.1234L3.9139 13.4596C3.81557 13.4028 3.74382 13.3093 3.71443 13.1996C3.68505 13.09 3.70043 12.9731 3.7572 12.8748L8.89435 3.97699C8.95112 3.87866 9.04462 3.80692 9.15429 3.77753C9.26396 3.74814 9.38081 3.76353 9.47914 3.8203L10.6289 4.48411Z" stroke="white" stroke-width="1.2" stroke-linecap="round" stroke-linejoin="round"/>
</svg>
