<svg width="515" height="182" viewBox="0 0 515 182" fill="none" xmlns="http://www.w3.org/2000/svg">
<path d="M60.8998 47.8276C60.8998 48.0092 58.6299 52.8668 54.0901 62.4005C52.5692 65.7146 50.2426 70.663 47.1101 77.2457C46.815 77.8586 46.5086 78.165 46.1908 78.165H40.062C39.6307 78.165 39.2789 77.8586 39.0065 77.2457C37.3268 73.2961 34.9093 67.0765 31.7541 58.587C30.1879 62.7637 27.7477 68.9832 24.4336 77.2457C24.1839 77.8586 23.8435 78.165 23.4122 78.165H17.3175C16.977 78.165 16.6592 77.8586 16.3641 77.2457C14.7978 73.9543 12.4485 69.0059 9.316 62.4005C4.98046 53.3662 2.81269 48.5086 2.81269 47.8276C2.81269 45.9663 2.86944 43.1629 2.98293 39.4176C3.09643 35.6722 3.15318 32.8689 3.15318 31.0075C3.15318 30.599 3.43692 30.3947 4.0044 30.3947C4.41298 30.3947 5.02586 30.4287 5.84303 30.4968C6.6829 30.5649 7.30712 30.599 7.71571 30.599C8.10159 30.599 8.68042 30.5763 9.45219 30.5309C10.224 30.4855 10.8028 30.4628 11.1887 30.4628C11.6654 30.4628 11.9037 30.633 11.9037 30.9735C11.9037 32.8121 11.7902 35.5928 11.5632 39.3154C11.3589 43.0154 11.2568 45.7847 11.2568 47.6233C11.2568 48.781 13.5494 54.0245 18.1346 63.3538C19.6555 66.4409 20.484 67.9845 20.6202 67.9845C20.6656 67.9618 20.7223 67.8823 20.7904 67.7461C21.0628 67.224 21.6416 65.7713 22.5269 63.3879C24.1612 58.9616 25.841 53.9337 27.5661 48.3043C27.6342 47.7368 27.6683 45.9436 27.6683 42.9246C27.6683 41.5854 27.6229 39.5878 27.5321 36.932C27.464 34.2535 27.4299 32.2446 27.4299 30.9054C27.4299 30.5649 27.6683 30.3947 28.1449 30.3947C28.5762 30.3947 29.2232 30.4287 30.0857 30.4968C30.9483 30.5649 31.6066 30.599 32.0606 30.599C32.4464 30.599 33.0253 30.5649 33.797 30.4968C34.5688 30.4287 35.1476 30.3947 35.5335 30.3947C36.0556 30.3947 36.3166 30.5763 36.3166 30.9394C36.3166 32.3695 36.2712 34.5259 36.1804 37.4087C36.0897 40.2688 36.0443 42.4139 36.0443 43.8439C36.0443 46.1819 36.0556 47.6006 36.0783 48.1C36.1464 49.235 37.8602 54.2174 41.2197 63.0474C41.5828 64.0462 42.173 65.4762 42.9902 67.3375C43.0129 67.4283 43.0583 67.5078 43.1264 67.5759C43.2626 67.5759 44.0684 66.0664 45.5438 63.0474C50.0156 53.8996 52.2514 48.7356 52.2514 47.5552C52.2514 45.6939 52.1493 42.9133 51.945 39.2133C51.7407 35.5133 51.6386 32.744 51.6386 30.9054C51.6386 30.5649 51.7294 30.3947 51.911 30.3947C52.3649 30.3947 53.0346 30.4287 53.9198 30.4968C54.8278 30.5649 55.5088 30.599 55.9628 30.599C56.3713 30.599 56.9956 30.5649 57.8354 30.4968C58.6753 30.4287 59.3109 30.3947 59.7422 30.3947C60.2189 30.3947 60.4912 30.5309 60.5593 30.8033C60.5593 30.7806 60.5593 31.0983 60.5593 31.7566C60.5593 33.5499 60.6161 36.2284 60.7296 39.7921C60.8431 43.3559 60.8998 46.0344 60.8998 47.8276ZM96.1743 76.9733C96.1743 77.8132 95.936 78.2331 95.4593 78.2331C94.7556 78.2331 93.6888 78.2218 92.2587 78.1991C90.8287 78.1764 89.7618 78.165 89.0581 78.165C88.4906 78.165 88.2069 77.7905 88.2069 77.0414C88.2069 75.9519 88.241 74.3062 88.3091 72.1044C88.3999 69.9025 88.4453 68.2455 88.4453 67.1332C88.4453 66.0891 88.3999 64.5115 88.3091 62.4005C88.241 60.2668 88.2069 58.6665 88.2069 57.5996C88.2069 53.5138 86.2775 51.4708 82.4186 51.4708C81.1702 51.4708 79.5358 52.0951 77.5156 53.3435C75.3592 54.6828 74.281 55.9085 74.281 57.0208V77.2457C74.281 77.904 74.0426 78.2331 73.566 78.2331C72.8623 78.2331 71.8068 78.2218 70.3994 78.1991C68.9921 78.1764 67.9366 78.165 67.2329 78.165C66.7108 78.165 66.4498 77.8586 66.4498 77.2457V60.8002C66.4498 58.1217 66.3022 52.4242 66.0071 43.7077C65.9617 41.0065 65.7688 37.0115 65.4283 31.7226C65.3829 31.4502 65.3602 31.2686 65.3602 31.1778C65.3602 30.7919 65.4964 30.5536 65.7688 30.4628C66.1547 30.3266 67.4372 30.2585 69.6163 30.2585C70.093 30.2585 70.808 30.179 71.7614 30.0201C72.7147 29.8385 73.4071 29.7477 73.8383 29.7477C74.1334 29.7477 74.281 29.9634 74.281 30.3947C74.281 32.5284 74.1902 35.7403 74.0086 40.0305C73.8497 44.2979 73.7702 47.4985 73.7702 49.6322C73.7702 50.1543 73.861 50.4267 74.0426 50.4494C75.2003 49.4733 76.6984 48.293 78.5371 46.9083C80.7616 45.5237 83.1109 44.8313 85.5852 44.8313C89.8526 44.8313 92.7921 46.1025 94.4038 48.6448C95.5614 50.5061 96.1403 53.457 96.1403 57.4975C96.1403 58.2011 96.1176 59.2907 96.0722 60.7661C96.0495 62.2189 96.0381 63.2971 96.0381 64.0008C96.0381 65.4535 96.0608 67.6213 96.1062 70.5041C96.1516 73.3869 96.1743 75.5433 96.1743 76.9733ZM111.598 37.4428C111.598 40.2348 110.043 41.6307 106.934 41.6307C103.779 41.6307 102.201 40.2348 102.201 37.4428C102.201 36.1943 102.689 35.1615 103.665 34.3443C104.573 33.5725 105.663 33.1867 106.934 33.1867C108.205 33.1867 109.294 33.5839 110.202 34.3784C111.133 35.1728 111.598 36.1943 111.598 37.4428ZM111.36 46.67C111.36 48.4178 111.247 51.0622 111.02 54.6033C110.815 58.1217 110.713 60.7661 110.713 62.5367C110.713 64.1937 110.747 66.6793 110.815 69.9933C110.883 73.2847 110.917 75.7476 110.917 77.3819C110.917 77.8586 110.713 78.0969 110.305 78.0969H103.665C103.188 78.0969 102.95 77.6316 102.95 76.7009C102.95 75.1347 102.984 72.7853 103.052 69.6529C103.143 66.4977 103.188 64.1256 103.188 62.5367C103.188 60.7661 103.052 58.1103 102.78 54.5693C102.53 51.0282 102.405 48.3724 102.405 46.6019C102.405 46.216 102.644 46.023 103.12 46.023C103.529 46.023 104.153 46.0798 104.993 46.1933C105.856 46.3068 106.502 46.3635 106.934 46.3635C107.365 46.3635 108.001 46.3068 108.84 46.1933C109.703 46.0798 110.35 46.023 110.781 46.023C111.167 46.023 111.36 46.2387 111.36 46.67ZM137.101 71.9001C137.101 72.3995 137.055 73.0804 136.965 73.943C136.851 75.0099 136.783 75.7022 136.76 76.02C136.738 76.4286 136.704 76.6782 136.658 76.769C136.567 76.9279 136.352 77.0868 136.011 77.2457C134.15 78.131 131.222 78.5736 127.227 78.5736C121.915 78.5736 119.259 76.1675 119.259 71.3553C119.259 69.4259 119.305 66.5317 119.396 62.6729C119.486 58.7913 119.532 55.8858 119.532 53.9564C119.532 53.0257 119.066 52.5263 118.136 52.4582C117.296 52.4582 116.467 52.4469 115.65 52.4242C115.174 52.3107 114.935 51.38 114.935 49.6322C114.935 48.9739 114.981 48.2816 115.071 47.5552C115.139 47.0104 115.503 46.6813 116.161 46.5678C116.728 46.5678 117.285 46.5565 117.829 46.5338C118.873 46.4884 119.396 46.023 119.396 45.1378C119.396 44.2298 119.361 42.8452 119.293 40.9838C119.248 39.1225 119.225 37.7265 119.225 36.7958C119.225 35.1388 119.543 34.3103 120.179 34.3103C120.383 34.3103 122.517 34.6621 126.58 35.3658C127.102 35.4339 127.363 35.6836 127.363 36.1149C127.363 37.1136 127.284 38.6118 127.125 40.6093C126.988 42.6068 126.92 44.105 126.92 45.1037C126.92 45.762 127.227 46.0911 127.84 46.0911H136.011C136.397 46.0911 136.59 46.2273 136.59 46.4997C136.59 46.7721 136.545 47.2147 136.454 47.8276C136.386 48.4178 136.352 48.8604 136.352 49.1555C136.352 49.496 136.363 50.0181 136.386 50.7218C136.409 51.4254 136.42 51.9475 136.42 52.288C136.42 52.7193 136.102 52.9349 135.467 52.9349C134.559 52.9349 133.185 52.8782 131.347 52.7647C129.508 52.6285 128.135 52.5604 127.227 52.5604C127.045 52.5604 126.909 53.2073 126.818 54.5012C126.705 56.1128 126.648 58.3714 126.648 61.2769V66.3501C126.648 68.3023 126.83 69.6642 127.193 70.436C127.737 71.6163 128.861 72.2065 130.564 72.2065C131.267 72.2065 132.3 72.059 133.662 71.7639C135.024 71.4461 136.034 71.2872 136.692 71.2872C136.965 71.2872 137.101 71.4915 137.101 71.9001ZM170.809 59.8809C170.809 61.5606 170.083 62.6842 168.63 63.2517C167.654 63.6149 160.629 64.2845 147.554 65.2606C147.849 67.2581 148.95 68.9605 150.857 70.3679C152.673 71.7071 154.625 72.3768 156.713 72.3768C160.299 72.3768 163.591 71.2191 166.587 68.9038C166.95 68.6087 167.313 68.3136 167.677 68.0185C167.858 68.0185 167.972 68.0412 168.017 68.0866C168.085 68.132 168.517 68.9265 169.311 70.47C170.105 71.9909 170.503 72.808 170.503 72.9215C170.503 73.0577 170.321 73.3188 169.958 73.7047C166.621 77.2457 162.342 79.0163 157.122 79.0163C151.855 79.0163 147.656 77.45 144.524 74.3175C141.391 71.1623 139.825 66.963 139.825 61.7195C139.825 57.0435 141.323 52.969 144.319 49.496C147.474 45.8868 151.345 44.0823 155.93 44.0823C160.197 44.0823 163.761 45.6485 166.621 48.781C169.413 51.8227 170.809 55.5226 170.809 59.8809ZM162.706 57.8039C162.706 55.9199 161.956 54.2515 160.458 52.7987C158.983 51.346 157.314 50.6196 155.453 50.6196C153.365 50.6196 151.504 51.4595 149.869 53.1392C148.258 54.819 147.452 56.703 147.452 58.7913C147.452 59.268 147.86 59.5063 148.677 59.5063C152.037 59.5063 156.055 59.1658 160.731 58.4849C162.047 58.3033 162.706 58.0763 162.706 57.8039ZM229.918 77.8926C229.918 78.0742 229.736 78.165 229.373 78.165C228.942 78.165 228.283 78.131 227.398 78.0629C226.513 77.9948 225.855 77.9607 225.423 77.9607C224.947 77.9607 224.232 77.9948 223.278 78.0629C222.348 78.131 221.644 78.165 221.167 78.165C220.645 78.165 220.248 77.8813 219.976 77.3138C219.249 75.7703 217.184 70.9921 213.779 62.9793C213.438 62.1621 212.61 61.6628 211.293 61.4812C210.998 61.4585 209.965 61.4471 208.195 61.4471C205.062 61.4471 203.201 61.4925 202.611 61.5833C202.134 61.6514 201.896 62.2302 201.896 63.3198C201.896 64.9087 201.964 67.2921 202.1 70.47C202.259 73.6252 202.338 75.9859 202.338 77.5522C202.338 78.0288 202.111 78.2672 201.657 78.2672C201.203 78.2672 200.511 78.2218 199.58 78.131C198.672 78.0175 197.98 77.9607 197.503 77.9607C197.117 77.9607 196.527 77.9948 195.733 78.0629C194.938 78.131 194.348 78.165 193.962 78.165C193.395 78.165 193.111 77.904 193.111 77.3819C193.111 74.8623 193.225 71.0829 193.452 66.0437C193.701 60.9818 193.826 57.191 193.826 54.6714C193.826 47.4985 193.565 39.8489 193.043 31.7226L193.009 31.1778C192.986 30.7238 193.463 30.4968 194.439 30.4968C196.391 30.4968 199.308 30.4514 203.189 30.3606C207.094 30.2471 210.011 30.1904 211.94 30.1904C216.979 30.1904 221.02 31.3934 224.061 33.7995C227.421 36.4553 229.101 40.2234 229.101 45.1037C229.101 48.4632 228.647 51.1076 227.739 53.0371C226.785 55.08 225.015 57.0208 222.427 58.8594C221.996 59.1545 221.78 59.4382 221.78 59.7106C221.78 60.0284 223.131 63.0474 225.832 68.7676C228.556 74.4878 229.918 77.5295 229.918 77.8926ZM220.588 47.0104C220.588 42.9019 219.408 40.1553 217.047 38.7707C215.299 37.7492 212.156 37.2385 207.616 37.2385C203.939 37.2385 202.066 37.5336 201.998 38.1237C201.839 39.3495 201.759 42.6295 201.759 47.9638V54.4671C201.828 54.5125 201.975 54.5579 202.202 54.6033C202.611 54.6487 203.28 54.7055 204.211 54.7736C206.367 54.8871 208.694 54.9438 211.191 54.9438C217.456 54.9438 220.588 52.2994 220.588 47.0104ZM265.362 61.5833C265.362 66.3274 263.808 70.3792 260.698 73.7387C257.52 77.2117 253.582 78.9482 248.883 78.9482C244.161 78.9482 240.212 77.223 237.034 73.7728C233.924 70.436 232.369 66.3955 232.369 61.6514C232.369 56.9073 233.924 52.8668 237.034 49.5301C240.234 46.1252 244.184 44.4227 248.883 44.4227C253.559 44.4227 257.486 46.1252 260.664 49.5301C263.796 52.8441 265.362 56.8619 265.362 61.5833ZM258.178 61.6514C258.178 58.8821 257.327 56.5214 255.625 54.5693C253.854 52.5036 251.607 51.4708 248.883 51.4708C246.159 51.4708 243.9 52.4923 242.107 54.5352C240.405 56.51 239.554 58.8821 239.554 61.6514C239.554 64.3753 240.416 66.736 242.141 68.7335C243.957 70.8446 246.204 71.9001 248.883 71.9001C251.584 71.9001 253.831 70.8446 255.625 68.7335C257.327 66.736 258.178 64.3753 258.178 61.6514ZM293.963 47.2828C293.963 47.7822 293.702 48.8945 293.18 50.6196C292.658 52.3448 292.295 53.2073 292.091 53.2073C291.069 52.7533 290.036 52.2994 288.992 51.8454C287.971 51.3914 286.847 51.1644 285.621 51.1644C282.829 51.1644 280.503 52.1972 278.641 54.2628C276.78 56.3285 275.849 58.7686 275.849 61.5833C275.849 64.3526 276.78 66.7474 278.641 68.7676C280.548 70.8559 282.875 71.9001 285.621 71.9001C287.142 71.9001 288.64 71.5255 290.116 70.7765C291.591 70.0274 292.238 69.6529 292.057 69.6529C292.352 69.6529 292.681 70.6062 293.044 72.5129C293.385 74.2381 293.555 75.4298 293.555 76.0881C293.555 76.7917 292.227 77.4841 289.571 78.165C287.347 78.7325 285.701 79.0163 284.634 79.0163C279.958 79.0163 276.008 77.2684 272.785 73.7728C269.63 70.3679 268.052 66.3047 268.052 61.5833C268.052 56.7711 269.596 52.6852 272.683 49.3258C275.861 45.8755 279.822 44.1504 284.566 44.1504C287.744 44.1504 290.649 44.9562 293.282 46.5678C293.736 46.8402 293.963 47.0785 293.963 47.2828ZM331.723 54.8076C331.723 60.7094 328.988 64.659 323.518 66.6566C323.518 67.8142 324.653 69.9139 326.923 72.9556C329.192 75.9746 330.327 77.4841 330.327 77.4841C330.327 77.8246 329.192 78.0515 326.923 78.165C325.424 78.2331 324.301 78.2672 323.552 78.2672C321.94 78.2672 320.93 77.9267 320.521 77.2457C319.455 75.4298 317.775 72.7853 315.482 69.3124C315.21 68.9038 312.747 68.7335 308.094 68.8016L306.766 68.8357V77.2457C306.766 77.9494 306.516 78.3012 306.017 78.3012C305.29 78.3012 304.212 78.2899 302.782 78.2672C301.375 78.2445 300.308 78.2331 299.581 78.2331C299.082 78.2331 298.832 77.7905 298.832 76.9052V55.7269C298.832 52.9576 298.719 48.815 298.492 43.2991C298.288 37.7832 298.185 33.6406 298.185 30.8713C298.185 30.4628 298.401 30.2358 298.832 30.1904C299.581 30.1677 300.716 30.1223 302.237 30.0542C302.555 30.0315 303.225 29.952 304.246 29.8158C305.063 29.7023 305.722 29.6456 306.221 29.6456C306.539 29.6456 306.698 29.918 306.698 30.4628C306.698 31.6885 306.641 33.5158 306.527 35.9446C306.414 38.3734 306.357 40.2007 306.357 41.4265V50.211C306.357 50.6877 306.459 50.9261 306.664 50.9261C307.208 50.4721 308.026 49.8024 309.115 48.9172C312.929 45.9663 316.56 44.4908 320.011 44.4908C323.37 44.4908 326.117 45.3534 328.25 47.0785C330.566 48.9626 331.723 51.5389 331.723 54.8076ZM323.518 56.4079C323.518 53.1619 321.418 51.5389 317.219 51.5389C314.086 51.5389 310.556 53.6273 306.63 57.8039V62.8772C308.468 63.2176 310.693 63.3879 313.303 63.3879C315.936 63.3879 318.183 62.8885 320.045 61.8897C322.36 60.6413 323.518 58.814 323.518 56.4079Z" fill="white"/>
<path d="M1.16133 99.3203V96.4262H23.3994V99.3203H14.2488V126.942H10.3332V99.3203H1.16133ZM30.2066 126.942V96.4262H49.6569V99.2139H34.1222V108.897H47.0394V111.684H34.1222V124.155H49.6569V126.942H30.2066ZM60.2095 122.92C57.0884 119.785 55.5278 116.04 55.5278 111.684C55.5278 107.329 57.0884 103.591 60.2095 100.469C63.3306 97.3484 67.0689 95.7878 71.4243 95.7878C74.9711 95.7878 78.1986 96.8873 81.1069 99.0863L78.5745 101.619C76.3614 99.9304 73.978 99.0863 71.4243 99.0863C68.1187 99.0863 65.2955 100.321 62.9547 102.789C60.6138 105.258 59.4434 108.223 59.4434 111.684C59.4434 115.146 60.6138 118.111 62.9547 120.58C65.2955 123.048 68.1187 124.282 71.4243 124.282C74.0347 124.282 76.4181 123.452 78.5745 121.793L81.1069 124.325C78.1702 126.51 74.9427 127.602 71.4243 127.602C67.0689 127.602 63.3306 126.042 60.2095 122.92ZM89.3612 126.942V96.4262H93.2768V110.259H108.535V96.4262H112.472V126.942H108.535V113.131H93.2768V126.942H89.3612ZM122.152 126.942V96.4262H126.067L141.368 120.409V96.4262H145.284V126.942H141.368L126.067 102.938V126.942H122.152ZM157.454 122.963C154.488 119.856 153.006 116.096 153.006 111.684C153.006 107.272 154.488 103.52 157.454 100.427C160.419 97.3342 164.164 95.7878 168.69 95.7878C173.229 95.7878 177.053 97.3413 180.16 100.448C183.267 103.555 184.82 107.301 184.82 111.684C184.82 116.068 183.267 119.821 180.16 122.942C177.053 126.049 173.229 127.602 168.69 127.602C164.164 127.602 160.419 126.056 157.454 122.963ZM160.22 102.746C158.021 105.187 156.922 108.166 156.922 111.684C156.922 115.203 158.021 118.182 160.22 120.622C162.433 123.062 165.256 124.282 168.69 124.282C172.123 124.282 175.017 123.055 177.372 120.601C179.727 118.146 180.905 115.174 180.905 111.684C180.905 108.194 179.727 105.222 177.372 102.768C175.017 100.313 172.123 99.0863 168.69 99.0863C165.256 99.0863 162.433 100.306 160.22 102.746ZM192.968 126.942V96.4262H196.884V124.07H211.674V126.942H192.968ZM221.843 122.963C218.878 119.856 217.396 116.096 217.396 111.684C217.396 107.272 218.878 103.52 221.843 100.427C224.808 97.3342 228.554 95.7878 233.079 95.7878C237.619 95.7878 241.442 97.3413 244.549 100.448C247.656 103.555 249.21 107.301 249.21 111.684C249.21 116.068 247.656 119.821 244.549 122.942C241.442 126.049 237.619 127.602 233.079 127.602C228.554 127.602 224.808 126.056 221.843 122.963ZM224.61 102.746C222.411 105.187 221.311 108.166 221.311 111.684C221.311 115.203 222.411 118.182 224.61 120.622C226.823 123.062 229.646 124.282 233.079 124.282C236.512 124.282 239.407 123.055 241.762 120.601C244.117 118.146 245.294 115.174 245.294 111.684C245.294 108.194 244.117 105.222 241.762 102.768C239.407 100.313 236.512 99.0863 233.079 99.0863C229.646 99.0863 226.823 100.306 224.61 102.746ZM261.72 122.92C258.599 119.785 257.038 116.04 257.038 111.684C257.038 107.329 258.599 103.591 261.72 100.469C264.841 97.3484 268.58 95.7878 272.935 95.7878C276.482 95.7878 279.709 96.8873 282.618 99.0863L280.085 101.619C277.872 99.9304 275.489 99.0863 272.935 99.0863C269.629 99.0863 266.806 100.321 264.465 102.789C262.124 105.258 260.954 108.223 260.954 111.684C260.954 115.146 262.124 118.111 264.465 120.58C266.806 123.048 269.629 124.282 272.935 124.282C275.758 124.282 278.262 123.353 280.447 121.495V113.876H274.595V111.088H284.363V122.75C283.469 123.644 282.596 124.375 281.745 124.942C279.078 126.715 276.141 127.602 272.935 127.602C268.58 127.602 264.841 126.042 261.72 122.92ZM292.447 126.942V96.4262H296.362V126.942H292.447ZM306.468 126.942V96.4262H325.918V99.2139H310.383V108.897H323.301V111.684H310.383V124.155H325.918V126.942H306.468ZM332.768 103.406C332.768 101.165 333.733 99.3345 335.662 97.9158C337.592 96.4971 339.819 95.7878 342.344 95.7878C344.288 95.7878 346.224 96.2347 348.154 97.1285C348.792 97.4122 349.516 97.8662 350.324 98.4904L348.835 101.704C348.196 101.207 347.53 100.775 346.834 100.406C345.203 99.5402 343.706 99.1004 342.344 99.0863C340.869 99.0863 339.556 99.4693 338.407 100.235C337.258 100.987 336.684 102.044 336.684 103.406C336.684 103.959 336.79 104.47 337.003 104.938C337.23 105.407 337.613 105.846 338.152 106.258L339.386 107.215C339.67 107.428 340.209 107.74 341.003 108.152C341.812 108.563 342.259 108.797 342.344 108.854L344.366 109.961C345.345 110.5 346.011 110.89 346.366 111.131L347.962 112.195C348.686 112.677 349.196 113.117 349.494 113.514C349.792 113.897 350.126 114.373 350.495 114.94C350.878 115.508 351.14 116.125 351.282 116.792C351.424 117.458 351.495 118.196 351.495 119.005C351.495 121.445 350.48 123.488 348.452 125.134C346.423 126.779 344.096 127.602 341.472 127.602C339.287 127.602 337.18 126.992 335.151 125.772C334.258 125.247 333.463 124.623 332.768 123.899L334.279 120.622C335.088 121.346 335.889 121.956 336.684 122.452C338.542 123.672 340.138 124.282 341.472 124.282C343.16 124.282 344.6 123.793 345.792 122.814C346.983 121.821 347.579 120.551 347.579 119.005C347.579 117.643 347.068 116.423 346.047 115.345C345.04 114.266 343.805 113.358 342.344 112.621L337.982 110.344C336.535 109.563 335.3 108.592 334.279 107.428C333.272 106.251 332.768 104.91 332.768 103.406Z" fill="white"/>
<path d="M513.703 73.4868L513.703 82.6033C510.037 82.6033 507.143 83.6645 505.02 85.7869C502.898 87.9575 501.451 91.0204 500.679 94.9758C499.859 98.9793 499.353 103.923 499.16 109.808C498.967 115.693 499.015 122.398 499.305 129.923C499.305 145.454 489.923 152.859 471.159 152.135L471.159 138.822C473.619 138.822 475.548 138.701 476.947 138.46C478.298 138.267 479.769 137.785 481.361 137.013C482.953 136.241 484.134 134.915 484.906 133.034C485.63 131.153 485.991 128.62 485.991 125.437C485.991 118.105 486.233 111.834 486.715 106.625C487.197 101.415 488.066 96.4952 489.32 91.8646C490.526 87.2822 492.359 83.8333 494.819 81.518C497.23 79.2027 500.197 78.045 503.718 78.045C500.149 78.045 497.158 76.8874 494.746 74.5721C492.334 72.2567 490.526 68.7838 489.32 64.1531C488.066 59.5708 487.197 54.6507 486.715 49.393C486.233 44.1836 485.991 37.937 485.991 30.6534C485.991 27.4699 485.63 24.9375 484.906 23.0563C484.134 21.1751 482.953 19.8486 481.361 19.0769C479.769 18.3051 478.298 17.8227 476.947 17.6298C475.548 17.3886 473.619 17.268 471.159 17.268L471.159 3.95497C489.923 3.27967 499.304 10.6839 499.304 26.1675C499.015 33.6923 498.967 40.3971 499.16 46.2818C499.353 52.1666 499.859 57.0866 500.679 61.0419C501.451 65.0455 502.898 68.1085 505.02 70.2308C507.143 72.4015 510.037 73.4868 513.703 73.4868Z" fill="url(#paint0_linear_27_2361)"/>
<line x1="381.352" y1="41.7798" x2="465.611" y2="41.7798" stroke="#00D2C6" stroke-width="11.622" stroke-linecap="round"/>
<path d="M381.362 41.7793H465.621" stroke="#00D2C6" stroke-width="11.622" stroke-linecap="round"/>
<line x1="419.122" y1="67.9293" x2="465.61" y2="67.9293" stroke="#00D2C6" stroke-width="11.622" stroke-linecap="round"/>
<line x1="419.122" y1="67.9293" x2="465.61" y2="67.9293" stroke="#00D2C6" stroke-width="11.622" stroke-linecap="round"/>
<path d="M381.362 67.9307L398.795 67.9307" stroke="#00D2C6" stroke-width="11.622" stroke-linecap="round"/>
<path d="M381.362 67.9307L398.795 67.9307" stroke="#00D2C6" stroke-width="11.622" stroke-linecap="round"/>
<line x1="424.932" y1="94.0816" x2="465.609" y2="94.0816" stroke="#00D2C6" stroke-width="11.622" stroke-linecap="round"/>
<line x1="381.35" y1="94.0787" x2="401.689" y2="94.0787" stroke="#00D2C6" stroke-width="11.622" stroke-linecap="round"/>
<line x1="424.932" y1="94.0816" x2="465.609" y2="94.0816" stroke="#00D2C6" stroke-width="11.622" stroke-linecap="round"/>
<line x1="381.35" y1="94.0787" x2="401.689" y2="94.0787" stroke="#00D2C6" stroke-width="11.622" stroke-linecap="round"/>
<line x1="381.365" y1="120.234" x2="422.042" y2="120.234" stroke="#00D2C6" stroke-width="11.622" stroke-linecap="round"/>
<line x1="439.467" y1="120.228" x2="465.616" y2="120.228" stroke="#00D2C6" stroke-width="11.622" stroke-linecap="round"/>
<line x1="381.365" y1="120.234" x2="422.042" y2="120.234" stroke="#00D2C6" stroke-width="11.622" stroke-linecap="round"/>
<line x1="439.467" y1="120.228" x2="465.616" y2="120.228" stroke="#00D2C6" stroke-width="11.622" stroke-linecap="round"/>
<defs>
<linearGradient id="paint0_linear_27_2361" x1="492.808" y1="182" x2="603.998" y2="32.8072" gradientUnits="userSpaceOnUse">
<stop stop-color="#A71FBD"/>
<stop offset="1" stop-color="#EB4D4D"/>
</linearGradient>
</defs>
</svg>
